{
.appVersion = "926";
DisplayStrings = (
n
);
copyright = "Copyright (c) 26.12.2011, Johan Aakerlund (aajohan@gmail.com), with Reserved Font Name \"Comfortaa\". This Font Software is licensed under the SIL Open Font License, Version 1.1. http://scripts.sil.org/OFL";
customParameters = (
{
name = glyphOrder;
value = (
.notdef,
NULL,
uni000D,
space,
exclam,
quotedbl,
numbersign,
dollar,
percent,
ampersand,
quotesingle,
parenleft,
parenright,
asterisk,
plus,
comma,
hyphen,
period,
slash,
zero,
one,
two,
three,
four,
five,
six,
seven,
eight,
nine,
colon,
semicolon,
less,
equal,
greater,
question,
at,
A,
B,
C,
D,
E,
F,
G,
H,
I,
J,
K,
L,
M,
N,
O,
P,
Q,
R,
S,
T,
U,
V,
W,
X,
Y,
Z,
bracketleft,
backslash,
bracketright,
asciicircum,
underscore,
grave,
a,
b,
c,
d,
e,
f,
g,
h,
i,
j,
k,
l,
m,
n,
o,
p,
q,
r,
s,
t,
u,
v,
w,
x,
y,
z,
braceleft,
bar,
braceright,
asciitilde,
exclamdown,
cent,
sterling,
currency,
yen,
brokenbar,
section,
dieresis,
copyright,
ordfeminine,
guillemotleft,
logicalnot,
registered,
macron,
degree,
plusminus,
uni00B2,
uni00B3,
acute,
uni00B5,
paragraph,
periodcentered,
cedilla,
uni00B9,
ordmasculine,
guillemotright,
onequarter,
onehalf,
threequarters,
questiondown,
Agrave,
Aacute,
Acircumflex,
Atilde,
Adieresis,
Aring,
AE,
Ccedilla,
Egrave,
Eacute,
Ecircumflex,
Edieresis,
Igrave,
Iacute,
Icircumflex,
Idieresis,
Eth,
Ntilde,
Ograve,
Oacute,
Ocircumflex,
Otilde,
Odieresis,
multiply,
Oslash,
Ugrave,
Uacute,
Ucircumflex,
Udieresis,
Yacute,
Thorn,
germandbls,
agrave,
aacute,
acircumflex,
atilde,
adieresis,
aring,
ae,
ccedilla,
egrave,
eacute,
ecircumflex,
edieresis,
igrave,
iacute,
icircumflex,
idieresis,
eth,
ntilde,
ograve,
oacute,
ocircumflex,
otilde,
odieresis,
divide,
oslash,
ugrave,
uacute,
ucircumflex,
udieresis,
yacute,
thorn,
ydieresis,
dotlessi,
circumflex,
caron,
uni02C9,
breve,
dotaccent,
ring,
ogonek,
tilde,
hungarumlaut,
uni0326,
endash,
emdash,
quoteleft,
quoteright,
quotesinglbase,
quotedblleft,
quotedblright,
quotedblbase,
dagger,
daggerdbl,

glyphs = (
{
glyphname = .notdef;
lastChange = "2016-10-19 22:54:34 +0000";
layers = (
{
layerId = "4B9C72B8-8622-4F9C-A154-BF8DEE7D8E25";
paths = (
{
closed = 1;
nodes = (
"573 0 OFFCURVE",
"586 13 OFFCURVE",
"586 29 CURVE SMOOTH",
"586 752 LINE SMOOTH",
"586 768 OFFCURVE",
"573 781 OFFCURVE",
"557 781 CURVE SMOOTH",
"68 781 LINE SMOOTH",
"52 781 OFFCURVE",
"39 768 OFFCURVE",
"39 752 CURVE SMOOTH",
"39 29 LINE SMOOTH",
"39 13 OFFCURVE",
"52 0 OFFCURVE",
"68 0 CURVE SMOOTH",
"557 0 LINE SMOOTH"
);
},
{
closed = 1;
nodes = (
"527 723 LINE",
"527 59 LINE",
"98 59 LINE",
"98 723 LINE"
);
},
{
closed = 1;
nodes = (
"195 573 OFFCURVE",
"248 625 OFFCURVE",
"313 625 CURVE SMOOTH",
"377 625 OFFCURVE",
"430 573 OFFCURVE",
"430 508 CURVE SMOOTH",
"430 475 OFFCURVE",
"418 448 OFFCURVE",
"396 425 CURVE",
"335 369 LINE",
"300 334 OFFCURVE",
"283 292 OFFCURVE",
"283 244 CURVE SMOOTH",
"283 228 OFFCURVE",
"296 215 OFFCURVE",
"313 215 CURVE SMOOTH",
"329 215 OFFCURVE",
"342 228 OFFCURVE",
"342 244 CURVE SMOOTH",
"342 277 OFFCURVE",
"354 304 OFFCURVE",
"376 327 CURVE SMOOTH",
"437 383 LINE SMOOTH",
"471 418 OFFCURVE",
"488 459 OFFCURVE",
"488 508 CURVE SMOOTH",
"488 605 OFFCURVE",
"410 684 OFFCURVE",
"313 684 CURVE SMOOTH",
"215 684 OFFCURVE",
"137 605 OFFCURVE",
"137 508 CURVE SMOOTH",
"137 492 OFFCURVE",
"150 479 OFFCURVE",
"166 479 CURVE SMOOTH",
"182 479 OFFCURVE",
"195 492 OFFCURVE",
"195 508 CURVE SMOOTH"
);
},
{
closed = 1;
nodes = (
"356 167 OFFCURVE",
"337 186 OFFCURVE",
"313 186 CURVE SMOOTH",
"289 186 OFFCURVE",
"269 167 OFFCURVE",
"269 142 CURVE SMOOTH",
"269 118 OFFCURVE",
"289 98 OFFCURVE",
"313 98 CURVE SMOOTH",
"337 98 OFFCURVE",
"356 118 OFFCURVE",
"356 142 CURVE SMOOTH"
);
}
);
width = 625;
}
);
note = "\012    .notdef\012  ";
changeCount = 1;
},
{
color = 4;
glyphname = exclam;
lastChange = "2016-10-19 22:54:34 +0000";
layers = (
{
layerId = "4B9C72B8-8622-4F9C-A154-BF8DEE7D8E25";
paths = (
{
closed = 1;
nodes = (
"59 174 OFFCURVE",
"76 156 OFFCURVE",
"98 156 CURVE SMOOTH",
"119 156 OFFCURVE",
"137 174 OFFCURVE",
"137 195 CURVE SMOOTH",
"137 742 LINE SMOOTH",
"137 764 OFFCURVE",
"119 781 OFFCURVE",
"98 781 CURVE SMOOTH",
"76 781 OFFCURVE",
"59 764 OFFCURVE",
"59 742 CURVE SMOOTH",
"59 195 LINE SMOOTH"
);
},
{
closed = 1;
nodes = (
"156 91 OFFCURVE",
"130 117 OFFCURVE",
"98 117 CURVE SMOOTH",
"65 117 OFFCURVE",
"39 91 OFFCURVE",
"39 59 CURVE SMOOTH",
"39 26 OFFCURVE",
"65 0 OFFCURVE",
"98 0 CURVE SMOOTH",
"130 0 OFFCURVE",
"156 26 OFFCURVE",
"156 59 CURVE SMOOTH"
);
}
);
width = 195;
}
);
note = "\012    exclam\012  ";
unicode = 0021;
changeCount = 1;
},
{
color = 4;
glyphname = quotedbl;
lastChange = "2016-10-19 22:54:34 +0000";
layers = (
{
layerId = "4B9C72B8-8622-4F9C-A154-BF8DEE7D8E25";
paths = (
{
closed = 1;
nodes = (
"117 742 LINE SMOOTH",
"117 764 OFFCURVE",
"100 781 OFFCURVE",
"78 781 CURVE SMOOTH",
"57 781 OFFCURVE",
"39 764 OFFCURVE",
"39 742 CURVE SMOOTH",
"39 738 LINE",
"49 596 LINE",
"49 580 OFFCURVE",
"62 566 OFFCURVE",
"78 566 CURVE SMOOTH",
"94 566 OFFCURVE",
"107 580 OFFCURVE",
"107 596 CURVE",
"117 738 LINE"
);
},
{
closed = 1;
nodes = (
"234 742 LINE SMOOTH",
"234 764 OFFCURVE",
"217 781 OFFCURVE",
"195 781 CURVE SMOOTH",
"174 781 OFFCURVE",
"156 764 OFFCURVE",
"156 742 CURVE SMOOTH",
"156 738 LINE",
"166 596 LINE",
"166 580 OFFCURVE",
"179 566 OFFCURVE",
"195 566 CURVE SMOOTH",
"211 566 OFFCURVE",
"225 580 OFFCURVE",
"225 596 CURVE",
"234 738 LINE"
);
}
);
width = 273;
}
);
note = "\012    quotedbl\012  ";
unicode = 0022;
changeCount = 1;
},
{
color = 4;
glyphname = numbersign;
lastChange = "2016-10-19 22:54:34 +0000";
layers = (
{
layerId = "4B9C72B8-8622-4F9C-A154-BF8DEE7D8E25";
paths = (
{
closed = 1;
nodes = (
"342 234 LINE",
"307 39 LINE SMOOTH",
"303 18 OFFCURVE",
"318 0 OFFCURVE",
"339 0 CURVE SMOOTH",
"361 0 OFFCURVE",
"381 18 OFFCURVE",
"385 39 CURVE SMOOTH",
"420 234 LINE",
"498 234 LINE SMOOTH",
"520 234 OFFCURVE",
"540 252 OFFCURVE",
"544 273 CURVE SMOOTH",
"548 295 OFFCURVE",
"533 313 OFFCURVE",
"512 313 CURVE SMOOTH",
"434 313 LINE",
"461 469 LINE",
"539 469 LINE SMOOTH",
"561 469 OFFCURVE",
"582 486 OFFCURVE",
"585 508 CURVE",
"585 510 OFFCURVE",
"585 513 OFFCURVE",
"585 515 CURVE SMOOTH",
"585 531 OFFCURVE",
"575 547 OFFCURVE",
"553 547 CURVE SMOOTH",
"475 547 LINE",
"509 742 LINE SMOOTH",
"513 764 OFFCURVE",
"499 781 OFFCURVE",
"477 781 CURVE SMOOTH",
"456 781 OFFCURVE",
"435 764 OFFCURVE",
"431 742 CURVE SMOOTH",
"397 547 LINE",
"280 547 LINE",
"314 742 LINE SMOOTH",
"318 764 OFFCURVE",
"303 781 OFFCURVE",
"282 781 CURVE SMOOTH",
"260 781 OFFCURVE",
"240 764 OFFCURVE",
"236 742 CURVE SMOOTH",
"202 547 LINE",
"124 547 LINE SMOOTH",
"102 547 OFFCURVE",
"81 529 OFFCURVE",
"77 508 CURVE SMOOTH",
"74 486 OFFCURVE",
"88 469 OFFCURVE",
"109 469 CURVE SMOOTH",
"188 469 LINE",
"160 313 LINE",
"82 313 LINE SMOOTH",
"61 313 OFFCURVE",
"40 295 OFFCURVE",
"36 273 CURVE SMOOTH",
"36 271 OFFCURVE",
"36 269 OFFCURVE",
"36 266 CURVE SMOOTH",
"36 250 OFFCURVE",
"47 234 OFFCURVE",
"68 234 CURVE SMOOTH",
"146 234 LINE",
"112 39 LINE SMOOTH",
"108 18 OFFCURVE",
"123 0 OFFCURVE",
"144 0 CURVE SMOOTH",
"166 0 OFFCURVE",
"186 18 OFFCURVE",
"190 39 CURVE SMOOTH",
"225 234 LINE"
);
},
{
closed = 1;
nodes = (
"355 313 LINE",
"238 313 LINE",
"266 469 LINE",
"383 469 LINE"
);
}
);
width = 625;
}
);
note = "\012    numbersign\012  ";
unicode = 0023;
changeCount = 1;
},
{
color = 4;
glyphname = dollar;
lastChange = "2016-10-19 22:54:34 +0000";
layers = (
{
layerId = "4B9C72B8-8622-4F9C-A154-BF8DEE7D8E25";
paths = (
{
closed = 1;
nodes = (
"234 -61 OFFCURVE",
"252 -78 OFFCURVE",
"273 -78 CURVE SMOOTH",
"295 -78 OFFCURVE",
"313 -61 OFFCURVE",
"313 -39 CURVE SMOOTH",
"313 10 LINE",
"342 19 OFFCURVE",
"370 34 OFFCURVE",
"396 56 CURVE SMOOTH",
"445 98 OFFCURVE",
"472 151 OFFCURVE",
"478 215 CURVE SMOOTH",
"478 223 OFFCURVE",
"479 230 OFFCURVE",
"479 238 CURVE SMOOTH",
"479 349 OFFCURVE",
"398 434 OFFCURVE",
"313 459 CURVE",
"313 695 LINE",
"332 689 OFFCURVE",
"348 677 OFFCURVE",
"362 661 CURVE SMOOTH",
"367 655 OFFCURVE",
"370 650 OFFCURVE",
"374 645 CURVE",
"375 642 OFFCURVE",
"377 639 OFFCURVE",
"380 637 CURVE",
"388 629 OFFCURVE",
"397 625 OFFCURVE",
"408 625 CURVE SMOOTH",
"429 625 OFFCURVE",
"447 643 OFFCURVE",
"447 664 CURVE SMOOTH",
"447 680 OFFCURVE",
"436 694 OFFCURVE",
"422 711 CURVE SMOOTH",
"392 746 OFFCURVE",
"356 768 OFFCURVE",
"313 776 CURVE",
"313 820 LINE SMOOTH",
"313 842 OFFCURVE",
"295 859 OFFCURVE",
"273 859 CURVE SMOOTH",
"252 859 OFFCURVE",
"234 842 OFFCURVE",
"234 820 CURVE SMOOTH",
"234 777 LINE",
"170 765 OFFCURVE",
"87 708 OFFCURVE",
"78 601 CURVE SMOOTH",
"70 493 OFFCURVE",
"147 410 OFFCURVE",
"234 393 CURVE",
"234 79 LINE",
"189 82 OFFCURVE",
"153 101 OFFCURVE",
"125 134 CURVE",
"120 139 OFFCURVE",
"115 145 OFFCURVE",
"111 151 CURVE",
"103 164 OFFCURVE",
"92 169 OFFCURVE",
"78 169 CURVE SMOOTH",
"57 169 OFFCURVE",
"39 152 OFFCURVE",
"39 130 CURVE SMOOTH",
"39 122 OFFCURVE",
"42 114 OFFCURVE",
"47 107 CURVE",
"52 99 OFFCURVE",
"59 90 OFFCURVE",
"65 83 CURVE",
"107 34 OFFCURVE",
"160 6 OFFCURVE",
"225 1 CURVE",
"228 0 OFFCURVE",
"231 0 OFFCURVE",
"234 0 CURVE",
"234 -39 LINE SMOOTH"
);
},
{
closed = 1;
nodes = (
"215 480 OFFCURVE",
"198 492 OFFCURVE",
"184 509 CURVE SMOOTH",
"142 559 OFFCURVE",
"148 632 OFFCURVE",
"197 674 CURVE SMOOTH",
"208 684 OFFCURVE",
"221 691 OFFCURVE",
"234 696 CURVE",
"234 474 LINE"
);
},
{
closed = 1;
nodes = (
"332 366 OFFCURVE",
"349 353 OFFCURVE",
"364 336 CURVE SMOOTH",
"419 270 OFFCURVE",
"411 171 OFFCURVE",
"345 116 CURVE",
"335 106 OFFCURVE",
"324 99 OFFCURVE",
"313 94 CURVE",
"313 375 LINE"
);
}
);
width = 518;
}
);
note = "\012    dollar\012  ";
unicode = 0024;
changeCount = 1;
},
{
color = 4;
glyphname = percent;
lastChange = "2016-10-19 22:54:34 +0000";
layers = (
{
layerId = "4B9C72B8-8622-4F9C-A154-BF8DEE7D8E25";
paths = (
{
closed = 1;
nodes = (
"430 694 OFFCURVE",
"342 781 OFFCURVE",
"234 781 CURVE SMOOTH",
"126 781 OFFCURVE",
"39 694 OFFCURVE",
"39 586 CURVE SMOOTH",
"39 478 OFFCURVE",
"126 391 OFFCURVE",
"234 391 CURVE SMOOTH",
"342 391 OFFCURVE",
"430 478 OFFCURVE",
"430 586 CURVE SMOOTH"
);
},
{
closed = 1;
nodes = (
"167 0 OFFCURVE",
"177 4 OFFCURVE",
"186 13 CURVE",
"734 719 LINE SMOOTH",
"740 726 OFFCURVE",
"742 733 OFFCURVE",
"742 742 CURVE SMOOTH",
"742 764 OFFCURVE",
"725 781 OFFCURVE",
"703 781 CURVE SMOOTH",
"691 781 OFFCURVE",
"681 776 OFFCURVE",
"671 765 CURVE",
"127 65 LINE",
"121 58 OFFCURVE",
"117 49 OFFCURVE",
"117 39 CURVE SMOOTH",
"117 18 OFFCURVE",
"135 0 OFFCURVE",
"156 0 CURVE SMOOTH"
);
},
{
closed = 1;
nodes = (
"299 703 OFFCURVE",
"352 650 OFFCURVE",
"352 586 CURVE SMOOTH",
"352 521 OFFCURVE",
"299 469 OFFCURVE",
"234 469 CURVE SMOOTH",
"170 469 OFFCURVE",
"117 521 OFFCURVE",
"117 586 CURVE SMOOTH",
"117 650 OFFCURVE",
"170 703 OFFCURVE",
"234 703 CURVE SMOOTH"
);
},
{
closed = 1;
nodes = (
"430 87 OFFCURVE",
"517 0 OFFCURVE",
"625 0 CURVE SMOOTH",
"733 0 OFFCURVE",
"820 87 OFFCURVE",
"820 195 CURVE SMOOTH",
"820 303 OFFCURVE",
"733 391 OFFCURVE",
"625 391 CURVE SMOOTH",
"517 391 OFFCURVE",
"430 303 OFFCURVE",
"430 195 CURVE SMOOTH"
);
},
{
closed = 1;
nodes = (
"689 313 OFFCURVE",
"742 260 OFFCURVE",
"742 195 CURVE SMOOTH",
"742 131 OFFCURVE",
"689 78 OFFCURVE",
"625 78 CURVE SMOOTH",
"561 78 OFFCURVE",
"508 131 OFFCURVE",
"508 195 CURVE SMOOTH",
"508 260 OFFCURVE",
"561 313 OFFCURVE",
"625 313 CURVE SMOOTH"
);
}
);
width = 859;
}
);
note = "\012    percent\012  ";
unicode = 0025;
changeCount = 1;
},
{
color = 4;
glyphname = ampersand;
lastChange = "2016-10-19 22:54:34 +0000";
layers = (
{
layerId = "4B9C72B8-8622-4F9C-A154-BF8DEE7D8E25";
paths = (
{
closed = 1;
nodes = (
"406 507 OFFCURVE",
"430 554 OFFCURVE",
"430 605 CURVE SMOOTH",
"430 703 OFFCURVE",
"351 781 OFFCURVE",
"254 781 CURVE SMOOTH",
"157 781 OFFCURVE",
"78 703 OFFCURVE",
"78 605 CURVE SMOOTH",
"78 557 OFFCURVE",
"95 516 OFFCURVE",
"129 481 CURVE SMOOTH",
"183 427 LINE",
"131 386 LINE SMOOTH",
"70 338 OFFCURVE",
"39 284 OFFCURVE",
"39 225 CURVE SMOOTH",
"39 93 OFFCURVE",
"135 0 OFFCURVE",
"254 0 CURVE SMOOTH",
"313 0 OFFCURVE",
"364 21 OFFCURVE",
"406 63 CURVE SMOOTH",
"474 135 LINE",
"598 11 LINE SMOOTH",
"605 3 OFFCURVE",
"615 0 OFFCURVE",
"625 0 CURVE SMOOTH",
"646 0 OFFCURVE",
"664 18 OFFCURVE",
"664 39 CURVE SMOOTH",
"664 49 OFFCURVE",
"661 58 OFFCURVE",
"653 65 CURVE SMOOTH",
"527 193 LINE",
"615 286 LINE",
"622 293 OFFCURVE",
"625 302 OFFCURVE",
"625 313 CURVE SMOOTH",
"625 334 OFFCURVE",
"607 352 OFFCURVE",
"586 352 CURVE SMOOTH",
"575 352 OFFCURVE",
"566 348 OFFCURVE",
"559 340 CURVE SMOOTH",
"472 248 LINE",
"299 421 LINE",
"358 466 LINE"
);
},
{
closed = 1;
nodes = (
"166 556 OFFCURVE",
"156 579 OFFCURVE",
"156 605 CURVE SMOOTH",
"156 660 OFFCURVE",
"200 703 OFFCURVE",
"254 703 CURVE SMOOTH",
"308 703 OFFCURVE",
"352 660 OFFCURVE",
"352 605 CURVE SMOOTH",
"352 575 OFFCURVE",
"335 547 OFFCURVE",
"303 521 CURVE SMOOTH",
"245 476 LINE",
"185 537 LINE SMOOTH"
);
},
{
closed = 1;
nodes = (
"324 91 OFFCURVE",
"292 78 OFFCURVE",
"254 78 CURVE SMOOTH",
"178 78 OFFCURVE",
"117 136 OFFCURVE",
"117 225 CURVE SMOOTH",
"117 262 OFFCURVE",
"139 298 OFFCURVE",
"182 331 CURVE SMOOTH",
"237 373 LINE",
"418 191 LINE",
"351 118 LINE SMOOTH"
);
}
);
width = 703;
}
);
note = "\012    ampersand\012  ";
unicode = 0026;
changeCount = 1;
},
{
color = 4;
glyphname = quotesingle;
lastChange = "2016-10-19 22:54:34 +0000";
layers = (
{
layerId = "4B9C72B8-8622-4F9C-A154-BF8DEE7D8E25";
paths = (
{
closed = 1;
nodes = (
"117 742 LINE SMOOTH",
"117 764 OFFCURVE",
"100 781 OFFCURVE",
"78 781 CURVE SMOOTH",
"57 781 OFFCURVE",
"39 764 OFFCURVE",
"39 742 CURVE SMOOTH",
"39 738 LINE",
"49 596 LINE",
"49 580 OFFCURVE",
"62 566 OFFCURVE",
"78 566 CURVE SMOOTH",
"94 566 OFFCURVE",
"107 580 OFFCURVE",
"107 596 CURVE",
"117 738 LINE"
);
}
);
width = 156;
}
);
note = "\012    quotesingle\012  ";
unicode = 0027;
changeCount = 1;
},
{
color = 4;
glyphname = parenleft;
lastChange = "2016-10-19 22:54:34 +0000";
layers = (
{
layerId = "4B9C72B8-8622-4F9C-A154-BF8DEE7D8E25";
paths = (
{
closed = 1;
nodes = (
"79 595 OFFCURVE",
"39 435 OFFCURVE",
"39 274 CURVE SMOOTH",
"39 114 OFFCURVE",
"79 -47 OFFCURVE",
"158 -208 CURVE SMOOTH",
"160 -213 OFFCURVE",
"163 -218 OFFCURVE",
"167 -223 CURVE",
"175 -230 OFFCURVE",
"184 -234 OFFCURVE",
"195 -234 CURVE SMOOTH",
"216 -234 OFFCURVE",
"234 -217 OFFCURVE",
"234 -195 CURVE SMOOTH",
"234 -188 OFFCURVE",
"232 -181 OFFCURVE",
"229 -175 CURVE",
"154 -25 OFFCURVE",
"116 124 OFFCURVE",
"116 274 CURVE SMOOTH",
"116 423 OFFCURVE",
"153 572 OFFCURVE",
"228 721 CURVE SMOOTH",
"231 728 OFFCURVE",
"233 734 OFFCURVE",
"234 742 CURVE",
"234 764 OFFCURVE",
"216 781 OFFCURVE",
"195 781 CURVE SMOOTH",
"173 781 OFFCURVE",
"162 766 OFFCURVE",
"158 755 CURVE"
);
}
);
width = 273;
}
);
note = "\012    parenleft\012  ";
unicode = 0028;
changeCount = 1;
},
{
color = 4;
glyphname = parenright;
lastChange = "2016-10-19 22:54:34 +0000";
layers = (
{
layerId = "4B9C72B8-8622-4F9C-A154-BF8DEE7D8E25";
paths = (
{
closed = 1;
nodes = (
"111 766 OFFCURVE",
"100 781 OFFCURVE",
"78 781 CURVE SMOOTH",
"57 781 OFFCURVE",
"39 764 OFFCURVE",
"39 742 CURVE",
"40 734 OFFCURVE",
"42 728 OFFCURVE",
"45 721 CURVE SMOOTH",
"120 572 OFFCURVE",
"157 423 OFFCURVE",
"157 274 CURVE SMOOTH",
"157 124 OFFCURVE",
"119 -25 OFFCURVE",
"44 -175 CURVE",
"41 -181 OFFCURVE",
"39 -188 OFFCURVE",
"39 -195 CURVE SMOOTH",
"39 -217 OFFCURVE",
"57 -234 OFFCURVE",
"78 -234 CURVE SMOOTH",
"89 -234 OFFCURVE",
"98 -230 OFFCURVE",
"106 -223 CURVE",
"109 -218 OFFCURVE",
"113 -213 OFFCURVE",
"115 -208 CURVE SMOOTH",
"195 -47 OFFCURVE",
"234 114 OFFCURVE",
"234 274 CURVE SMOOTH",
"234 435 OFFCURVE",
"195 595 OFFCURVE",
"115 755 CURVE"
);
}
);
width = 273;
}
);
note = "\012    parenright\012  ";
unicode = 0029;
changeCount = 1;
},
{
color = 4;
glyphname = asterisk;
lastChange = "2016-10-19 22:54:34 +0000";
layers = (
{
layerId = "4B9C72B8-8622-4F9C-A154-BF8DEE7D8E25";
paths = (
{
closed = 1;
nodes = (
"94 563 OFFCURVE",
"91 561 OFFCURVE",
"88 557 CURVE SMOOTH",
"82 548 OFFCURVE",
"79 539 OFFCURVE",
"80 528 CURVE SMOOTH",
"83 506 OFFCURVE",
"101 494 OFFCURVE",
"118 494 CURVE SMOOTH",
"132 494 OFFCURVE",
"143 499 OFFCURVE",
"149 509 CURVE",
"152 512 OFFCURVE",
"154 516 OFFCURVE",
"156 521 CURVE",
"191 609 LINE",
"227 521 LINE",
"228 516 OFFCURVE",
"230 512 OFFCURVE",
"233 509 CURVE",
"239 500 OFFCURVE",
"248 496 OFFCURVE",
"259 494 CURVE",
"271 494 OFFCURVE",
"280 497 OFFCURVE",
"288 502 CURVE SMOOTH",
"305 515 OFFCURVE",
"308 540 OFFCURVE",
"294 557 CURVE SMOOTH",
"292 561 OFFCURVE",
"288 563 OFFCURVE",
"285 566 CURVE SMOOTH",
"206 621 LINE",
"302 625 LINE",
"306 625 OFFCURVE",
"311 625 OFFCURVE",
"315 627 CURVE SMOOTH",
"325 630 OFFCURVE",
"333 637 OFFCURVE",
"337 647 CURVE SMOOTH",
"339 652 OFFCURVE",
"341 658 OFFCURVE",
"341 664 CURVE SMOOTH",
"341 668 OFFCURVE",
"340 672 OFFCURVE",
"338 677 CURVE SMOOTH",
"331 698 OFFCURVE",
"309 708 OFFCURVE",
"289 701 CURVE SMOOTH",
"284 699 OFFCURVE",
"280 697 OFFCURVE",
"277 694 CURVE SMOOTH",
"200 637 LINE",
"228 729 LINE SMOOTH",
"229 733 OFFCURVE",
"230 738 OFFCURVE",
"230 742 CURVE SMOOTH",
"230 764 OFFCURVE",
"212 781 OFFCURVE",
"191 781 CURVE SMOOTH",
"169 781 OFFCURVE",
"152 764 OFFCURVE",
"152 742 CURVE SMOOTH",
"152 738 OFFCURVE",
"152 733 OFFCURVE",
"154 729 CURVE SMOOTH",
"182 637 LINE",
"105 694 LINE SMOOTH",
"102 697 OFFCURVE",
"98 699 OFFCURVE",
"94 701 CURVE SMOOTH",
"74 708 OFFCURVE",
"51 698 OFFCURVE",
"44 677 CURVE SMOOTH",
"42 672 OFFCURVE",
"42 668 OFFCURVE",
"42 664 CURVE SMOOTH",
"42 652 OFFCURVE",
"48 634 OFFCURVE",
"68 627 CURVE SMOOTH",
"72 625 OFFCURVE",
"77 625 OFFCURVE",
"81 625 CURVE",
"176 621 LINE",
"98 566 LINE SMOOTH"
);
}
);
width = 381;
}
);
note = "\012    asterisk\012  ";
unicode = 002A;
changeCount = 1;
},
{
color = 4;
glyphname = plus;
lastChange = "2016-10-19 22:54:34 +0000";
layers = (
{
layerId = "4B9C72B8-8622-4F9C-A154-BF8DEE7D8E25";
paths = (
{
closed = 1;
nodes = (
"78 430 LINE SMOOTH",
"57 430 OFFCURVE",
"39 412 OFFCURVE",
"39 391 CURVE SMOOTH",
"39 369 OFFCURVE",
"57 352 OFFCURVE",
"78 352 CURVE SMOOTH",
"234 352 LINE",
"234 195 LINE SMOOTH",
"234 174 OFFCURVE",
"252 156 OFFCURVE",
"273 156 CURVE SMOOTH",
"295 156 OFFCURVE",
"313 174 OFFCURVE",
"313 195 CURVE SMOOTH",
"313 352 LINE",
"469 352 LINE SMOOTH",
"490 352 OFFCURVE",
"508 369 OFFCURVE",
"508 391 CURVE SMOOTH",
"508 412 OFFCURVE",
"490 430 OFFCURVE",
"469 430 CURVE SMOOTH",
"313 430 LINE",
"313 586 LINE SMOOTH",
"313 607 OFFCURVE",
"295 625 OFFCURVE",
"273 625 CURVE SMOOTH",
"252 625 OFFCURVE",
"234 607 OFFCURVE",
"234 586 CURVE SMOOTH",
"234 430 LINE"
);
}
);
width = 547;
}
);
note = "\012    plus\012  ";
unicode = 002B;
changeCount = 1;
},
{
color = 4;
glyphname = comma;
lastChange = "2016-10-19 22:54:34 +0000";
layers = (
{
layerId = "4B9C72B8-8622-4F9C-A154-BF8DEE7D8E25";
paths = (
{
closed = 1;
nodes = (
"86 -14 OFFCURVE",
"90 -42 OFFCURVE",
"67 -67 CURVE",
"62 -73 OFFCURVE",
"59 -80 OFFCURVE",
"59 -88 CURVE SMOOTH",
"59 -104 OFFCURVE",
"72 -117 OFFCURVE",
"88 -117 CURVE SMOOTH",
"99 -117 OFFCURVE",
"108 -112 OFFCURVE",
"114 -102 CURVE",
"142 -59 OFFCURVE",
"156 -5 OFFCURVE",
"156 59 CURVE SMOOTH",
"156 91 OFFCURVE",
"130 117 OFFCURVE",
"98 117 CURVE SMOOTH",
"65 117 OFFCURVE",
"39 91 OFFCURVE",
"39 59 CURVE SMOOTH",
"39 42 OFFCURVE",
"45 28 OFFCURVE",
"56 17 CURVE SMOOTH"
);
}
);
width = 195;
}
);
note = "\012    comma\012  ";
unicode = 002C;
changeCount = 1;
},
{
color = 4;
glyphname = hyphen;
lastChange = "2016-10-19 22:54:34 +0000";
layers = (
{
layerId = "4B9C72B8-8622-4F9C-A154-BF8DEE7D8E25";
paths = (
{
closed = 1;
nodes = (
"334 234 OFFCURVE",
"352 252 OFFCURVE",
"352 273 CURVE SMOOTH",
"352 295 OFFCURVE",
"334 313 OFFCURVE",
"313 313 CURVE SMOOTH",
"78 313 LINE SMOOTH",
"57 313 OFFCURVE",
"39 295 OFFCURVE",
"39 273 CURVE SMOOTH",
"39 252 OFFCURVE",
"57 234 OFFCURVE",
"78 234 CURVE SMOOTH",
"313 234 LINE SMOOTH"
);
}
);
width = 391;
}
);
note = "\012    hyphen\012  ";
unicode = 002D;
changeCount = 1;
},
{
color = 4;
glyphname = period;
lastChange = "2016-10-19 22:54:34 +0000";
layers = (
{
layerId = "4B9C72B8-8622-4F9C-A154-BF8DEE7D8E25";
paths = (
{
closed = 1;
nodes = (
"156 91 OFFCURVE",
"130 117 OFFCURVE",
"98 117 CURVE SMOOTH",
"65 117 OFFCURVE",
"39 91 OFFCURVE",
"39 59 CURVE SMOOTH",
"39 26 OFFCURVE",
"65 0 OFFCURVE",
"98 0 CURVE SMOOTH",
"130 0 OFFCURVE",
"156 26 OFFCURVE",
"156 59 CURVE SMOOTH"
);
}
);
width = 195;
}
);
note = "\012    period\012  ";
unicode = 002E;
changeCount = 1;
},
{
color = 4;
glyphname = slash;
lastChange = "2016-10-19 22:54:34 +0000";
layers = (
{
layerId = "4B9C72B8-8622-4F9C-A154-BF8DEE7D8E25";
paths = (
{
closed = 1;
nodes = (
"360 767 OFFCURVE",
"357 763 OFFCURVE",
"355 759 CURVE",
"42 -22 LINE",
"40 -28 OFFCURVE",
"39 -33 OFFCURVE",
"39 -39 CURVE SMOOTH",
"39 -61 OFFCURVE",
"57 -78 OFFCURVE",
"78 -78 CURVE SMOOTH",
"89 -78 OFFCURVE",
"98 -74 OFFCURVE",
"106 -66 CURVE SMOOTH",
"109 -63 OFFCURVE",
"112 -60 OFFCURVE",
"114 -56 CURVE",
"426 726 LINE",
"429 731 OFFCURVE",
"430 736 OFFCURVE",
"430 742 CURVE SMOOTH",
"430 764 OFFCURVE",
"412 781 OFFCURVE",
"391 781 CURVE SMOOTH",
"380 781 OFFCURVE",
"371 777 OFFCURVE",
"363 770 CURVE SMOOTH"
);
}
);
width = 469;
}
);
note = "\012    slash\012  ";
unicode = 002F;
changeCount = 1;
},
{
color = 4;
glyphname = zero;
lastChange = "2016-10-19 22:54:34 +0000";
layers = (
{
layerId = "4B9C72B8-8622-4F9C-A154-BF8DEE7D8E25";
paths = (
{
closed = 1;
nodes = (
"39 234 OFFCURVE",
"71 123 OFFCURVE",
"135 57 CURVE SMOOTH",
"173 19 OFFCURVE",
"219 0 OFFCURVE",
"273 0 CURVE SMOOTH",
"328 0 OFFCURVE",
"374 19 OFFCURVE",
"412 57 CURVE SMOOTH",
"476 123 OFFCURVE",
"508 234 OFFCURVE",
"508 391 CURVE SMOOTH",
"508 547 OFFCURVE",
"476 658 OFFCURVE",
"412 724 CURVE SMOOTH",
"374 762 OFFCURVE",
"328 781 OFFCURVE",
"273 781 CURVE SMOOTH",
"219 781 OFFCURVE",
"173 762 OFFCURVE",
"135 724 CURVE SMOOTH",
"71 658 OFFCURVE",
"39 547 OFFCURVE",
"39 391 CURVE SMOOTH"
);
},
{
closed = 1;
nodes = (
"306 703 OFFCURVE",
"333 691 OFFCURVE",
"356 668 CURVE",
"405 613 OFFCURVE",
"430 521 OFFCURVE",
"430 391 CURVE SMOOTH",
"430 260 OFFCURVE",
"405 168 OFFCURVE",
"356 113 CURVE",
"333 90 OFFCURVE",
"306 78 OFFCURVE",
"273 78 CURVE SMOOTH",
"241 78 OFFCURVE",
"213 90 OFFCURVE",
"190 113 CURVE",
"142 168 OFFCURVE",
"117 260 OFFCURVE",
"117 391 CURVE SMOOTH",
"117 521 OFFCURVE",
"142 613 OFFCURVE",
"190 668 CURVE",
"213 691 OFFCURVE",
"241 703 OFFCURVE",
"273 703 CURVE SMOOTH"
);
}
);
width = 547;
}
);
note = "\012    zero\012  ";
unicode = 0030;
changeCount = 1;
},
{
color = 4;
glyphname = one;
lastChange = "2016-10-19 22:54:34 +0000";
layers = (
{
layerId = "4B9C72B8-8622-4F9C-A154-BF8DEE7D8E25";
paths = (
{
closed = 1;
nodes = (
"234 764 OFFCURVE",
"217 781 OFFCURVE",
"195 781 CURVE SMOOTH",
"190 781 OFFCURVE",
"186 780 OFFCURVE",
"181 779 CURVE SMOOTH",
"64 740 LINE",
"59 738 OFFCURVE",
"55 735 OFFCURVE",
"51 731 CURVE SMOOTH",
"43 723 OFFCURVE",
"39 714 OFFCURVE",
"39 703 CURVE SMOOTH",
"39 682 OFFCURVE",
"57 664 OFFCURVE",
"78 664 CURVE SMOOTH",
"83 664 OFFCURVE",
"88 665 OFFCURVE",
"93 667 CURVE",
"156 688 LINE",
"156 39 LINE SMOOTH",
"156 18 OFFCURVE",
"174 0 OFFCURVE",
"195 0 CURVE SMOOTH",
"217 0 OFFCURVE",
"234 18 OFFCURVE",
"234 39 CURVE SMOOTH",
"234 742 LINE SMOOTH"
);
}
);
width = 273;
}
);
note = "\012    one\012  ";
unicode = 0031;
changeCount = 1;
},
{
color = 4;
glyphname = two;
lastChange = "2016-10-19 22:54:34 +0000";
layers = (
{
layerId = "4B9C72B8-8622-4F9C-A154-BF8DEE7D8E25";
paths = (
{
closed = 1;
nodes = (
"439 381 LINE",
"485 427 OFFCURVE",
"508 482 OFFCURVE",
"508 547 CURVE SMOOTH",
"508 676 OFFCURVE",
"403 781 OFFCURVE",
"273 781 CURVE SMOOTH",
"144 781 OFFCURVE",
"39 676 OFFCURVE",
"39 547 CURVE SMOOTH",
"39 525 OFFCURVE",
"57 508 OFFCURVE",
"78 508 CURVE SMOOTH",
"100 508 OFFCURVE",
"117 525 OFFCURVE",
"117 547 CURVE SMOOTH",
"117 633 OFFCURVE",
"187 703 OFFCURVE",
"273 703 CURVE SMOOTH",
"360 703 OFFCURVE",
"430 633 OFFCURVE",
"430 547 CURVE SMOOTH",
"430 503 OFFCURVE",
"415 467 OFFCURVE",
"384 436 CURVE",
"50 67 LINE SMOOTH",
"43 59 OFFCURVE",
"39 50 OFFCURVE",
"39 39 CURVE SMOOTH",
"39 18 OFFCURVE",
"57 0 OFFCURVE",
"78 0 CURVE SMOOTH",
"469 0 LINE SMOOTH",
"490 0 OFFCURVE",
"508 18 OFFCURVE",
"508 39 CURVE SMOOTH",
"508 61 OFFCURVE",
"490 78 OFFCURVE",
"469 78 CURVE SMOOTH",
"167 78 LINE"
);
}
);
width = 547;
}
);
note = "\012    two\012  ";
unicode = 0032;
changeCount = 1;
},
{
color = 4;
glyphname = three;
lastChange = "2016-10-19 22:54:34 +0000";
layers = (
{
layerId = "4B9C72B8-8622-4F9C-A154-BF8DEE7D8E25";
paths = (
{
closed = 1;
nodes = (
"360 391 OFFCURVE",
"430 321 OFFCURVE",
"430 234 CURVE SMOOTH",
"430 148 OFFCURVE",
"360 78 OFFCURVE",
"273 78 CURVE SMOOTH",
"187 78 OFFCURVE",
"117 148 OFFCURVE",
"117 234 CURVE SMOOTH",
"117 256 OFFCURVE",
"100 273 OFFCURVE",
"78 273 CURVE SMOOTH",
"57 273 OFFCURVE",
"39 256 OFFCURVE",
"39 234 CURVE SMOOTH",
"39 105 OFFCURVE",
"144 0 OFFCURVE",
"273 0 CURVE SMOOTH",
"403 0 OFFCURVE",
"508 105 OFFCURVE",
"508 234 CURVE SMOOTH",
"508 299 OFFCURVE",
"485 354 OFFCURVE",
"439 400 CURVE SMOOTH",
"426 414 OFFCURVE",
"412 425 OFFCURVE",
"397 434 CURVE",
"445 478 OFFCURVE",
"469 529 OFFCURVE",
"469 586 CURVE SMOOTH",
"469 694 OFFCURVE",
"381 781 OFFCURVE",
"273 781 CURVE SMOOTH",
"166 781 OFFCURVE",
"78 694 OFFCURVE",
"78 586 CURVE SMOOTH",
"78 564 OFFCURVE",
"96 547 OFFCURVE",
"117 547 CURVE SMOOTH",
"139 547 OFFCURVE",
"156 564 OFFCURVE",
"156 586 CURVE SMOOTH",
"156 650 OFFCURVE",
"209 703 OFFCURVE",
"273 703 CURVE SMOOTH",
"338 703 OFFCURVE",
"391 650 OFFCURVE",
"391 586 CURVE SMOOTH",
"391 521 OFFCURVE",
"338 469 OFFCURVE",
"273 469 CURVE SMOOTH",
"252 469 OFFCURVE",
"234 451 OFFCURVE",
"234 430 CURVE SMOOTH",
"234 408 OFFCURVE",
"252 391 OFFCURVE",
"273 391 CURVE SMOOTH"
);
}
);
width = 547;
}
);
note = "\012    three\012  ";
unicode = 0033;
changeCount = 1;
},
{
color = 4;
glyphname = four;
lastChange = "2016-10-19 22:54:34 +0000";
layers = (
{
layerId = "4B9C72B8-8622-4F9C-A154-BF8DEE7D8E25";
paths = (
{
closed = 1;
nodes = (
"391 39 LINE SMOOTH",
"391 18 OFFCURVE",
"408 0 OFFCURVE",
"430 0 CURVE SMOOTH",
"451 0 OFFCURVE",
"469 18 OFFCURVE",
"469 39 CURVE SMOOTH",
"469 195 LINE",
"547 195 LINE SMOOTH",
"568 195 OFFCURVE",
"586 213 OFFCURVE",
"586 234 CURVE SMOOTH",
"586 256 OFFCURVE",
"568 273 OFFCURVE",
"547 273 CURVE SMOOTH",
"469 273 LINE",
"469 742 LINE SMOOTH",
"469 764 OFFCURVE",
"451 781 OFFCURVE",
"430 781 CURVE SMOOTH",
"416 781 OFFCURVE",
"405 776 OFFCURVE",
"398 765 CURVE SMOOTH",
"46 257 LINE SMOOTH",
"42 250 OFFCURVE",
"39 243 OFFCURVE",
"39 234 CURVE SMOOTH",
"39 213 OFFCURVE",
"57 195 OFFCURVE",
"78 195 CURVE SMOOTH",
"391 195 LINE"
);
},
{
closed = 1;
nodes = (
"391 617 LINE",
"391 273 LINE",
"153 273 LINE"
);
}
);
width = 625;
}
);
note = "\012    four\012  ";
unicode = 0034;
changeCount = 1;
},
{
color = 4;
glyphname = five;
lastChange = "2016-10-19 22:54:34 +0000";
layers = (
{
layerId = "4B9C72B8-8622-4F9C-A154-BF8DEE7D8E25";
paths = (
{
closed = 1;
nodes = (
"96 781 OFFCURVE",
"78 764 OFFCURVE",
"78 742 CURVE SMOOTH",
"78 469 LINE SMOOTH",
"78 447 OFFCURVE",
"96 430 OFFCURVE",
"117 430 CURVE SMOOTH",
"293 430 LINE SMOOTH",
"390 430 OFFCURVE",
"469 351 OFFCURVE",
"469 254 CURVE SMOOTH",
"469 157 OFFCURVE",
"390 78 OFFCURVE",
"293 78 CURVE SMOOTH",
"196 78 OFFCURVE",
"117 157 OFFCURVE",
"117 254 CURVE SMOOTH",
"117 275 OFFCURVE",
"100 293 OFFCURVE",
"78 293 CURVE SMOOTH",
"57 293 OFFCURVE",
"39 275 OFFCURVE",
"39 254 CURVE SMOOTH",
"39 114 OFFCURVE",
"153 0 OFFCURVE",
"293 0 CURVE SMOOTH",
"433 0 OFFCURVE",
"547 114 OFFCURVE",
"547 254 CURVE SMOOTH",
"547 394 OFFCURVE",
"433 508 OFFCURVE",
"293 508 CURVE SMOOTH",
"156 508 LINE",
"156 703 LINE",
"469 703 LINE SMOOTH",
"490 703 OFFCURVE",
"508 721 OFFCURVE",
"508 742 CURVE SMOOTH",
"508 764 OFFCURVE",
"490 781 OFFCURVE",
"469 781 CURVE SMOOTH",
"117 781 LINE SMOOTH"
);
}
);
width = 586;
}
);
note = "\012    five\012  ";
unicode = 0035;
changeCount = 1;
},
{
color = 4;
glyphname = six;
lastChange = "2016-10-19 22:54:34 +0000";
layers = (
{
layerId = "4B9C72B8-8622-4F9C-A154-BF8DEE7D8E25";
paths = (
{
closed = 1;
nodes = (
"389 728 OFFCURVE",
"391 735 OFFCURVE",
"391 742 CURVE SMOOTH",
"391 764 OFFCURVE",
"373 781 OFFCURVE",
"352 781 CURVE SMOOTH",
"341 781 OFFCURVE",
"332 777 OFFCURVE",
"324 770 CURVE SMOOTH",
"321 767 OFFCURVE",
"318 763 OFFCURVE",
"316 760 CURVE SMOOTH",
"77 362 LINE",
"52 325 OFFCURVE",
"39 282 OFFCURVE",
"39 234 CURVE SMOOTH",
"39 105 OFFCURVE",
"144 0 OFFCURVE",
"273 0 CURVE SMOOTH",
"403 0 OFFCURVE",
"508 105 OFFCURVE",
"508 234 CURVE SMOOTH",
"508 364 OFFCURVE",
"403 469 OFFCURVE",
"273 469 CURVE SMOOTH",
"258 469 OFFCURVE",
"244 467 OFFCURVE",
"230 465 CURVE",
"385 722 LINE SMOOTH"
);
},
{
closed = 1;
nodes = (
"430 148 OFFCURVE",
"360 78 OFFCURVE",
"273 78 CURVE SMOOTH",
"187 78 OFFCURVE",
"117 148 OFFCURVE",
"117 234 CURVE SMOOTH",
"117 321 OFFCURVE",
"187 391 OFFCURVE",
"273 391 CURVE SMOOTH",
"360 391 OFFCURVE",
"430 321 OFFCURVE",
"430 234 CURVE SMOOTH"
);
}
);
width = 547;
}
);
note = "\012    six\012  ";
unicode = 0036;
changeCount = 1;
},
{
color = 4;
glyphname = seven;
lastChange = "2016-10-19 22:54:34 +0000";
layers = (
{
layerId = "4B9C72B8-8622-4F9C-A154-BF8DEE7D8E25";
paths = (
{
closed = 1;
nodes = (
"108 14 OFFCURVE",
"111 18 OFFCURVE",
"113 22 CURVE SMOOTH",
"502 721 LINE",
"506 728 OFFCURVE",
"508 734 OFFCURVE",
"508 742 CURVE SMOOTH",
"508 764 OFFCURVE",
"490 781 OFFCURVE",
"469 781 CURVE SMOOTH",
"78 781 LINE SMOOTH",
"57 781 OFFCURVE",
"39 764 OFFCURVE",
"39 742 CURVE SMOOTH",
"39 721 OFFCURVE",
"57 703 OFFCURVE",
"78 703 CURVE SMOOTH",
"403 703 LINE",
"47 63 LINE",
"42 55 OFFCURVE",
"39 47 OFFCURVE",
"39 39 CURVE SMOOTH",
"39 18 OFFCURVE",
"57 0 OFFCURVE",
"78 0 CURVE SMOOTH",
"89 0 OFFCURVE",
"98 4 OFFCURVE",
"106 12 CURVE SMOOTH"
);
}
);
width = 547;
}
);
note = "\012    seven\012  ";
unicode = 0037;
changeCount = 1;
},
{
color = 4;
glyphname = eight;
lastChange = "2016-10-19 22:54:34 +0000";
layers = (
{
layerId = "4B9C72B8-8622-4F9C-A154-BF8DEE7D8E25";
paths = (
{
closed = 1;
nodes = (
"135 425 OFFCURVE",
"121 414 OFFCURVE",
"108 400 CURVE SMOOTH",
"62 354 OFFCURVE",
"39 299 OFFCURVE",
"39 234 CURVE SMOOTH",
"39 105 OFFCURVE",
"144 0 OFFCURVE",
"273 0 CURVE SMOOTH",
"403 0 OFFCURVE",
"508 105 OFFCURVE",
"508 234 CURVE SMOOTH",
"508 299 OFFCURVE",
"485 354 OFFCURVE",
"439 400 CURVE SMOOTH",
"426 414 OFFCURVE",
"412 425 OFFCURVE",
"397 434 CURVE",
"402 438 OFFCURVE",
"407 443 OFFCURVE",
"412 448 CURVE SMOOTH",
"450 486 OFFCURVE",
"469 532 OFFCURVE",
"469 586 CURVE SMOOTH",
"469 694 OFFCURVE",
"381 781 OFFCURVE",
"273 781 CURVE SMOOTH",
"166 781 OFFCURVE",
"78 694 OFFCURVE",
"78 586 CURVE SMOOTH",
"78 532 OFFCURVE",
"97 486 OFFCURVE",
"135 448 CURVE SMOOTH",
"140 443 OFFCURVE",
"145 438 OFFCURVE",
"150 434 CURVE"
);
},
{
closed = 1;
nodes = (
"338 703 OFFCURVE",
"391 650 OFFCURVE",
"391 586 CURVE SMOOTH",
"391 521 OFFCURVE",
"338 469 OFFCURVE",
"273 469 CURVE SMOOTH",
"209 469 OFFCURVE",
"156 521 OFFCURVE",
"156 586 CURVE SMOOTH",
"156 650 OFFCURVE",
"209 703 OFFCURVE",
"273 703 CURVE SMOOTH"
);
},
{
closed = 1;
nodes = (
"360 391 OFFCURVE",
"430 321 OFFCURVE",
"430 234 CURVE SMOOTH",
"430 148 OFFCURVE",
"360 78 OFFCURVE",
"273 78 CURVE SMOOTH",
"187 78 OFFCURVE",
"117 148 OFFCURVE",
"117 234 CURVE SMOOTH",
"117 321 OFFCURVE",
"187 391 OFFCURVE",
"273 391 CURVE SMOOTH"
);
}
);
width = 547;
}
);
note = "\012    eight\012  ";
unicode = 0038;
changeCount = 1;
},
{
color = 4;
glyphname = nine;
lastChange = "2016-10-19 22:54:34 +0000";
layers = (
{
layerId = "4B9C72B8-8622-4F9C-A154-BF8DEE7D8E25";
paths = (
{
closed = 1;
nodes = (
"158 53 OFFCURVE",
"156 46 OFFCURVE",
"156 39 CURVE SMOOTH",
"156 18 OFFCURVE",
"174 0 OFFCURVE",
"195 0 CURVE SMOOTH",
"206 0 OFFCURVE",
"215 4 OFFCURVE",
"223 12 CURVE SMOOTH",
"226 15 OFFCURVE",
"229 18 OFFCURVE",
"230 21 CURVE SMOOTH",
"470 419 LINE",
"495 457 OFFCURVE",
"508 499 OFFCURVE",
"508 547 CURVE SMOOTH",
"508 676 OFFCURVE",
"403 781 OFFCURVE",
"273 781 CURVE SMOOTH",
"144 781 OFFCURVE",
"39 676 OFFCURVE",
"39 547 CURVE SMOOTH",
"39 417 OFFCURVE",
"144 313 OFFCURVE",
"273 313 CURVE SMOOTH",
"289 313 OFFCURVE",
"303 314 OFFCURVE",
"317 316 CURVE",
"162 59 LINE SMOOTH"
);
},
{
closed = 1;
nodes = (
"117 633 OFFCURVE",
"187 703 OFFCURVE",
"273 703 CURVE SMOOTH",
"360 703 OFFCURVE",
"430 633 OFFCURVE",
"430 547 CURVE SMOOTH",
"430 460 OFFCURVE",
"360 391 OFFCURVE",
"273 391 CURVE SMOOTH",
"187 391 OFFCURVE",
"117 460 OFFCURVE",
"117 547 CURVE SMOOTH"
);
}
);
width = 547;
}
);
note = "\012    nine\012  ";
unicode = 0039;
changeCount = 1;
},
{
color = 4;
glyphname = colon;
lastChange = "2016-10-19 22:54:34 +0000";
layers = (
{
layerId = "4B9C72B8-8622-4F9C-A154-BF8DEE7D8E25";
paths = (
{
closed = 1;
nodes = (
"156 521 OFFCURVE",
"130 547 OFFCURVE",
"98 547 CURVE SMOOTH",
"65 547 OFFCURVE",
"39 521 OFFCURVE",
"39 489 CURVE SMOOTH",
"39 456 OFFCURVE",
"65 430 OFFCURVE",
"98 430 CURVE SMOOTH",
"130 430 OFFCURVE",
"156 456 OFFCURVE",
"156 489 CURVE SMOOTH"
);
},
{
closed = 1;
nodes = (
"156 91 OFFCURVE",
"130 117 OFFCURVE",
"98 117 CURVE SMOOTH",
"65 117 OFFCURVE",
"39 91 OFFCURVE",
"39 59 CURVE SMOOTH",
"39 26 OFFCURVE",
"65 0 OFFCURVE",
"98 0 CURVE SMOOTH",
"130 0 OFFCURVE",
"156 26 OFFCURVE",
"156 59 CURVE SMOOTH"
);
}
);
width = 195;
}
);
note = "\012    colon\012  ";
unicode = 003A;
changeCount = 1;
},
{
color = 4;
glyphname = semicolon;
lastChange = "2016-10-19 22:54:34 +0000";
layers = (
{
layerId = "4B9C72B8-8622-4F9C-A154-BF8DEE7D8E25";
paths = (
{
closed = 1;
nodes = (
"156 521 OFFCURVE",
"130 547 OFFCURVE",
"98 547 CURVE SMOOTH",
"65 547 OFFCURVE",
"39 521 OFFCURVE",
"39 489 CURVE SMOOTH",
"39 456 OFFCURVE",
"65 430 OFFCURVE",
"98 430 CURVE SMOOTH",
"130 430 OFFCURVE",
"156 456 OFFCURVE",
"156 489 CURVE SMOOTH"
);
},
{
closed = 1;
nodes = (
"86 -14 OFFCURVE",
"90 -42 OFFCURVE",
"67 -67 CURVE",
"62 -73 OFFCURVE",
"59 -80 OFFCURVE",
"59 -88 CURVE SMOOTH",
"59 -104 OFFCURVE",
"72 -117 OFFCURVE",
"88 -117 CURVE SMOOTH",
"98 -117 OFFCURVE",
"106 -112 OFFCURVE",
"114 -102 CURVE",
"142 -59 OFFCURVE",
"156 -5 OFFCURVE",
"156 59 CURVE SMOOTH",
"156 91 OFFCURVE",
"130 117 OFFCURVE",
"98 117 CURVE SMOOTH",
"65 117 OFFCURVE",
"39 91 OFFCURVE",
"39 59 CURVE SMOOTH",
"39 42 OFFCURVE",
"45 28 OFFCURVE",
"56 17 CURVE SMOOTH"
);
}
);
width = 195;
}
);
note = "\012    semicolon\012  ";
unicode = 003B;
changeCount = 1;
},
{
color = 4;
glyphname = less;
lastChange = "2016-10-19 22:54:34 +0000";
layers = (
{
layerId = "4B9C72B8-8622-4F9C-A154-BF8DEE7D8E25";
paths = (
{
closed = 1;
nodes = (
"46 377 OFFCURVE",
"39 366 OFFCURVE",
"39 352 CURVE SMOOTH",
"39 337 OFFCURVE",
"46 326 OFFCURVE",
"61 316 CURVE",
"449 83 LINE SMOOTH",
"455 80 OFFCURVE",
"461 78 OFFCURVE",
"469 78 CURVE SMOOTH",
"490 78 OFFCURVE",
"508 96 OFFCURVE",
"508 117 CURVE SMOOTH",
"508 131 OFFCURVE",
"501 143 OFFCURVE",
"488 151 CURVE",
"154 352 LINE",
"488 552 LINE",
"501 561 OFFCURVE",
"508 572 OFFCURVE",
"508 586 CURVE SMOOTH",
"508 607 OFFCURVE",
"490 625 OFFCURVE",
"469 625 CURVE SMOOTH",
"461 625 OFFCURVE",
"455 624 OFFCURVE",
"449 620 CURVE SMOOTH",
"61 387 LINE"
);
}
);
width = 547;
}
);
note = "\012    less\012  ";
unicode = 003C;
changeCount = 1;
},
{
color = 4;
glyphname = equal;
lastChange = "2016-10-19 22:54:34 +0000";
layers = (
{
layerId = "4B9C72B8-8622-4F9C-A154-BF8DEE7D8E25";
paths = (
{
closed = 1;
nodes = (
"451 430 OFFCURVE",
"469 447 OFFCURVE",
"469 469 CURVE SMOOTH",
"469 490 OFFCURVE",
"451 508 OFFCURVE",
"430 508 CURVE SMOOTH",
"78 508 LINE SMOOTH",
"57 508 OFFCURVE",
"39 490 OFFCURVE",
"39 469 CURVE SMOOTH",
"39 447 OFFCURVE",
"57 430 OFFCURVE",
"78 430 CURVE SMOOTH",
"430 430 LINE SMOOTH"
);
},
{
closed = 1;
nodes = (
"57 273 OFFCURVE",
"39 256 OFFCURVE",
"39 234 CURVE SMOOTH",
"39 213 OFFCURVE",
"57 195 OFFCURVE",
"78 195 CURVE SMOOTH",
"430 195 LINE SMOOTH",
"451 195 OFFCURVE",
"469 213 OFFCURVE",
"469 234 CURVE SMOOTH",
"469 256 OFFCURVE",
"451 273 OFFCURVE",
"430 273 CURVE SMOOTH",
"78 273 LINE SMOOTH"
);
}
);
width = 508;
}
);
note = "\012    equal\012  ";
unicode = 003D;
changeCount = 1;
},
{
color = 4;
glyphname = greater;
lastChange = "2016-10-19 22:54:34 +0000";
layers = (
{
layerId = "4B9C72B8-8622-4F9C-A154-BF8DEE7D8E25";
paths = (
{
closed = 1;
nodes = (
"508 366 OFFCURVE",
"500 377 OFFCURVE",
"486 387 CURVE",
"98 620 LINE SMOOTH",
"92 624 OFFCURVE",
"85 625 OFFCURVE",
"78 625 CURVE SMOOTH",
"57 625 OFFCURVE",
"39 607 OFFCURVE",
"39 586 CURVE SMOOTH",
"39 572 OFFCURVE",
"46 561 OFFCURVE",
"59 552 CURVE",
"393 352 LINE",
"59 151 LINE",
"46 143 OFFCURVE",
"39 131 OFFCURVE",
"39 117 CURVE SMOOTH",
"39 96 OFFCURVE",
"57 78 OFFCURVE",
"78 78 CURVE SMOOTH",
"85 78 OFFCURVE",
"92 80 OFFCURVE",
"98 83 CURVE SMOOTH",
"486 316 LINE",
"500 326 OFFCURVE",
"508 337 OFFCURVE",
"508 352 CURVE SMOOTH"
);
}
);
width = 547;
}
);
note = "\012    greater\012  ";
unicode = 003E;
changeCount = 1;
},
{
color = 4;
glyphname = question;
lastChange = "2016-10-19 22:54:34 +0000";
layers = (
{
layerId = "4B9C72B8-8622-4F9C-A154-BF8DEE7D8E25";
paths = (
{
closed = 1;
nodes = (
"117 633 OFFCURVE",
"187 703 OFFCURVE",
"273 703 CURVE SMOOTH",
"360 703 OFFCURVE",
"430 633 OFFCURVE",
"430 547 CURVE SMOOTH",
"430 503 OFFCURVE",
"415 467 OFFCURVE",
"384 436 CURVE",
"303 361 LINE",
"257 315 OFFCURVE",
"234 260 OFFCURVE",
"234 195 CURVE SMOOTH",
"234 174 OFFCURVE",
"252 156 OFFCURVE",
"273 156 CURVE SMOOTH",
"295 156 OFFCURVE",
"313 174 OFFCURVE",
"313 195 CURVE SMOOTH",
"313 239 OFFCURVE",
"328 275 OFFCURVE",
"358 306 CURVE",
"439 381 LINE",
"485 427 OFFCURVE",
"508 482 OFFCURVE",
"508 547 CURVE SMOOTH",
"508 676 OFFCURVE",
"403 781 OFFCURVE",
"273 781 CURVE SMOOTH",
"144 781 OFFCURVE",
"39 676 OFFCURVE",
"39 547 CURVE SMOOTH",
"39 525 OFFCURVE",
"57 508 OFFCURVE",
"78 508 CURVE SMOOTH",
"100 508 OFFCURVE",
"117 525 OFFCURVE",
"117 547 CURVE SMOOTH"
);
},
{
closed = 1;
nodes = (
"332 91 OFFCURVE",
"306 117 OFFCURVE",
"273 117 CURVE SMOOTH",
"241 117 OFFCURVE",
"215 91 OFFCURVE",
"215 59 CURVE SMOOTH",
"215 26 OFFCURVE",
"241 0 OFFCURVE",
"273 0 CURVE SMOOTH",
"306 0 OFFCURVE",
"332 26 OFFCURVE",
"332 59 CURVE SMOOTH"
);
}
);
width = 547;
}
);
note = "\012    question\012  ";
unicode = 003F;
changeCount = 1;
},
{
color = 4;
glyphname = at;
lastChange = "2016-10-19 22:54:34 +0000";
layers = (
{
layerId = "4B9C72B8-8622-4F9C-A154-BF8DEE7D8E25";
paths = (
{
closed = 1;
nodes = (
"742 1 OFFCURVE",
"781 -39 OFFCURVE",
"859 -39 CURVE SMOOTH",
"990 -39 OFFCURVE",
"1055 65 OFFCURVE",
"1055 273 CURVE SMOOTH",
"1055 554 OFFCURVE",
"828 781 OFFCURVE",
"547 781 CURVE SMOOTH",
"266 781 OFFCURVE",
"39 554 OFFCURVE",
"39 273 CURVE SMOOTH",
"39 -7 OFFCURVE",
"266 -234 OFFCURVE",
"547 -234 CURVE SMOOTH",
"623 -234 OFFCURVE",
"693 -220 OFFCURVE",
"757 -190 CURVE",
"762 -188 OFFCURVE",
"767 -186 OFFCURVE",
"771 -181 CURVE SMOOTH",
"778 -174 OFFCURVE",
"782 -165 OFFCURVE",
"782 -154 CURVE SMOOTH",
"782 -132 OFFCURVE",
"765 -115 OFFCURVE",
"743 -115 CURVE SMOOTH",
"736 -115 OFFCURVE",
"729 -117 OFFCURVE",
"724 -120 CURVE",
"669 -144 OFFCURVE",
"611 -156 OFFCURVE",
"547 -156 CURVE SMOOTH",
"309 -156 OFFCURVE",
"117 36 OFFCURVE",
"117 273 CURVE SMOOTH",
"117 511 OFFCURVE",
"309 703 OFFCURVE",
"547 703 CURVE SMOOTH",
"785 703 OFFCURVE",
"977 511 OFFCURVE",
"977 273 CURVE SMOOTH",
"977 117 OFFCURVE",
"938 39 OFFCURVE",
"859 39 CURVE SMOOTH",
"833 39 OFFCURVE",
"820 52 OFFCURVE",
"820 78 CURVE SMOOTH",
"820 273 LINE SMOOTH",
"820 424 OFFCURVE",
"698 547 OFFCURVE",
"547 547 CURVE SMOOTH",
"396 547 OFFCURVE",
"273 424 OFFCURVE",
"273 273 CURVE SMOOTH",
"273 123 OFFCURVE",
"396 0 OFFCURVE",
"547 0 CURVE SMOOTH",
"623 0 OFFCURVE",
"688 27 OFFCURVE",
"742 82 CURVE"
);
},
{
closed = 1;
nodes = (
"655 469 OFFCURVE",
"742 381 OFFCURVE",
"742 273 CURVE SMOOTH",
"742 166 OFFCURVE",
"655 78 OFFCURVE",
"547 78 CURVE SMOOTH",
"439 78 OFFCURVE",
"352 166 OFFCURVE",
"352 273 CURVE SMOOTH",
"352 381 OFFCURVE",
"439 469 OFFCURVE",
"547 469 CURVE SMOOTH"
);
}
);
width = 1094;
}
);
note = "\012    at\012  ";
unicode = 0040;
changeCount = 1;
},
{
color = 4;
glyphname = A;
lastChange = "2016-10-19 22:54:34 +0000";
layers = (
{
layerId = "4B9C72B8-8622-4F9C-A154-BF8DEE7D8E25";
paths = (
{
closed = 1;
nodes = (
"589 24 LINE",
"591 20 OFFCURVE",
"594 15 OFFCURVE",
"598 11 CURVE SMOOTH",
"605 4 OFFCURVE",
"614 0 OFFCURVE",
"625 0 CURVE SMOOTH",
"646 0 OFFCURVE",
"664 18 OFFCURVE",
"664 39 CURVE SMOOTH",
"664 45 OFFCURVE",
"663 51 OFFCURVE",
"661 56 CURVE",
"389 754 LINE",
"385 766 OFFCURVE",
"373 781 OFFCURVE",
"352 781 CURVE SMOOTH",
"330 781 OFFCURVE",
"318 766 OFFCURVE",
"314 754 CURVE",
"42 56 LINE",
"40 51 OFFCURVE",
"39 45 OFFCURVE",
"39 39 CURVE SMOOTH",
"39 18 OFFCURVE",
"57 0 OFFCURVE",
"78 0 CURVE SMOOTH",
"89 0 OFFCURVE",
"98 4 OFFCURVE",
"106 11 CURVE",
"109 15 OFFCURVE",
"112 20 OFFCURVE",
"114 24 CURVE",
"211 273 LINE",
"492 273 LINE"
);
},
{
closed = 1;
nodes = (
"352 634 LINE",
"461 352 LINE",
"242 352 LINE"
);
}
);
width = 703;
}
);
note = "\012    A\012  ";
unicode = 0041;
changeCount = 1;
},
{
color = 4;
glyphname = B;
lastChange = "2016-10-19 22:54:34 +0000";
layers = (
{
layerId = "4B9C72B8-8622-4F9C-A154-BF8DEE7D8E25";
paths = (
{
closed = 1;
nodes = (
"57 781 OFFCURVE",
"39 764 OFFCURVE",
"39 742 CURVE SMOOTH",
"39 39 LINE SMOOTH",
"39 18 OFFCURVE",
"57 0 OFFCURVE",
"78 0 CURVE SMOOTH",
"273 0 LINE SMOOTH",
"403 0 OFFCURVE",
"508 105 OFFCURVE",
"508 234 CURVE SMOOTH",
"508 299 OFFCURVE",
"485 354 OFFCURVE",
"439 400 CURVE SMOOTH",
"419 420 OFFCURVE",
"396 437 OFFCURVE",
"373 448 CURVE",
"411 486 OFFCURVE",
"430 532 OFFCURVE",
"430 586 CURVE SMOOTH",
"430 694 OFFCURVE",
"342 781 OFFCURVE",
"234 781 CURVE SMOOTH",
"78 781 LINE SMOOTH"
);
},
{
closed = 1;
nodes = (
"299 703 OFFCURVE",
"352 650 OFFCURVE",
"352 586 CURVE SMOOTH",
"352 521 OFFCURVE",
"299 469 OFFCURVE",
"234 469 CURVE SMOOTH",
"117 469 LINE",
"117 703 LINE",
"234 703 LINE SMOOTH"
);
},
{
closed = 1;
nodes = (
"360 391 OFFCURVE",
"430 321 OFFCURVE",
"430 234 CURVE SMOOTH",
"430 148 OFFCURVE",
"360 78 OFFCURVE",
"273 78 CURVE SMOOTH",
"117 78 LINE",
"117 391 LINE",
"273 391 LINE SMOOTH"
);
}
);
width = 547;
}
);
note = "\012    B\012  ";
unicode = 0042;
changeCount = 1;
},
{
color = 4;
glyphname = C;
lastChange = "2016-10-19 22:54:34 +0000";
layers = (
{
layerId = "4B9C72B8-8622-4F9C-A154-BF8DEE7D8E25";
paths = (
{
closed = 1;
nodes = (
"639 153 OFFCURVE",
"631 151 OFFCURVE",
"625 146 CURVE",
"569 101 OFFCURVE",
"504 78 OFFCURVE",
"430 78 CURVE SMOOTH",
"257 78 OFFCURVE",
"117 218 OFFCURVE",
"117 391 CURVE SMOOTH",
"117 563 OFFCURVE",
"257 703 OFFCURVE",
"430 703 CURVE SMOOTH",
"503 703 OFFCURVE",
"567 681 OFFCURVE",
"623 637 CURVE",
"630 629 OFFCURVE",
"640 625 OFFCURVE",
"650 625 CURVE SMOOTH",
"672 625 OFFCURVE",
"689 643 OFFCURVE",
"689 664 CURVE SMOOTH",
"689 675 OFFCURVE",
"686 684 OFFCURVE",
"678 692 CURVE",
"605 751 OFFCURVE",
"523 781 OFFCURVE",
"430 781 CURVE SMOOTH",
"214 781 OFFCURVE",
"39 606 OFFCURVE",
"39 391 CURVE SMOOTH",
"39 175 OFFCURVE",
"214 0 OFFCURVE",
"430 0 CURVE SMOOTH",
"521 0 OFFCURVE",
"603 29 OFFCURVE",
"675 87 CURVE",
"683 94 OFFCURVE",
"687 104 OFFCURVE",
"687 114 CURVE SMOOTH",
"687 136 OFFCURVE",
"669 153 OFFCURVE",
"647 153 CURVE SMOOTH"
);
}
);
width = 723;
}
);
note = "\012    C\012  ";
unicode = 0043;
changeCount = 1;
},
{
color = 4;
glyphname = D;
lastChange = "2016-10-19 22:54:34 +0000";
layers = (
{
layerId = "4B9C72B8-8622-4F9C-A154-BF8DEE7D8E25";
paths = (
{
closed = 1;
nodes = (
"57 781 OFFCURVE",
"39 764 OFFCURVE",
"39 742 CURVE SMOOTH",
"39 39 LINE SMOOTH",
"39 18 OFFCURVE",
"57 0 OFFCURVE",
"78 0 CURVE SMOOTH",
"234 0 LINE SMOOTH",
"450 0 OFFCURVE",
"625 175 OFFCURVE",
"625 391 CURVE SMOOTH",
"625 606 OFFCURVE",
"450 781 OFFCURVE",
"234 781 CURVE SMOOTH",
"78 781 LINE SMOOTH"
);
},
{
closed = 1;
nodes = (
"117 703 LINE",
"234 703 LINE SMOOTH",
"407 703 OFFCURVE",
"547 563 OFFCURVE",
"547 391 CURVE SMOOTH",
"547 218 OFFCURVE",
"407 78 OFFCURVE",
"234 78 CURVE SMOOTH",
"117 78 LINE"
);
}
);
width = 664;
}
);
note = "\012    D\012  ";
unicode = 0044;
changeCount = 1;
},
{
color = 4;
glyphname = E;
lastChange = "2016-10-19 22:54:34 +0000";
layers = (
{
layerId = "4B9C72B8-8622-4F9C-A154-BF8DEE7D8E25";
paths = (
{
closed = 1;
nodes = (
"57 781 OFFCURVE",
"39 764 OFFCURVE",
"39 742 CURVE SMOOTH",
"39 39 LINE SMOOTH",
"39 18 OFFCURVE",
"57 0 OFFCURVE",
"78 0 CURVE SMOOTH",
"547 0 LINE SMOOTH",
"568 0 OFFCURVE",
"586 18 OFFCURVE",
"586 39 CURVE SMOOTH",
"586 61 OFFCURVE",
"568 78 OFFCURVE",
"547 78 CURVE SMOOTH",
"117 78 LINE",
"117 352 LINE",
"430 352 LINE SMOOTH",
"451 352 OFFCURVE",
"469 369 OFFCURVE",
"469 391 CURVE SMOOTH",
"469 412 OFFCURVE",
"451 430 OFFCURVE",
"430 430 CURVE SMOOTH",
"117 430 LINE",
"117 703 LINE",
"547 703 LINE SMOOTH",
"568 703 OFFCURVE",
"586 721 OFFCURVE",
"586 742 CURVE SMOOTH",
"586 764 OFFCURVE",
"568 781 OFFCURVE",
"547 781 CURVE SMOOTH",
"78 781 LINE SMOOTH"
);
}
);
width = 625;
}
);
note = "\012    E\012  ";
unicode = 0045;
changeCount = 1;
},
{
color = 4;
glyphname = F;
lastChange = "2016-10-19 22:54:34 +0000";
layers = (
{
layerId = "4B9C72B8-8622-4F9C-A154-BF8DEE7D8E25";
paths = (
{
closed = 1;
nodes = (
"57 781 OFFCURVE",
"39 764 OFFCURVE",
"39 742 CURVE SMOOTH",
"39 39 LINE SMOOTH",
"39 18 OFFCURVE",
"57 0 OFFCURVE",
"78 0 CURVE SMOOTH",
"100 0 OFFCURVE",
"117 18 OFFCURVE",
"117 39 CURVE SMOOTH",
"117 352 LINE",
"430 352 LINE SMOOTH",
"451 352 OFFCURVE",
"469 369 OFFCURVE",
"469 391 CURVE SMOOTH",
"469 412 OFFCURVE",
"451 430 OFFCURVE",
"430 430 CURVE SMOOTH",
"117 430 LINE",
"117 703 LINE",
"547 703 LINE SMOOTH",
"568 703 OFFCURVE",
"586 721 OFFCURVE",
"586 742 CURVE SMOOTH",
"586 764 OFFCURVE",
"568 781 OFFCURVE",
"547 781 CURVE SMOOTH",
"78 781 LINE SMOOTH"
);
}
);
width = 625;
}
);
note = "\012    F\012  ";
unicode = 0046;
changeCount = 1;
},
{
color = 4;
glyphname = G;
lastChange = "2016-10-19 22:54:34 +0000";
layers = (
{
layerId = "4B9C72B8-8622-4F9C-A154-BF8DEE7D8E25";
paths = (
{
closed = 1;
nodes = (
"687 373 OFFCURVE",
"669 391 OFFCURVE",
"648 391 CURVE SMOOTH",
"454 391 LINE SMOOTH",
"433 391 OFFCURVE",
"415 373 OFFCURVE",
"415 352 CURVE SMOOTH",
"415 330 OFFCURVE",
"433 313 OFFCURVE",
"454 313 CURVE SMOOTH",
"608 313 LINE",
"608 134 LINE",
"557 97 OFFCURVE",
"497 78 OFFCURVE",
"430 78 CURVE SMOOTH",
"257 78 OFFCURVE",
"117 218 OFFCURVE",
"117 391 CURVE SMOOTH",
"117 563 OFFCURVE",
"257 703 OFFCURVE",
"430 703 CURVE SMOOTH",
"503 703 OFFCURVE",
"567 681 OFFCURVE",
"623 637 CURVE",
"630 629 OFFCURVE",
"640 625 OFFCURVE",
"650 625 CURVE SMOOTH",
"672 625 OFFCURVE",
"689 643 OFFCURVE",
"689 664 CURVE SMOOTH",
"689 675 OFFCURVE",
"686 684 OFFCURVE",
"678 692 CURVE",
"605 751 OFFCURVE",
"523 781 OFFCURVE",
"430 781 CURVE SMOOTH",
"214 781 OFFCURVE",
"39 606 OFFCURVE",
"39 391 CURVE SMOOTH",
"39 175 OFFCURVE",
"214 0 OFFCURVE",
"430 0 CURVE SMOOTH",
"521 0 OFFCURVE",
"603 29 OFFCURVE",
"675 87 CURVE",
"683 94 OFFCURVE",
"687 104 OFFCURVE",
"687 114 CURVE SMOOTH",
"687 352 LINE SMOOTH"
);
}
);
width = 732;
}
);
note = "\012    G\012  ";
unicode = 0047;
changeCount = 1;
},
{
color = 4;
glyphname = H;
lastChange = "2016-10-19 22:54:34 +0000";
layers = (
{
layerId = "4B9C72B8-8622-4F9C-A154-BF8DEE7D8E25";
paths = (
{
closed = 1;
nodes = (
"39 18 OFFCURVE",
"57 0 OFFCURVE",
"78 0 CURVE SMOOTH",
"100 0 OFFCURVE",
"117 18 OFFCURVE",
"117 39 CURVE SMOOTH",
"117 352 LINE",
"508 352 LINE",
"508 39 LINE SMOOTH",
"508 18 OFFCURVE",
"525 0 OFFCURVE",
"547 0 CURVE SMOOTH",
"568 0 OFFCURVE",
"586 18 OFFCURVE",
"586 39 CURVE SMOOTH",
"586 742 LINE SMOOTH",
"586 764 OFFCURVE",
"568 781 OFFCURVE",
"547 781 CURVE SMOOTH",
"525 781 OFFCURVE",
"508 764 OFFCURVE",
"508 742 CURVE SMOOTH",
"508 430 LINE",
"117 430 LINE",
"117 742 LINE SMOOTH",
"117 764 OFFCURVE",
"100 781 OFFCURVE",
"78 781 CURVE SMOOTH",
"57 781 OFFCURVE",
"39 764 OFFCURVE",
"39 742 CURVE SMOOTH",
"39 39 LINE SMOOTH"
);
}
);
width = 625;
}
);
note = "\012    H\012  ";
unicode = 0048;
changeCount = 1;
},
{
color = 4;
glyphname = I;
lastChange = "2016-10-19 22:54:34 +0000";
layers = (
{
layerId = "4B9C72B8-8622-4F9C-A154-BF8DEE7D8E25";
paths = (
{
closed = 1;
nodes = (
"78 18 OFFCURVE",
"96 0 OFFCURVE",
"117 0 CURVE SMOOTH",
"139 0 OFFCURVE",
"156 18 OFFCURVE",
"156 39 CURVE SMOOTH",
"156 742 LINE SMOOTH",
"156 764 OFFCURVE",
"139 781 OFFCURVE",
"117 781 CURVE SMOOTH",
"96 781 OFFCURVE",
"78 764 OFFCURVE",
"78 742 CURVE SMOOTH",
"78 39 LINE SMOOTH"
);
}
);
width = 234;
}
);
note = "\012    I\012  ";
unicode = 0049;
changeCount = 1;
},
{
color = 4;
glyphname = J;
lastChange = "2016-10-19 22:54:34 +0000";
layers = (
{
layerId = "4B9C72B8-8622-4F9C-A154-BF8DEE7D8E25";
paths = (
{
closed = 1;
nodes = (
"39 105 OFFCURVE",
"144 0 OFFCURVE",
"273 0 CURVE SMOOTH",
"403 0 OFFCURVE",
"508 105 OFFCURVE",
"508 234 CURVE SMOOTH",
"508 742 LINE SMOOTH",
"508 764 OFFCURVE",
"490 781 OFFCURVE",
"469 781 CURVE SMOOTH",
"447 781 OFFCURVE",
"430 764 OFFCURVE",
"430 742 CURVE SMOOTH",
"430 234 LINE SMOOTH",
"430 148 OFFCURVE",
"360 78 OFFCURVE",
"273 78 CURVE SMOOTH",
"187 78 OFFCURVE",
"117 148 OFFCURVE",
"117 234 CURVE SMOOTH",
"117 256 OFFCURVE",
"100 273 OFFCURVE",
"78 273 CURVE SMOOTH",
"57 273 OFFCURVE",
"39 256 OFFCURVE",
"39 234 CURVE SMOOTH"
);
}
);
width = 547;
}
);
note = "\012    J\012  ";
unicode = 004A;
changeCount = 1;
},
{
color = 4;
glyphname = K;
lastChange = "2016-10-19 22:54:34 +0000";
layers = (
{
layerId = "4B9C72B8-8622-4F9C-A154-BF8DEE7D8E25";
paths = (
{
closed = 1;
nodes = (
"39 18 OFFCURVE",
"57 0 OFFCURVE",
"78 0 CURVE SMOOTH",
"100 0 OFFCURVE",
"117 18 OFFCURVE",
"117 39 CURVE SMOOTH",
"117 296 LINE",
"205 384 LINE",
"476 17 LINE SMOOTH",
"483 5 OFFCURVE",
"495 0 OFFCURVE",
"509 0 CURVE SMOOTH",
"524 0 OFFCURVE",
"547 13 OFFCURVE",
"547 41 CURVE SMOOTH",
"547 48 OFFCURVE",
"544 56 OFFCURVE",
"540 63 CURVE SMOOTH",
"261 440 LINE",
"536 714 LINE SMOOTH",
"543 722 OFFCURVE",
"547 731 OFFCURVE",
"547 742 CURVE SMOOTH",
"547 764 OFFCURVE",
"529 781 OFFCURVE",
"508 781 CURVE SMOOTH",
"497 781 OFFCURVE",
"487 777 OFFCURVE",
"479 769 CURVE SMOOTH",
"117 407 LINE",
"117 742 LINE SMOOTH",
"117 764 OFFCURVE",
"100 781 OFFCURVE",
"78 781 CURVE SMOOTH",
"57 781 OFFCURVE",
"39 764 OFFCURVE",
"39 742 CURVE SMOOTH",
"39 39 LINE SMOOTH"
);
}
);
width = 586;
}
);
note = "\012    K\012  ";
unicode = 004B;
changeCount = 1;
},
{
color = 4;
glyphname = L;
lastChange = "2016-10-19 22:54:34 +0000";
layers = (
{
layerId = "4B9C72B8-8622-4F9C-A154-BF8DEE7D8E25";
paths = (
{
closed = 1;
nodes = (
"39 18 OFFCURVE",
"57 0 OFFCURVE",
"78 0 CURVE SMOOTH",
"508 0 LINE SMOOTH",
"529 0 OFFCURVE",
"547 18 OFFCURVE",
"547 39 CURVE SMOOTH",
"547 61 OFFCURVE",
"529 78 OFFCURVE",
"508 78 CURVE SMOOTH",
"117 78 LINE",
"117 742 LINE SMOOTH",
"117 764 OFFCURVE",
"100 781 OFFCURVE",
"78 781 CURVE SMOOTH",
"57 781 OFFCURVE",
"39 764 OFFCURVE",
"39 742 CURVE SMOOTH",
"39 39 LINE SMOOTH"
);
}
);
width = 586;
}
);
note = "\012    L\012  ";
unicode = 004C;
changeCount = 1;
},
{
color = 4;
glyphname = M;
lastChange = "2016-10-19 22:54:34 +0000";
layers = (
{
layerId = "4B9C72B8-8622-4F9C-A154-BF8DEE7D8E25";
paths = (
{
closed = 1;
nodes = (
"401 8 OFFCURVE",
"414 0 OFFCURVE",
"430 0 CURVE SMOOTH",
"445 0 OFFCURVE",
"457 6 OFFCURVE",
"463 19 CURVE SMOOTH",
"742 577 LINE",
"742 39 LINE SMOOTH",
"742 18 OFFCURVE",
"760 0 OFFCURVE",
"781 0 CURVE SMOOTH",
"803 0 OFFCURVE",
"820 18 OFFCURVE",
"820 39 CURVE SMOOTH",
"820 742 LINE SMOOTH",
"820 764 OFFCURVE",
"803 781 OFFCURVE",
"781 781 CURVE SMOOTH",
"766 781 OFFCURVE",
"754 774 OFFCURVE",
"747 761 CURVE SMOOTH",
"430 126 LINE",
"113 761 LINE SMOOTH",
"105 774 OFFCURVE",
"94 781 OFFCURVE",
"78 781 CURVE SMOOTH",
"57 781 OFFCURVE",
"39 764 OFFCURVE",
"39 742 CURVE SMOOTH",
"39 39 LINE SMOOTH",
"39 18 OFFCURVE",
"57 0 OFFCURVE",
"78 0 CURVE SMOOTH",
"100 0 OFFCURVE",
"117 18 OFFCURVE",
"117 39 CURVE SMOOTH",
"117 577 LINE",
"394 24 LINE SMOOTH"
);
}
);
width = 859;
}
);
note = "\012    M\012  ";
unicode = 004D;
changeCount = 1;
},
{
color = 4;
glyphname = N;
lastChange = "2016-10-19 22:54:34 +0000";
layers = (
{
layerId = "4B9C72B8-8622-4F9C-A154-BF8DEE7D8E25";
paths = (
{
closed = 1;
nodes = (
"596 13 LINE",
"604 4 OFFCURVE",
"614 0 OFFCURVE",
"625 0 CURVE SMOOTH",
"646 0 OFFCURVE",
"664 18 OFFCURVE",
"664 39 CURVE SMOOTH",
"664 742 LINE SMOOTH",
"664 764 OFFCURVE",
"646 781 OFFCURVE",
"625 781 CURVE SMOOTH",
"604 781 OFFCURVE",
"586 764 OFFCURVE",
"586 742 CURVE SMOOTH",
"586 153 LINE",
"108 767 LINE",
"100 776 OFFCURVE",
"90 781 OFFCURVE",
"78 781 CURVE SMOOTH",
"57 781 OFFCURVE",
"39 764 OFFCURVE",
"39 742 CURVE SMOOTH",
"39 39 LINE SMOOTH",
"39 18 OFFCURVE",
"57 0 OFFCURVE",
"78 0 CURVE SMOOTH",
"100 0 OFFCURVE",
"117 18 OFFCURVE",
"117 39 CURVE SMOOTH",
"117 628 LINE"
);
}
);
width = 703;
}
);
note = "\012    N\012  ";
unicode = 004E;
changeCount = 1;
},
{
color = 4;
glyphname = O;
lastChange = "2016-10-19 22:54:34 +0000";
layers = (
{
layerId = "4B9C72B8-8622-4F9C-A154-BF8DEE7D8E25";
paths = (
{
closed = 1;
nodes = (
"820 606 OFFCURVE",
"645 781 OFFCURVE",
"430 781 CURVE SMOOTH",
"214 781 OFFCURVE",
"39 606 OFFCURVE",
"39 391 CURVE SMOOTH",
"39 175 OFFCURVE",
"214 0 OFFCURVE",
"430 0 CURVE SMOOTH",
"645 0 OFFCURVE",
"820 175 OFFCURVE",
"820 391 CURVE SMOOTH"
);
},
{
closed = 1;
nodes = (
"602 703 OFFCURVE",
"742 563 OFFCURVE",
"742 391 CURVE SMOOTH",
"742 218 OFFCURVE",
"602 78 OFFCURVE",
"430 78 CURVE SMOOTH",
"257 78 OFFCURVE",
"117 218 OFFCURVE",
"117 391 CURVE SMOOTH",
"117 563 OFFCURVE",
"257 703 OFFCURVE",
"430 703 CURVE SMOOTH"
);
}
);
width = 859;
}
);
note = "\012    O\012  ";
unicode = 004F;
changeCount = 1;
},
{
color = 4;
glyphname = P;
lastChange = "2016-10-19 22:54:34 +0000";
layers = (
{
layerId = "4B9C72B8-8622-4F9C-A154-BF8DEE7D8E25";
paths = (
{
closed = 1;
nodes = (
"57 781 OFFCURVE",
"39 764 OFFCURVE",
"39 742 CURVE SMOOTH",
"39 39 LINE SMOOTH",
"39 18 OFFCURVE",
"57 0 OFFCURVE",
"78 0 CURVE SMOOTH",
"100 0 OFFCURVE",
"117 18 OFFCURVE",
"117 39 CURVE SMOOTH",
"117 273 LINE",
"234 273 LINE SMOOTH",
"375 273 OFFCURVE",
"488 387 OFFCURVE",
"488 527 CURVE SMOOTH",
"488 667 OFFCURVE",
"375 781 OFFCURVE",
"234 781 CURVE SMOOTH",
"78 781 LINE SMOOTH"
);
},
{
closed = 1;
nodes = (
"332 703 OFFCURVE",
"410 625 OFFCURVE",
"410 527 CURVE SMOOTH",
"410 430 OFFCURVE",
"332 352 OFFCURVE",
"234 352 CURVE SMOOTH",
"117 352 LINE",
"117 703 LINE",
"234 703 LINE SMOOTH"
);
}
);
width = 527;
}
);
note = "\012    P\012  ";
unicode = 0050;
changeCount = 1;
},
{
color = 4;
glyphname = Q;
lastChange = "2016-10-19 22:54:34 +0000";
layers = (
{
layerId = "4B9C72B8-8622-4F9C-A154-BF8DEE7D8E25";
paths = (
{
closed = 1;
nodes = (
"761 4 OFFCURVE",
"771 0 OFFCURVE",
"781 0 CURVE SMOOTH",
"803 0 OFFCURVE",
"820 18 OFFCURVE",
"820 39 CURVE SMOOTH",
"820 49 OFFCURVE",
"817 59 OFFCURVE",
"810 66 CURVE SMOOTH",
"732 144 LINE",
"791 214 OFFCURVE",
"820 296 OFFCURVE",
"820 391 CURVE SMOOTH",
"820 606 OFFCURVE",
"645 781 OFFCURVE",
"430 781 CURVE SMOOTH",
"214 781 OFFCURVE",
"39 606 OFFCURVE",
"39 391 CURVE SMOOTH",
"39 175 OFFCURVE",
"214 0 OFFCURVE",
"430 0 CURVE SMOOTH",
"524 0 OFFCURVE",
"606 29 OFFCURVE",
"677 88 CURVE",
"753 12 LINE SMOOTH"
);
},
{
closed = 1;
nodes = (
"566 100 OFFCURVE",
"502 78 OFFCURVE",
"430 78 CURVE SMOOTH",
"257 78 OFFCURVE",
"117 218 OFFCURVE",
"117 391 CURVE SMOOTH",
"117 563 OFFCURVE",
"257 703 OFFCURVE",
"430 703 CURVE SMOOTH",
"602 703 OFFCURVE",
"742 563 OFFCURVE",
"742 391 CURVE SMOOTH",
"742 318 OFFCURVE",
"720 254 OFFCURVE",
"677 199 CURVE",
"594 282 LINE SMOOTH",
"586 289 OFFCURVE",
"577 293 OFFCURVE",
"566 293 CURVE SMOOTH",
"545 293 OFFCURVE",
"527 275 OFFCURVE",
"527 254 CURVE SMOOTH",
"527 243 OFFCURVE",
"531 234 OFFCURVE",
"539 226 CURVE SMOOTH",
"621 144 LINE"
);
}
);
width = 859;
}
);
note = "\012    Q\012  ";
unicode = 0051;
changeCount = 1;
},
{
color = 4;
glyphname = R;
lastChange = "2016-10-19 22:54:34 +0000";
layers = (
{
layerId = "4B9C72B8-8622-4F9C-A154-BF8DEE7D8E25";
paths = (
{
closed = 1;
nodes = (
"57 781 OFFCURVE",
"39 764 OFFCURVE",
"39 742 CURVE SMOOTH",
"39 39 LINE SMOOTH",
"39 18 OFFCURVE",
"57 0 OFFCURVE",
"78 0 CURVE SMOOTH",
"100 0 OFFCURVE",
"117 18 OFFCURVE",
"117 39 CURVE SMOOTH",
"117 313 LINE",
"273 313 LINE SMOOTH",
"279 313 OFFCURVE",
"285 313 OFFCURVE",
"291 313 CURVE",
"474 20 LINE SMOOTH",
"482 7 OFFCURVE",
"494 0 OFFCURVE",
"508 0 CURVE SMOOTH",
"529 0 OFFCURVE",
"547 18 OFFCURVE",
"547 39 CURVE SMOOTH",
"547 47 OFFCURVE",
"545 54 OFFCURVE",
"541 61 CURVE",
"371 333 LINE",
"396 344 OFFCURVE",
"418 360 OFFCURVE",
"439 381 CURVE SMOOTH",
"485 427 OFFCURVE",
"508 482 OFFCURVE",
"508 547 CURVE SMOOTH",
"508 676 OFFCURVE",
"403 781 OFFCURVE",
"273 781 CURVE SMOOTH",
"78 781 LINE SMOOTH"
);
},
{
closed = 1;
nodes = (
"360 703 OFFCURVE",
"430 633 OFFCURVE",
"430 547 CURVE SMOOTH",
"430 460 OFFCURVE",
"360 391 OFFCURVE",
"273 391 CURVE SMOOTH",
"117 391 LINE",
"117 703 LINE",
"273 703 LINE SMOOTH"
);
}
);
width = 586;
}
);
note = "\012    R\012  ";
unicode = 0052;
changeCount = 1;
},
{
color = 4;
glyphname = S;
lastChange = "2016-10-19 22:54:34 +0000";
layers = (
{
layerId = "4B9C72B8-8622-4F9C-A154-BF8DEE7D8E25";
paths = (
{
closed = 1;
nodes = (
"302 383 OFFCURVE",
"340 363 OFFCURVE",
"364 336 CURVE SMOOTH",
"419 270 OFFCURVE",
"411 171 OFFCURVE",
"345 116 CURVE SMOOTH",
"279 60 OFFCURVE",
"180 67 OFFCURVE",
"125 134 CURVE",
"120 139 OFFCURVE",
"115 145 OFFCURVE",
"111 151 CURVE",
"103 164 OFFCURVE",
"92 169 OFFCURVE",
"78 169 CURVE SMOOTH",
"57 169 OFFCURVE",
"39 152 OFFCURVE",
"39 130 CURVE SMOOTH",
"39 122 OFFCURVE",
"42 114 OFFCURVE",
"47 107 CURVE",
"52 99 OFFCURVE",
"59 90 OFFCURVE",
"65 83 CURVE SMOOTH",
"116 28 OFFCURVE",
"176 0 OFFCURVE",
"246 0 CURVE SMOOTH",
"358 0 OFFCURVE",
"467 86 OFFCURVE",
"478 215 CURVE SMOOTH",
"478 223 OFFCURVE",
"479 230 OFFCURVE",
"479 238 CURVE SMOOTH",
"479 293 OFFCURVE",
"460 343 OFFCURVE",
"423 386 CURVE SMOOTH",
"388 427 OFFCURVE",
"336 454 OFFCURVE",
"268 469 CURVE",
"229 479 OFFCURVE",
"201 493 OFFCURVE",
"184 509 CURVE",
"142 559 OFFCURVE",
"148 632 OFFCURVE",
"197 674 CURVE SMOOTH",
"247 716 OFFCURVE",
"320 710 OFFCURVE",
"362 661 CURVE",
"380 637 LINE SMOOTH",
"386 629 OFFCURVE",
"396 625 OFFCURVE",
"408 625 CURVE SMOOTH",
"429 625 OFFCURVE",
"447 643 OFFCURVE",
"447 664 CURVE SMOOTH",
"447 680 OFFCURVE",
"436 694 OFFCURVE",
"422 711 CURVE",
"379 758 OFFCURVE",
"330 781 OFFCURVE",
"273 781 CURVE SMOOTH",
"226 781 OFFCURVE",
"183 766 OFFCURVE",
"146 734 CURVE SMOOTH",
"64 664 OFFCURVE",
"54 541 OFFCURVE",
"124 458 CURVE",
"159 426 OFFCURVE",
"202 405 OFFCURVE",
"251 396 CURVE"
);
}
);
width = 518;
}
);
note = "\012    S\012  ";
unicode = 0053;
changeCount = 1;
},
{
color = 4;
glyphname = T;
lastChange = "2016-10-19 22:54:34 +0000";
layers = (
{
layerId = "4B9C72B8-8622-4F9C-A154-BF8DEE7D8E25";
paths = (
{
closed = 1;
nodes = (
"293 39 LINE SMOOTH",
"293 18 OFFCURVE",
"311 0 OFFCURVE",
"332 0 CURVE SMOOTH",
"354 0 OFFCURVE",
"371 18 OFFCURVE",
"371 39 CURVE SMOOTH",
"371 703 LINE",
"586 703 LINE SMOOTH",
"607 703 OFFCURVE",
"625 721 OFFCURVE",
"625 742 CURVE SMOOTH",
"625 764 OFFCURVE",
"607 781 OFFCURVE",
"586 781 CURVE SMOOTH",
"78 781 LINE SMOOTH",
"57 781 OFFCURVE",
"39 764 OFFCURVE",
"39 742 CURVE SMOOTH",
"39 721 OFFCURVE",
"57 703 OFFCURVE",
"78 703 CURVE SMOOTH",
"293 703 LINE"
);
}
);
width = 664;
}
);
note = "\012    T\012  ";
unicode = 0054;
changeCount = 1;
},
{
color = 4;
glyphname = U;
lastChange = "2016-10-19 22:54:34 +0000";
layers = (
{
layerId = "4B9C72B8-8622-4F9C-A154-BF8DEE7D8E25";
paths = (
{
closed = 1;
nodes = (
"39 123 OFFCURVE",
"162 0 OFFCURVE",
"313 0 CURVE SMOOTH",
"463 0 OFFCURVE",
"586 123 OFFCURVE",
"586 273 CURVE SMOOTH",
"586 742 LINE SMOOTH",
"586 764 OFFCURVE",
"568 781 OFFCURVE",
"547 781 CURVE SMOOTH",
"525 781 OFFCURVE",
"508 764 OFFCURVE",
"508 742 CURVE SMOOTH",
"508 273 LINE SMOOTH",
"508 166 OFFCURVE",
"420 78 OFFCURVE",
"313 78 CURVE SMOOTH",
"205 78 OFFCURVE",
"117 166 OFFCURVE",
"117 273 CURVE SMOOTH",
"117 742 LINE SMOOTH",
"117 764 OFFCURVE",
"100 781 OFFCURVE",
"78 781 CURVE SMOOTH",
"57 781 OFFCURVE",
"39 764 OFFCURVE",
"39 742 CURVE SMOOTH",
"39 273 LINE SMOOTH"
);
}
);
width = 625;
}
);
note = "\012    U\012  ";
unicode = 0055;
changeCount = 1;
},
{
color = 4;
glyphname = V;
lastChange = "2016-10-19 22:54:34 +0000";
layers = (
{
layerId = "4B9C72B8-8622-4F9C-A154-BF8DEE7D8E25";
paths = (
{
closed = 1;
nodes = (
"383 15 OFFCURVE",
"385 19 OFFCURVE",
"387 24 CURVE SMOOTH",
"659 720 LINE",
"663 728 OFFCURVE",
"664 735 OFFCURVE",
"664 742 CURVE SMOOTH",
"664 764 OFFCURVE",
"646 781 OFFCURVE",
"625 781 CURVE SMOOTH",
"608 781 OFFCURVE",
"596 774 OFFCURVE",
"589 759 CURVE SMOOTH",
"352 147 LINE",
"114 759 LINE SMOOTH",
"107 774 OFFCURVE",
"95 781 OFFCURVE",
"78 781 CURVE SMOOTH",
"57 781 OFFCURVE",
"39 764 OFFCURVE",
"39 742 CURVE SMOOTH",
"39 735 OFFCURVE",
"41 728 OFFCURVE",
"44 720 CURVE",
"316 24 LINE SMOOTH",
"318 19 OFFCURVE",
"321 15 OFFCURVE",
"324 12 CURVE SMOOTH",
"332 4 OFFCURVE",
"341 0 OFFCURVE",
"352 0 CURVE SMOOTH",
"362 0 OFFCURVE",
"372 4 OFFCURVE",
"379 12 CURVE SMOOTH"
);
}
);
width = 703;
}
);
note = "\012    V\012  ";
unicode = 0056;
changeCount = 1;
},
{
color = 4;
glyphname = W;
lastChange = "2016-10-19 22:54:34 +0000";
layers = (
{
layerId = "4B9C72B8-8622-4F9C-A154-BF8DEE7D8E25";
paths = (
{
closed = 1;
nodes = (
"436 765 OFFCURVE",
"433 760 OFFCURVE",
"432 755 CURVE SMOOTH",
"273 185 LINE",
"115 755 LINE",
"111 766 OFFCURVE",
"100 781 OFFCURVE",
"78 781 CURVE SMOOTH",
"57 781 OFFCURVE",
"39 764 OFFCURVE",
"39 742 CURVE SMOOTH",
"39 737 OFFCURVE",
"40 731 OFFCURVE",
"42 725 CURVE",
"234 32 LINE SMOOTH",
"238 17 OFFCURVE",
"252 0 OFFCURVE",
"273 0 CURVE SMOOTH",
"295 0 OFFCURVE",
"308 17 OFFCURVE",
"313 33 CURVE",
"469 595 LINE",
"625 32 LINE SMOOTH",
"629 17 OFFCURVE",
"643 0 OFFCURVE",
"664 0 CURVE SMOOTH",
"686 0 OFFCURVE",
"699 17 OFFCURVE",
"704 33 CURVE",
"896 725 LINE",
"897 731 OFFCURVE",
"898 737 OFFCURVE",
"898 742 CURVE SMOOTH",
"898 764 OFFCURVE",
"881 781 OFFCURVE",
"859 781 CURVE SMOOTH",
"838 781 OFFCURVE",
"826 766 OFFCURVE",
"822 755 CURVE",
"664 185 LINE",
"506 755 LINE",
"502 766 OFFCURVE",
"490 781 OFFCURVE",
"469 781 CURVE SMOOTH",
"458 781 OFFCURVE",
"449 777 OFFCURVE",
"441 770 CURVE"
);
}
);
width = 938;
}
);
note = "\012    W\012  ";
unicode = 0057;
changeCount = 1;
},
{
color = 4;
glyphname = X;
lastChange = "2016-10-19 22:54:34 +0000";
layers = (
{
layerId = "4B9C72B8-8622-4F9C-A154-BF8DEE7D8E25";
paths = (
{
closed = 1;
nodes = (
"101 776 OFFCURVE",
"90 781 OFFCURVE",
"78 781 CURVE SMOOTH",
"57 781 OFFCURVE",
"39 764 OFFCURVE",
"39 742 CURVE SMOOTH",
"39 734 OFFCURVE",
"42 726 OFFCURVE",
"46 720 CURVE",
"302 391 LINE",
"47 63 LINE SMOOTH",
"42 56 OFFCURVE",
"39 48 OFFCURVE",
"39 39 CURVE SMOOTH",
"39 18 OFFCURVE",
"57 0 OFFCURVE",
"78 0 CURVE SMOOTH",
"90 0 OFFCURVE",
"101 4 OFFCURVE",
"108 14 CURVE SMOOTH",
"352 327 LINE",
"595 14 LINE SMOOTH",
"603 4 OFFCURVE",
"613 0 OFFCURVE",
"625 0 CURVE SMOOTH",
"646 0 OFFCURVE",
"664 18 OFFCURVE",
"664 39 CURVE SMOOTH",
"664 48 OFFCURVE",
"661 56 OFFCURVE",
"656 63 CURVE SMOOTH",
"401 391 LINE",
"657 720 LINE",
"662 726 OFFCURVE",
"664 734 OFFCURVE",
"664 742 CURVE SMOOTH",
"664 764 OFFCURVE",
"646 781 OFFCURVE",
"625 781 CURVE SMOOTH",
"613 781 OFFCURVE",
"602 776 OFFCURVE",
"593 765 CURVE SMOOTH",
"352 455 LINE",
"110 765 LINE SMOOTH"
);
}
);
width = 703;
}
);
note = "\012    X\012  ";
unicode = 0058;
changeCount = 1;
},
{
color = 4;
glyphname = Y;
lastChange = "2016-10-19 22:54:34 +0000";
layers = (
{
layerId = "4B9C72B8-8622-4F9C-A154-BF8DEE7D8E25";
paths = (
{
closed = 1;
nodes = (
"580 720 LINE SMOOTH",
"584 727 OFFCURVE",
"586 734 OFFCURVE",
"586 742 CURVE SMOOTH",
"586 764 OFFCURVE",
"568 781 OFFCURVE",
"547 781 CURVE SMOOTH",
"534 781 OFFCURVE",
"523 776 OFFCURVE",
"515 765 CURVE",
"313 461 LINE",
"110 765 LINE",
"102 776 OFFCURVE",
"91 781 OFFCURVE",
"78 781 CURVE SMOOTH",
"57 781 OFFCURVE",
"39 764 OFFCURVE",
"39 742 CURVE SMOOTH",
"39 734 OFFCURVE",
"41 727 OFFCURVE",
"45 720 CURVE SMOOTH",
"273 379 LINE",
"273 39 LINE SMOOTH",
"273 18 OFFCURVE",
"291 0 OFFCURVE",
"313 0 CURVE SMOOTH",
"334 0 OFFCURVE",
"352 18 OFFCURVE",
"352 39 CURVE SMOOTH",
"352 379 LINE"
);
}
);
width = 625;
}
);
note = "\012    Y\012  ";
unicode = 0059;
changeCount = 1;
},
{
color = 4;
glyphname = Z;
lastChange = "2016-10-19 22:54:34 +0000";
layers = (
{
layerId = "4B9C72B8-8622-4F9C-A154-BF8DEE7D8E25";
paths = (
{
closed = 1;
nodes = (
"47 63 LINE SMOOTH",
"42 56 OFFCURVE",
"39 48 OFFCURVE",
"39 39 CURVE SMOOTH",
"39 18 OFFCURVE",
"57 0 OFFCURVE",
"78 0 CURVE SMOOTH",
"625 0 LINE SMOOTH",
"646 0 OFFCURVE",
"664 18 OFFCURVE",
"664 39 CURVE SMOOTH",
"664 61 OFFCURVE",
"646 78 OFFCURVE",
"625 78 CURVE SMOOTH",
"158 78 LINE",
"657 720 LINE",
"662 726 OFFCURVE",
"664 734 OFFCURVE",
"664 742 CURVE SMOOTH",
"664 764 OFFCURVE",
"646 781 OFFCURVE",
"625 781 CURVE SMOOTH",
"78 781 LINE SMOOTH",
"57 781 OFFCURVE",
"39 764 OFFCURVE",
"39 742 CURVE SMOOTH",
"39 721 OFFCURVE",
"57 703 OFFCURVE",
"78 703 CURVE SMOOTH",
"545 703 LINE"
);
}
);
width = 703;
}
);
note = "\012    Z\012  ";
unicode = 005A;
changeCount = 1;
},
{
color = 4;
glyphname = bracketleft;
lastChange = "2016-10-19 22:54:34 +0000";
layers = (
{
layerId = "4B9C72B8-8622-4F9C-A154-BF8DEE7D8E25";
paths = (
{
closed = 1;
nodes = (
"57 781 OFFCURVE",
"39 764 OFFCURVE",
"39 742 CURVE SMOOTH",
"39 -195 LINE SMOOTH",
"39 -217 OFFCURVE",
"57 -234 OFFCURVE",
"78 -234 CURVE SMOOTH",
"234 -234 LINE SMOOTH",
"256 -234 OFFCURVE",
"273 -217 OFFCURVE",
"273 -195 CURVE SMOOTH",
"273 -174 OFFCURVE",
"256 -156 OFFCURVE",
"234 -156 CURVE SMOOTH",
"117 -156 LINE",
"117 703 LINE",
"234 703 LINE SMOOTH",
"256 703 OFFCURVE",
"273 721 OFFCURVE",
"273 742 CURVE SMOOTH",
"273 764 OFFCURVE",
"256 781 OFFCURVE",
"234 781 CURVE SMOOTH",
"78 781 LINE SMOOTH"
);
}
);
width = 313;
}
);
note = "\012    bracketleft\012  ";
unicode = 005B;
changeCount = 1;
},
{
color = 4;
glyphname = backslash;
lastChange = "2016-10-19 22:54:34 +0000";
layers = (
{
layerId = "4B9C72B8-8622-4F9C-A154-BF8DEE7D8E25";
paths = (
{
closed = 1;
nodes = (
"112 763 OFFCURVE",
"109 767 OFFCURVE",
"106 770 CURVE SMOOTH",
"98 777 OFFCURVE",
"89 781 OFFCURVE",
"78 781 CURVE SMOOTH",
"57 781 OFFCURVE",
"39 764 OFFCURVE",
"39 742 CURVE SMOOTH",
"39 736 OFFCURVE",
"40 731 OFFCURVE",
"42 726 CURVE",
"355 -56 LINE",
"357 -60 OFFCURVE",
"359 -63 OFFCURVE",
"363 -66 CURVE SMOOTH",
"371 -74 OFFCURVE",
"380 -78 OFFCURVE",
"391 -78 CURVE SMOOTH",
"412 -78 OFFCURVE",
"430 -61 OFFCURVE",
"430 -39 CURVE SMOOTH",
"430 -33 OFFCURVE",
"429 -28 OFFCURVE",
"426 -22 CURVE",
"114 759 LINE"
);
}
);
width = 469;
}
);
note = "\012    backslash\012  ";
unicode = 005C;
changeCount = 1;
},
{
color = 4;
glyphname = bracketright;
lastChange = "2016-10-19 22:54:34 +0000";
layers = (
{
layerId = "4B9C72B8-8622-4F9C-A154-BF8DEE7D8E25";
paths = (
{
closed = 1;
nodes = (
"273 764 OFFCURVE",
"256 781 OFFCURVE",
"234 781 CURVE SMOOTH",
"78 781 LINE SMOOTH",
"57 781 OFFCURVE",
"39 764 OFFCURVE",
"39 742 CURVE SMOOTH",
"39 721 OFFCURVE",
"57 703 OFFCURVE",
"78 703 CURVE SMOOTH",
"195 703 LINE",
"195 -156 LINE",
"78 -156 LINE SMOOTH",
"57 -156 OFFCURVE",
"39 -174 OFFCURVE",
"39 -195 CURVE SMOOTH",
"39 -217 OFFCURVE",
"57 -234 OFFCURVE",
"78 -234 CURVE SMOOTH",
"234 -234 LINE SMOOTH",
"256 -234 OFFCURVE",
"273 -217 OFFCURVE",
"273 -195 CURVE SMOOTH",
"273 742 LINE SMOOTH"
);
}
);
width = 313;
}
);
note = "\012    bracketright\012  ";
unicode = 005D;
changeCount = 1;
},
{
color = 4;
glyphname = asciicircum;
lastChange = "2016-10-19 22:54:34 +0000";
layers = (
{
layerId = "4B9C72B8-8622-4F9C-A154-BF8DEE7D8E25";
paths = (
{
closed = 1;
nodes = (
"367 474 OFFCURVE",
"377 469 OFFCURVE",
"391 469 CURVE SMOOTH",
"412 469 OFFCURVE",
"430 486 OFFCURVE",
"430 508 CURVE SMOOTH",
"430 515 OFFCURVE",
"428 522 OFFCURVE",
"424 528 CURVE",
"266 765 LINE SMOOTH",
"259 776 OFFCURVE",
"249 781 OFFCURVE",
"234 781 CURVE SMOOTH",
"220 781 OFFCURVE",
"210 776 OFFCURVE",
"203 765 CURVE SMOOTH",
"44 528 LINE",
"41 522 OFFCURVE",
"39 515 OFFCURVE",
"39 508 CURVE SMOOTH",
"39 486 OFFCURVE",
"57 469 OFFCURVE",
"78 469 CURVE SMOOTH",
"91 469 OFFCURVE",
"102 474 OFFCURVE",
"109 484 CURVE",
"234 671 LINE",
"359 484 LINE"
);
}
);
width = 469;
}
);
note = "\012    asciicircum\012  ";
unicode = 005E;
changeCount = 1;
},
{
color = 4;
glyphname = underscore;
lastChange = "2016-10-19 22:54:34 +0000";
layers = (
{
layerId = "4B9C72B8-8622-4F9C-A154-BF8DEE7D8E25";
paths = (
{
closed = 1;
nodes = (
"490 -78 OFFCURVE",
"508 -61 OFFCURVE",
"508 -39 CURVE SMOOTH",
"508 -18 OFFCURVE",
"490 0 OFFCURVE",
"469 0 CURVE SMOOTH",
"0 0 LINE SMOOTH",
"-21 0 OFFCURVE",
"-39 -18 OFFCURVE",
"-39 -39 CURVE SMOOTH",
"-39 -61 OFFCURVE",
"-21 -78 OFFCURVE",
"0 -78 CURVE SMOOTH",
"469 -78 LINE SMOOTH"
);
}
);
width = 469;
}
);
note = "\012    underscore\012  ";
unicode = 005F;
changeCount = 1;
},
{
color = 4;
glyphname = grave;
lastChange = "2016-10-19 22:54:34 +0000";
layers = (
{
layerId = "4B9C72B8-8622-4F9C-A154-BF8DEE7D8E25";
paths = (
{
closed = 1;
nodes = (
"39 732 OFFCURVE",
"42 723 OFFCURVE",
"50 715 CURVE SMOOTH",
"168 596 LINE SMOOTH",
"176 589 OFFCURVE",
"185 586 OFFCURVE",
"195 586 CURVE SMOOTH",
"217 586 OFFCURVE",
"234 604 OFFCURVE",
"234 625 CURVE SMOOTH",
"234 635 OFFCURVE",
"231 644 OFFCURVE",
"225 651 CURVE",
"106 770 LINE SMOOTH",
"98 777 OFFCURVE",
"89 781 OFFCURVE",
"78 781 CURVE SMOOTH",
"57 781 OFFCURVE",
"39 764 OFFCURVE",
"39 742 CURVE SMOOTH"
);
}
);
width = 273;
}
);
note = "\012    grave\012  ";
unicode = 0060;
changeCount = 1;
},
{
color = 4;
glyphname = a;
lastChange = "2016-10-19 22:54:34 +0000";
layers = (
{
layerId = "4B9C72B8-8622-4F9C-A154-BF8DEE7D8E25";
paths = (
{
closed = 1;
nodes = (
"508 18 OFFCURVE",
"525 0 OFFCURVE",
"547 0 CURVE SMOOTH",
"568 0 OFFCURVE",
"586 18 OFFCURVE",
"586 39 CURVE SMOOTH",
"586 273 LINE SMOOTH",
"586 424 OFFCURVE",
"463 547 OFFCURVE",
"313 547 CURVE SMOOTH",
"162 547 OFFCURVE",
"39 424 OFFCURVE",
"39 273 CURVE SMOOTH",
"39 123 OFFCURVE",
"162 0 OFFCURVE",
"313 0 CURVE SMOOTH",
"388 0 OFFCURVE",
"453 27 OFFCURVE",
"508 82 CURVE",
"508 39 LINE SMOOTH"
);
},
{
closed = 1;
nodes = (
"420 469 OFFCURVE",
"508 381 OFFCURVE",
"508 273 CURVE SMOOTH",
"508 166 OFFCURVE",
"420 78 OFFCURVE",
"313 78 CURVE SMOOTH",
"205 78 OFFCURVE",
"117 166 OFFCURVE",
"117 273 CURVE SMOOTH",
"117 381 OFFCURVE",
"205 469 OFFCURVE",
"313 469 CURVE SMOOTH"
);
}
);
width = 625;
}
);
note = "\012    a\012  ";
unicode = 0061;
changeCount = 1;
},
{
color = 4;
glyphname = b;
lastChange = "2016-10-19 22:54:34 +0000";
layers = (
{
layerId = "4B9C72B8-8622-4F9C-A154-BF8DEE7D8E25";
paths = (
{
closed = 1;
nodes = (
"117 765 OFFCURVE",
"100 782 OFFCURVE",
"78 782 CURVE SMOOTH",
"57 782 OFFCURVE",
"39 765 OFFCURVE",
"39 743 CURVE SMOOTH",
"39 273 LINE SMOOTH",
"39 123 OFFCURVE",
"162 0 OFFCURVE",
"313 0 CURVE SMOOTH",
"463 0 OFFCURVE",
"586 123 OFFCURVE",
"586 273 CURVE SMOOTH",
"586 424 OFFCURVE",
"463 547 OFFCURVE",
"313 547 CURVE SMOOTH",
"237 547 OFFCURVE",
"172 520 OFFCURVE",
"119 467 CURVE SMOOTH",
"117 465 LINE",
"117 743 LINE SMOOTH"
);
},
{
closed = 1;
nodes = (
"205 78 OFFCURVE",
"117 166 OFFCURVE",
"117 273 CURVE SMOOTH",
"117 381 OFFCURVE",
"205 469 OFFCURVE",
"313 469 CURVE SMOOTH",
"420 469 OFFCURVE",
"508 381 OFFCURVE",
"508 273 CURVE SMOOTH",
"508 166 OFFCURVE",
"420 78 OFFCURVE",
"313 78 CURVE SMOOTH"
);
}
);
width = 625;
}
);
note = "\012    b\012  ";
unicode = 0062;
changeCount = 1;
},
{
color = 4;
glyphname = c;
lastChange = "2016-10-19 22:54:34 +0000";
layers = (
{
layerId = "4B9C72B8-8622-4F9C-A154-BF8DEE7D8E25";
paths = (
{
closed = 1;
nodes = (
"455 134 OFFCURVE",
"447 131 OFFCURVE",
"440 126 CURVE",
"404 94 OFFCURVE",
"361 78 OFFCURVE",
"313 78 CURVE SMOOTH",
"205 78 OFFCURVE",
"117 166 OFFCURVE",
"117 273 CURVE SMOOTH",
"117 381 OFFCURVE",
"205 469 OFFCURVE",
"313 469 CURVE SMOOTH",
"361 469 OFFCURVE",
"404 453 OFFCURVE",
"440 420 CURVE",
"448 415 OFFCURVE",
"456 412 OFFCURVE",
"465 412 CURVE SMOOTH",
"487 412 OFFCURVE",
"504 429 OFFCURVE",
"504 451 CURVE SMOOTH",
"504 463 OFFCURVE",
"500 473 OFFCURVE",
"491 481 CURVE SMOOTH",
"440 525 OFFCURVE",
"381 547 OFFCURVE",
"313 547 CURVE SMOOTH",
"162 547 OFFCURVE",
"39 424 OFFCURVE",
"39 273 CURVE SMOOTH",
"39 123 OFFCURVE",
"162 0 OFFCURVE",
"313 0 CURVE SMOOTH",
"381 0 OFFCURVE",
"440 22 OFFCURVE",
"491 66 CURVE",
"499 74 OFFCURVE",
"503 84 OFFCURVE",
"503 95 CURVE SMOOTH",
"503 116 OFFCURVE",
"485 134 OFFCURVE",
"464 134 CURVE SMOOTH"
);
}
);
width = 547;
}
);
note = "\012    c\012  ";
unicode = 0063;
changeCount = 1;
},
{
color = 4;
glyphname = d;
lastChange = "2016-10-19 22:54:34 +0000";
layers = (
{
layerId = "4B9C72B8-8622-4F9C-A154-BF8DEE7D8E25";
paths = (
{
closed = 1;
nodes = (
"506 467 LINE SMOOTH",
"453 520 OFFCURVE",
"388 547 OFFCURVE",
"313 547 CURVE SMOOTH",
"162 547 OFFCURVE",
"39 424 OFFCURVE",
"39 273 CURVE SMOOTH",
"39 123 OFFCURVE",
"162 0 OFFCURVE",
"313 0 CURVE SMOOTH",
"463 0 OFFCURVE",
"586 123 OFFCURVE",
"586 273 CURVE SMOOTH",
"586 743 LINE SMOOTH",
"586 765 OFFCURVE",
"568 782 OFFCURVE",
"547 782 CURVE SMOOTH",
"525 782 OFFCURVE",
"508 765 OFFCURVE",
"508 743 CURVE SMOOTH",
"508 465 LINE"
);
},
{
closed = 1;
nodes = (
"508 166 OFFCURVE",
"420 78 OFFCURVE",
"313 78 CURVE SMOOTH",
"205 78 OFFCURVE",
"117 166 OFFCURVE",
"117 273 CURVE SMOOTH",
"117 381 OFFCURVE",
"205 469 OFFCURVE",
"313 469 CURVE SMOOTH",
"420 469 OFFCURVE",
"508 381 OFFCURVE",
"508 273 CURVE SMOOTH"
);
}
);
width = 625;
}
);
note = "\012    d\012  ";
unicode = 0064;
changeCount = 1;
},
{
color = 4;
glyphname = e;
lastChange = "2016-10-19 22:54:34 +0000";
layers = (
{
layerId = "4B9C72B8-8622-4F9C-A154-BF8DEE7D8E25";
paths = (
{
closed = 1;
nodes = (
"454 133 OFFCURVE",
"446 130 OFFCURVE",
"438 125 CURVE",
"403 94 OFFCURVE",
"361 78 OFFCURVE",
"313 78 CURVE SMOOTH",
"205 78 OFFCURVE",
"135 160 OFFCURVE",
"121 234 CURVE",
"547 234 LINE SMOOTH",
"568 234 OFFCURVE",
"586 252 OFFCURVE",
"586 273 CURVE SMOOTH",
"586 424 OFFCURVE",
"463 547 OFFCURVE",
"313 547 CURVE SMOOTH",
"162 547 OFFCURVE",
"39 424 OFFCURVE",
"39 273 CURVE SMOOTH",
"39 123 OFFCURVE",
"162 0 OFFCURVE",
"313 0 CURVE SMOOTH",
"381 0 OFFCURVE",
"440 22 OFFCURVE",
"491 66 CURVE",
"498 74 OFFCURVE",
"502 83 OFFCURVE",
"502 94 CURVE SMOOTH",
"502 115 OFFCURVE",
"484 133 OFFCURVE",
"463 133 CURVE SMOOTH"
);
},
{
closed = 1;
nodes = (
"135 387 OFFCURVE",
"205 469 OFFCURVE",
"313 469 CURVE SMOOTH",
"420 469 OFFCURVE",
"490 387 OFFCURVE",
"504 313 CURVE",
"121 313 LINE"
);
}
);
width = 625;
}
);
note = "\012    e\012  ";
unicode = 0065;
changeCount = 1;
},
{
color = 4;
glyphname = f;
lastChange = "2016-10-19 22:54:34 +0000";
layers = (
{
layerId = "4B9C72B8-8622-4F9C-A154-BF8DEE7D8E25";
paths = (
{
closed = 1;
nodes = (
"195 781 OFFCURVE",
"117 703 OFFCURVE",
"117 547 CURVE SMOOTH",
"117 518 LINE",
"78 518 LINE SMOOTH",
"57 518 OFFCURVE",
"39 500 OFFCURVE",
"39 479 CURVE SMOOTH",
"39 457 OFFCURVE",
"57 439 OFFCURVE",
"78 439 CURVE SMOOTH",
"117 439 LINE",
"117 39 LINE SMOOTH",
"117 18 OFFCURVE",
"135 0 OFFCURVE",
"156 0 CURVE SMOOTH",
"178 0 OFFCURVE",
"195 18 OFFCURVE",
"195 39 CURVE SMOOTH",
"195 439 LINE",
"313 439 LINE SMOOTH",
"334 439 OFFCURVE",
"352 457 OFFCURVE",
"352 479 CURVE SMOOTH",
"352 500 OFFCURVE",
"334 518 OFFCURVE",
"313 518 CURVE SMOOTH",
"195 518 LINE",
"195 547 LINE SMOOTH",
"195 651 OFFCURVE",
"248 703 OFFCURVE",
"352 703 CURVE SMOOTH",
"373 703 OFFCURVE",
"391 721 OFFCURVE",
"391 742 CURVE SMOOTH",
"391 764 OFFCURVE",
"373 781 OFFCURVE",
"352 781 CURVE SMOOTH"
);
}
);
width = 391;
}
);
note = "\012    f\012  ";
unicode = 0066;
changeCount = 1;
},
{
color = 4;
glyphname = g;
lastChange = "2016-10-19 22:54:34 +0000";
layers = (
{
layerId = "4B9C72B8-8622-4F9C-A154-BF8DEE7D8E25";
paths = (
{
closed = 1;
nodes = (
"508 -31 OFFCURVE",
"495 -62 OFFCURVE",
"469 -93 CURVE",
"427 -135 OFFCURVE",
"376 -156 OFFCURVE",
"317 -156 CURVE SMOOTH",
"258 -156 OFFCURVE",
"207 -135 OFFCURVE",
"165 -93 CURVE SMOOTH",
"150 -78 OFFCURVE",
"137 -62 OFFCURVE",
"127 -44 CURVE SMOOTH",
"125 -40 OFFCURVE",
"123 -36 OFFCURVE",
"119 -32 CURVE SMOOTH",
"111 -25 OFFCURVE",
"102 -21 OFFCURVE",
"91 -21 CURVE SMOOTH",
"70 -21 OFFCURVE",
"52 -39 OFFCURVE",
"52 -60 CURVE SMOOTH",
"52 -68 OFFCURVE",
"54 -75 OFFCURVE",
"58 -81 CURVE",
"71 -105 OFFCURVE",
"89 -127 OFFCURVE",
"110 -148 CURVE SMOOTH",
"167 -206 OFFCURVE",
"236 -234 OFFCURVE",
"317 -234 CURVE SMOOTH",
"398 -234 OFFCURVE",
"467 -206 OFFCURVE",
"524 -148 CURVE SMOOTH",
"565 -106 OFFCURVE",
"586 -57 OFFCURVE",
"586 0 CURVE SMOOTH",
"586 273 LINE SMOOTH",
"586 424 OFFCURVE",
"463 547 OFFCURVE",
"313 547 CURVE SMOOTH",
"162 547 OFFCURVE",
"39 424 OFFCURVE",
"39 273 CURVE SMOOTH",
"39 123 OFFCURVE",
"162 0 OFFCURVE",
"313 0 CURVE SMOOTH",
"388 0 OFFCURVE",
"453 27 OFFCURVE",
"506 80 CURVE SMOOTH",
"508 82 LINE",
"508 0 LINE SMOOTH"
);
},
{
closed = 1;
nodes = (
"420 469 OFFCURVE",
"508 381 OFFCURVE",
"508 273 CURVE SMOOTH",
"508 166 OFFCURVE",
"420 78 OFFCURVE",
"313 78 CURVE SMOOTH",
"205 78 OFFCURVE",
"117 166 OFFCURVE",
"117 273 CURVE SMOOTH",
"117 381 OFFCURVE",
"205 469 OFFCURVE",
"313 469 CURVE SMOOTH"
);
}
);
width = 625;
}
);
note = "\012    g\012  ";
unicode = 0067;
changeCount = 1;
},
{
color = 4;
glyphname = h;
lastChange = "2016-10-19 22:54:34 +0000";
layers = (
{
layerId = "4B9C72B8-8622-4F9C-A154-BF8DEE7D8E25";
paths = (
{
closed = 1;
nodes = (
"39 18 OFFCURVE",
"57 0 OFFCURVE",
"78 0 CURVE SMOOTH",
"100 0 OFFCURVE",
"117 18 OFFCURVE",
"117 39 CURVE SMOOTH",
"117 293 LINE SMOOTH",
"117 390 OFFCURVE",
"196 469 OFFCURVE",
"293 469 CURVE SMOOTH",
"390 469 OFFCURVE",
"469 390 OFFCURVE",
"469 293 CURVE SMOOTH",
"469 39 LINE SMOOTH",
"469 18 OFFCURVE",
"486 0 OFFCURVE",
"508 0 CURVE SMOOTH",
"529 0 OFFCURVE",
"547 18 OFFCURVE",
"547 39 CURVE SMOOTH",
"547 293 LINE SMOOTH",
"547 433 OFFCURVE",
"433 547 OFFCURVE",
"293 547 CURVE SMOOTH",
"225 547 OFFCURVE",
"166 523 OFFCURVE",
"117 476 CURVE",
"117 742 LINE SMOOTH",
"117 764 OFFCURVE",
"100 781 OFFCURVE",
"78 781 CURVE SMOOTH",
"57 781 OFFCURVE",
"39 764 OFFCURVE",
"39 742 CURVE SMOOTH",
"39 39 LINE SMOOTH"
);
}
);
width = 586;
}
);
note = "\012    h\012  ";
unicode = 0068;
changeCount = 1;
},
{
color = 4;
glyphname = i;
lastChange = "2016-10-19 22:54:34 +0000";
layers = (
{
layerId = "4B9C72B8-8622-4F9C-A154-BF8DEE7D8E25";
paths = (
{
closed = 1;
nodes = (
"166 691 OFFCURVE",
"144 713 OFFCURVE",
"117 713 CURVE SMOOTH",
"90 713 OFFCURVE",
"68 691 OFFCURVE",
"68 664 CURVE SMOOTH",
"68 637 OFFCURVE",
"90 615 OFFCURVE",
"117 615 CURVE SMOOTH",
"144 615 OFFCURVE",
"166 637 OFFCURVE",
"166 664 CURVE SMOOTH"
);
},
{
closed = 1;
nodes = (
"78 18 OFFCURVE",
"96 0 OFFCURVE",
"117 0 CURVE SMOOTH",
"139 0 OFFCURVE",
"156 18 OFFCURVE",
"156 39 CURVE SMOOTH",
"156 508 LINE SMOOTH",
"156 529 OFFCURVE",
"139 547 OFFCURVE",
"117 547 CURVE SMOOTH",
"96 547 OFFCURVE",
"78 529 OFFCURVE",
"78 508 CURVE SMOOTH",
"78 39 LINE SMOOTH"
);
}
);
width = 234;
}
);
note = "\012    i\012  ";
unicode = 0069;
changeCount = 1;
},
{
color = 4;
glyphname = j;
lastChange = "2016-10-19 22:54:34 +0000";
layers = (
{
layerId = "4B9C72B8-8622-4F9C-A154-BF8DEE7D8E25";
paths = (
{
closed = 1;
nodes = (
"283 691 OFFCURVE",
"261 713 OFFCURVE",
"234 713 CURVE SMOOTH",
"208 713 OFFCURVE",
"186 691 OFFCURVE",
"186 664 CURVE SMOOTH",
"186 637 OFFCURVE",
"208 615 OFFCURVE",
"234 615 CURVE SMOOTH",
"261 615 OFFCURVE",
"283 637 OFFCURVE",
"283 664 CURVE SMOOTH"
);
},
{
closed = 1;
nodes = (
"195 -86 OFFCURVE",
"125 -156 OFFCURVE",
"39 -156 CURVE SMOOTH",
"18 -156 OFFCURVE",
"0 -174 OFFCURVE",
"0 -195 CURVE SMOOTH",
"0 -217 OFFCURVE",
"18 -234 OFFCURVE",
"39 -234 CURVE SMOOTH",
"168 -234 OFFCURVE",
"273 -129 OFFCURVE",
"273 0 CURVE SMOOTH",
"273 508 LINE SMOOTH",
"273 529 OFFCURVE",
"256 547 OFFCURVE",
"234 547 CURVE SMOOTH",
"213 547 OFFCURVE",
"195 529 OFFCURVE",
"195 508 CURVE SMOOTH",
"195 0 LINE SMOOTH"
);
}
);
width = 320;
}
);
note = "\012    j\012  ";
unicode = 006A;
changeCount = 1;
},
{
color = 4;
glyphname = k;
lastChange = "2016-10-19 22:54:34 +0000";
layers = (
{
layerId = "4B9C72B8-8622-4F9C-A154-BF8DEE7D8E25";
paths = (
{
closed = 1;
nodes = (
"117 764 OFFCURVE",
"100 781 OFFCURVE",
"78 781 CURVE SMOOTH",
"57 781 OFFCURVE",
"39 764 OFFCURVE",
"39 742 CURVE SMOOTH",
"39 39 LINE SMOOTH",
"39 18 OFFCURVE",
"57 0 OFFCURVE",
"78 0 CURVE SMOOTH",
"100 0 OFFCURVE",
"117 18 OFFCURVE",
"117 39 CURVE SMOOTH",
"117 233 LINE",
"198 285 LINE",
"440 12 LINE",
"449 4 OFFCURVE",
"458 0 OFFCURVE",
"469 0 CURVE SMOOTH",
"490 0 OFFCURVE",
"508 18 OFFCURVE",
"508 39 CURVE SMOOTH",
"508 49 OFFCURVE",
"504 59 OFFCURVE",
"497 66 CURVE SMOOTH",
"265 328 LINE",
"491 476 LINE",
"497 480 LINE",
"504 488 OFFCURVE",
"508 497 OFFCURVE",
"508 508 CURVE SMOOTH",
"508 529 OFFCURVE",
"490 547 OFFCURVE",
"469 547 CURVE SMOOTH",
"461 547 OFFCURVE",
"454 545 OFFCURVE",
"448 541 CURVE SMOOTH",
"117 326 LINE",
"117 742 LINE SMOOTH"
);
}
);
width = 547;
}
);
note = "\012    k\012  ";
unicode = 006B;
changeCount = 1;
},
{
color = 4;
glyphname = l;
lastChange = "2016-10-19 22:54:34 +0000";
layers = (
{
layerId = "4B9C72B8-8622-4F9C-A154-BF8DEE7D8E25";
paths = (
{
closed = 1;
nodes = (
"39 18 OFFCURVE",
"57 0 OFFCURVE",
"78 0 CURVE SMOOTH",
"156 0 LINE SMOOTH",
"178 0 OFFCURVE",
"195 18 OFFCURVE",
"195 39 CURVE SMOOTH",
"195 61 OFFCURVE",
"178 78 OFFCURVE",
"156 78 CURVE SMOOTH",
"117 78 LINE",
"117 742 LINE SMOOTH",
"117 764 OFFCURVE",
"100 781 OFFCURVE",
"78 781 CURVE SMOOTH",
"57 781 OFFCURVE",
"39 764 OFFCURVE",
"39 742 CURVE SMOOTH",
"39 39 LINE SMOOTH"
);
}
);
width = 234;
}
);
note = "\012    l\012  ";
unicode = 006C;
changeCount = 1;
},
{
color = 4;
glyphname = m;
lastChange = "2016-10-19 22:54:34 +0000";
layers = (
{
layerId = "4B9C72B8-8622-4F9C-A154-BF8DEE7D8E25";
paths = (
{
closed = 1;
nodes = (
"117 408 OFFCURVE",
"178 469 OFFCURVE",
"254 469 CURVE SMOOTH",
"330 469 OFFCURVE",
"391 408 OFFCURVE",
"391 332 CURVE SMOOTH",
"391 39 LINE SMOOTH",
"391 18 OFFCURVE",
"408 0 OFFCURVE",
"430 0 CURVE SMOOTH",
"451 0 OFFCURVE",
"469 18 OFFCURVE",
"469 39 CURVE SMOOTH",
"469 332 LINE SMOOTH",
"469 408 OFFCURVE",
"530 469 OFFCURVE",
"605 469 CURVE SMOOTH",
"681 469 OFFCURVE",
"742 408 OFFCURVE",
"742 332 CURVE SMOOTH",
"742 39 LINE SMOOTH",
"742 18 OFFCURVE",
"760 0 OFFCURVE",
"781 0 CURVE SMOOTH",
"803 0 OFFCURVE",
"820 18 OFFCURVE",
"820 39 CURVE SMOOTH",
"820 332 LINE SMOOTH",
"820 451 OFFCURVE",
"724 547 OFFCURVE",
"605 547 CURVE SMOOTH",
"546 547 OFFCURVE",
"496 526 OFFCURVE",
"454 484 CURVE SMOOTH",
"445 475 OFFCURVE",
"437 466 OFFCURVE",
"430 456 CURVE",
"422 466 OFFCURVE",
"415 475 OFFCURVE",
"406 484 CURVE SMOOTH",
"364 526 OFFCURVE",
"313 547 OFFCURVE",
"254 547 CURVE SMOOTH",
"202 547 OFFCURVE",
"156 530 OFFCURVE",
"117 498 CURVE",
"117 508 LINE SMOOTH",
"117 529 OFFCURVE",
"100 547 OFFCURVE",
"78 547 CURVE SMOOTH",
"57 547 OFFCURVE",
"39 529 OFFCURVE",
"39 508 CURVE SMOOTH",
"39 39 LINE SMOOTH",
"39 18 OFFCURVE",
"57 0 OFFCURVE",
"78 0 CURVE SMOOTH",
"100 0 OFFCURVE",
"117 18 OFFCURVE",
"117 39 CURVE SMOOTH",
"117 332 LINE SMOOTH"
);
}
);
width = 859;
}
);
note = "\012    m\012  ";
unicode = 006D;
changeCount = 1;
},
{
color = 4;
glyphname = n;
lastChange = "2016-10-19 22:54:34 +0000";
layers = (
{
background = {
paths = (
{
closed = 1;
nodes = (
"532 0 OFFCURVE",
"549 18 OFFCURVE",
"549 39 CURVE SMOOTH",
"549 286 LINE SMOOTH",
"549 439 OFFCURVE",
"442 550 OFFCURVE",
"294 550 CURVE SMOOTH",
"144 550 OFFCURVE",
"36 443 OFFCURVE",
"36 294 CURVE SMOOTH",
"36 273 OFFCURVE",
"53 255 OFFCURVE",
"75 255 CURVE SMOOTH",
"96 255 OFFCURVE",
"114 273 OFFCURVE",
"114 294 CURVE SMOOTH",
"114 400 OFFCURVE",
"187 472 OFFCURVE",
"294 472 CURVE SMOOTH",
"399 472 OFFCURVE",
"471 396 OFFCURVE",
"471 286 CURVE SMOOTH",
"471 39 LINE SMOOTH",
"471 18 OFFCURVE",
"489 0 OFFCURVE",
"510 0 CURVE SMOOTH"
);
}
);
};
layerId = "4B9C72B8-8622-4F9C-A154-BF8DEE7D8E25";
paths = (
{
closed = 1;
nodes = (
"39 18 OFFCURVE",
"57 0 OFFCURVE",
"78 0 CURVE SMOOTH",
"100 0 OFFCURVE",
"117 18 OFFCURVE",
"117 39 CURVE SMOOTH",
"117 293 LINE SMOOTH",
"117 390 OFFCURVE",
"196 469 OFFCURVE",
"293 469 CURVE SMOOTH",
"390 469 OFFCURVE",
"469 390 OFFCURVE",
"469 293 CURVE SMOOTH",
"469 39 LINE SMOOTH",
"469 18 OFFCURVE",
"486 0 OFFCURVE",
"508 0 CURVE SMOOTH",
"529 0 OFFCURVE",
"547 18 OFFCURVE",
"547 39 CURVE SMOOTH",
"547 293 LINE SMOOTH",
"547 433 OFFCURVE",
"433 547 OFFCURVE",
"293 547 CURVE SMOOTH",
"225 547 OFFCURVE",
"166 523 OFFCURVE",
"117 476 CURVE",
"117 508 LINE SMOOTH",
"117 529 OFFCURVE",
"100 547 OFFCURVE",
"78 547 CURVE SMOOTH",
"57 547 OFFCURVE",
"39 529 OFFCURVE",
"39 508 CURVE SMOOTH",
"39 39 LINE SMOOTH"
);
}
);
width = 586;
},
{
associatedMasterId = "4B9C72B8-8622-4F9C-A154-BF8DEE7D8E25";
background = {
paths = (
{
closed = 0;
nodes = (
"75 294 LINE",
"75 421 OFFCURVE",
"166 511 OFFCURVE",
"294 511 CURVE SMOOTH",
"420 511 OFFCURVE",
"510 418 OFFCURVE",
"510 286 CURVE SMOOTH",
"510 41 LINE"
);
}
);
};
layerId = "190A980A-3C57-46E8-9E95-5C4423257B1F";
name = "Oct 14 16, 10:23";
paths = (
{
closed = 1;
nodes = (
"39 18 OFFCURVE",
"57 0 OFFCURVE",
"78 0 CURVE SMOOTH",
"100 0 OFFCURVE",
"117 18 OFFCURVE",
"117 39 CURVE SMOOTH",
"117 293 LINE SMOOTH",
"117 390 OFFCURVE",
"196 469 OFFCURVE",
"293 469 CURVE SMOOTH",
"390 469 OFFCURVE",
"469 390 OFFCURVE",
"469 293 CURVE SMOOTH",
"469 39 LINE SMOOTH",
"469 18 OFFCURVE",
"486 0 OFFCURVE",
"508 0 CURVE SMOOTH",
"529 0 OFFCURVE",
"547 18 OFFCURVE",
"547 39 CURVE SMOOTH",
"547 293 LINE SMOOTH",
"547 433 OFFCURVE",
"433 547 OFFCURVE",
"293 547 CURVE SMOOTH",
"225 547 OFFCURVE",
"166 523 OFFCURVE",
"117 476 CURVE",
"117 508 LINE SMOOTH",
"117 529 OFFCURVE",
"100 547 OFFCURVE",
"78 547 CURVE SMOOTH",
"57 547 OFFCURVE",
"39 529 OFFCURVE",
"39 508 CURVE SMOOTH",
"39 39 LINE SMOOTH"
);
}
);
width = 586;
}
);
note = "\012    n\012  ";
unicode = 006E;
changeCount = 1;
},
{
color = 4;
glyphname = o;
lastChange = "2016-10-19 22:54:34 +0000";
layers = (
{
layerId = "4B9C72B8-8622-4F9C-A154-BF8DEE7D8E25";
paths = (
{
closed = 1;
nodes = (
"586 424 OFFCURVE",
"463 547 OFFCURVE",
"313 547 CURVE SMOOTH",
"162 547 OFFCURVE",
"39 424 OFFCURVE",
"39 273 CURVE SMOOTH",
"39 123 OFFCURVE",
"162 0 OFFCURVE",
"313 0 CURVE SMOOTH",
"463 0 OFFCURVE",
"586 123 OFFCURVE",
"586 273 CURVE SMOOTH"
);
},
{
closed = 1;
nodes = (
"420 469 OFFCURVE",
"508 381 OFFCURVE",
"508 273 CURVE SMOOTH",
"508 166 OFFCURVE",
"420 78 OFFCURVE",
"313 78 CURVE SMOOTH",
"205 78 OFFCURVE",
"117 166 OFFCURVE",
"117 273 CURVE SMOOTH",
"117 381 OFFCURVE",
"205 469 OFFCURVE",
"313 469 CURVE SMOOTH"
);
}
);
width = 625;
}
);
note = "\012    o\012  ";
unicode = 006F;
changeCount = 1;
},
{
color = 4;
glyphname = p;
lastChange = "2016-10-19 22:54:34 +0000";
layers = (
{
layerId = "4B9C72B8-8622-4F9C-A154-BF8DEE7D8E25";
paths = (
{
closed = 1;
nodes = (
"119 80 LINE SMOOTH",
"172 27 OFFCURVE",
"237 0 OFFCURVE",
"313 0 CURVE SMOOTH",
"463 0 OFFCURVE",
"586 123 OFFCURVE",
"586 273 CURVE SMOOTH",
"586 424 OFFCURVE",
"463 547 OFFCURVE",
"313 547 CURVE SMOOTH",
"162 547 OFFCURVE",
"39 424 OFFCURVE",
"39 273 CURVE SMOOTH",
"39 -195 LINE SMOOTH",
"39 -217 OFFCURVE",
"57 -234 OFFCURVE",
"78 -234 CURVE SMOOTH",
"100 -234 OFFCURVE",
"117 -217 OFFCURVE",
"117 -195 CURVE SMOOTH",
"117 82 LINE"
);
},
{
closed = 1;
nodes = (
"117 381 OFFCURVE",
"205 469 OFFCURVE",
"313 469 CURVE SMOOTH",
"420 469 OFFCURVE",
"508 381 OFFCURVE",
"508 273 CURVE SMOOTH",
"508 166 OFFCURVE",
"420 78 OFFCURVE",
"313 78 CURVE SMOOTH",
"205 78 OFFCURVE",
"117 166 OFFCURVE",
"117 273 CURVE SMOOTH"
);
}
);
width = 625;
}
);
note = "\012    p\012  ";
unicode = 0070;
changeCount = 1;
},
{
color = 4;
glyphname = q;
lastChange = "2016-10-19 22:54:34 +0000";
layers = (
{
layerId = "4B9C72B8-8622-4F9C-A154-BF8DEE7D8E25";
paths = (
{
closed = 1;
nodes = (
"508 -217 OFFCURVE",
"525 -234 OFFCURVE",
"547 -234 CURVE SMOOTH",
"568 -234 OFFCURVE",
"586 -217 OFFCURVE",
"586 -195 CURVE SMOOTH",
"586 273 LINE SMOOTH",
"586 424 OFFCURVE",
"463 547 OFFCURVE",
"313 547 CURVE SMOOTH",
"162 547 OFFCURVE",
"39 424 OFFCURVE",
"39 273 CURVE SMOOTH",
"39 123 OFFCURVE",
"162 0 OFFCURVE",
"313 0 CURVE SMOOTH",
"388 0 OFFCURVE",
"453 27 OFFCURVE",
"506 80 CURVE SMOOTH",
"508 82 LINE",
"508 -195 LINE SMOOTH"
);
},
{
closed = 1;
nodes = (
"420 469 OFFCURVE",
"508 381 OFFCURVE",
"508 273 CURVE SMOOTH",
"508 166 OFFCURVE",
"420 78 OFFCURVE",
"313 78 CURVE SMOOTH",
"205 78 OFFCURVE",
"117 166 OFFCURVE",
"117 273 CURVE SMOOTH",
"117 381 OFFCURVE",
"205 469 OFFCURVE",
"313 469 CURVE SMOOTH"
);
}
);
width = 625;
}
);
note = "\012    q\012  ";
unicode = 0071;
changeCount = 1;
},
{
color = 4;
glyphname = r;
lastChange = "2016-10-19 22:54:34 +0000";
layers = (
{
layerId = "4B9C72B8-8622-4F9C-A154-BF8DEE7D8E25";
paths = (
{
closed = 1;
nodes = (
"39 18 OFFCURVE",
"57 0 OFFCURVE",
"78 0 CURVE SMOOTH",
"100 0 OFFCURVE",
"117 18 OFFCURVE",
"117 39 CURVE SMOOTH",
"117 273 LINE SMOOTH",
"117 381 OFFCURVE",
"205 469 OFFCURVE",
"313 469 CURVE SMOOTH",
"340 469 OFFCURVE",
"366 464 OFFCURVE",
"389 454 CURVE SMOOTH",
"394 452 OFFCURVE",
"399 450 OFFCURVE",
"406 450 CURVE SMOOTH",
"427 450 OFFCURVE",
"445 468 OFFCURVE",
"445 489 CURVE SMOOTH",
"445 511 OFFCURVE",
"429 523 OFFCURVE",
"417 527 CURVE",
"386 541 OFFCURVE",
"351 547 OFFCURVE",
"313 547 CURVE SMOOTH",
"237 547 OFFCURVE",
"172 520 OFFCURVE",
"117 465 CURVE",
"117 508 LINE SMOOTH",
"117 529 OFFCURVE",
"100 547 OFFCURVE",
"78 547 CURVE SMOOTH",
"57 547 OFFCURVE",
"39 529 OFFCURVE",
"39 508 CURVE SMOOTH",
"39 39 LINE SMOOTH"
);
}
);
width = 469;
}
);
note = "\012    r\012  ";
unicode = 0072;
changeCount = 1;
},
{
color = 4;
glyphname = s;
lastChange = "2016-10-19 22:54:34 +0000";
layers = (
{
background = {
paths = (
{
closed = 0;
nodes = (
"442 408 LINE",
"388 473 OFFCURVE",
"336 508 OFFCURVE",
"246 508 CURVE SMOOTH",
"161 508 OFFCURVE",
"89 468 OFFCURVE",
"89 390 CURVE SMOOTH",
"89 310 OFFCURVE",
"152 279 OFFCURVE",
"256 279 CURVE SMOOTH",
"370 279 OFFCURVE",
"447 255 OFFCURVE",
"447 160 CURVE SMOOTH",
"447 65 OFFCURVE",
"352 32 OFFCURVE",
"270 32 CURVE SMOOTH",
"183 32 OFFCURVE",
"131 66 OFFCURVE",
"74 122 CURVE SMOOTH"
);
}
);
};
layerId = "4B9C72B8-8622-4F9C-A154-BF8DEE7D8E25";
paths = (
{
closed = 1;
nodes = (
"391 188 OFFCURVE",
"399 178 OFFCURVE",
"400 163 CURVE",
"400 149 OFFCURVE",
"396 138 OFFCURVE",
"388 129 CURVE",
"356 95 OFFCURVE",
"313 78 OFFCURVE",
"259 78 CURVE SMOOTH",
"205 78 OFFCURVE",
"159 97 OFFCURVE",
"121 135 CURVE SMOOTH",
"118 138 OFFCURVE",
"113 143 OFFCURVE",
"106 150 CURVE SMOOTH",
"100 157 OFFCURVE",
"91 160 OFFCURVE",
"81 160 CURVE SMOOTH",
"59 160 OFFCURVE",
"42 143 OFFCURVE",
"42 121 CURVE SMOOTH",
"42 113 OFFCURVE",
"44 105 OFFCURVE",
"49 98 CURVE",
"107 33 OFFCURVE",
"177 0 OFFCURVE",
"259 0 CURVE SMOOTH",
"334 0 OFFCURVE",
"396 24 OFFCURVE",
"442 72 CURVE SMOOTH",
"466 96 OFFCURVE",
"479 124 OFFCURVE",
"479 156 CURVE SMOOTH",
"479 221 OFFCURVE",
"441 251 OFFCURVE",
"382 273 CURVE",
"142 353 LINE SMOOTH",
"126 358 OFFCURVE",
"119 369 OFFCURVE",
"118 384 CURVE",
"118 397 OFFCURVE",
"122 409 OFFCURVE",
"129 418 CURVE",
"162 452 OFFCURVE",
"205 469 OFFCURVE",
"259 469 CURVE SMOOTH",
"313 469 OFFCURVE",
"359 450 OFFCURVE",
"397 412 CURVE SMOOTH",
"400 409 OFFCURVE",
"405 404 OFFCURVE",
"411 397 CURVE SMOOTH",
"417 390 OFFCURVE",
"426 387 OFFCURVE",
"437 387 CURVE SMOOTH",
"448 387 OFFCURVE",
"457 391 OFFCURVE",
"465 398 CURVE SMOOTH",
"480 414 OFFCURVE",
"479 437 OFFCURVE",
"469 449 CURVE SMOOTH",
"411 514 OFFCURVE",
"340 547 OFFCURVE",
"259 547 CURVE SMOOTH",
"183 547 OFFCURVE",
"122 523 OFFCURVE",
"75 475 CURVE SMOOTH",
"51 451 OFFCURVE",
"39 423 OFFCURVE",
"39 391 CURVE SMOOTH",
"39 326 OFFCURVE",
"77 295 OFFCURVE",
"136 273 CURVE",
"376 194 LINE SMOOTH"
);
}
);
width = 518;
},
{
associatedMasterId = "4B9C72B8-8622-4F9C-A154-BF8DEE7D8E25";
background = {
paths = (
{
closed = 0;
nodes = (
"442 408 LINE",
"388 473 OFFCURVE",
"336 508 OFFCURVE",
"246 508 CURVE SMOOTH",
"161 508 OFFCURVE",
"89 468 OFFCURVE",
"89 390 CURVE SMOOTH",
"89 310 OFFCURVE",
"152 279 OFFCURVE",
"256 279 CURVE SMOOTH",
"370 279 OFFCURVE",
"447 255 OFFCURVE",
"447 160 CURVE SMOOTH",
"447 65 OFFCURVE",
"352 32 OFFCURVE",
"270 32 CURVE SMOOTH",
"183 32 OFFCURVE",
"131 66 OFFCURVE",
"74 122 CURVE SMOOTH"
);
}
);
};
layerId = "8F816205-29D5-493C-8EED-66570C268EBC";
name = "Oct 14 16, 10:22";
paths = (
{
closed = 1;
nodes = (
"398 -7 OFFCURVE",
"486 59 OFFCURVE",
"486 160 CURVE SMOOTH",
"486 268 OFFCURVE",
"410 318 OFFCURVE",
"256 318 CURVE SMOOTH",
"163 318 OFFCURVE",
"128 341 OFFCURVE",
"128 390 CURVE SMOOTH",
"128 438 OFFCURVE",
"173 469 OFFCURVE",
"246 469 CURVE SMOOTH",
"316 469 OFFCURVE",
"358 447 OFFCURVE",
"412 383 CURVE SMOOTH",
"419 374 OFFCURVE",
"430 369 OFFCURVE",
"442 369 CURVE SMOOTH",
"463 369 OFFCURVE",
"481 386 OFFCURVE",
"481 408 CURVE SMOOTH",
"481 417 OFFCURVE",
"478 426 OFFCURVE",
"472 433 CURVE SMOOTH",
"404 515 OFFCURVE",
"340 547 OFFCURVE",
"246 547 CURVE SMOOTH",
"130 547 OFFCURVE",
"50 484 OFFCURVE",
"50 390 CURVE SMOOTH",
"50 292 OFFCURVE",
"122 240 OFFCURVE",
"256 240 CURVE SMOOTH",
"369 240 OFFCURVE",
"408 218 OFFCURVE",
"408 160 CURVE SMOOTH",
"408 106 OFFCURVE",
"355 71 OFFCURVE",
"270 71 CURVE SMOOTH",
"205 71 OFFCURVE",
"163 90 OFFCURVE",
"101 150 CURVE SMOOTH",
"94 156 OFFCURVE",
"85 161 OFFCURVE",
"74 161 CURVE SMOOTH",
"53 161 OFFCURVE",
"35 143 OFFCURVE",
"35 122 CURVE SMOOTH",
"35 111 OFFCURVE",
"40 101 OFFCURVE",
"47 93 CURVE SMOOTH",
"122 21 OFFCURVE",
"183 -7 OFFCURVE",
"270 -7 CURVE SMOOTH"
);
}
);
width = 518;
}
);
note = "\012    s\012  ";
unicode = 0073;
changeCount = 1;
},
{
color = 4;
glyphname = t;
lastChange = "2016-10-19 22:54:34 +0000";
layers = (
{
layerId = "4B9C72B8-8622-4F9C-A154-BF8DEE7D8E25";
paths = (
{
closed = 1;
nodes = (
"234 78 OFFCURVE",
"195 117 OFFCURVE",
"195 195 CURVE SMOOTH",
"195 469 LINE",
"274 469 LINE SMOOTH",
"295 469 OFFCURVE",
"313 486 OFFCURVE",
"313 508 CURVE SMOOTH",
"313 529 OFFCURVE",
"295 547 OFFCURVE",
"274 547 CURVE SMOOTH",
"195 547 LINE",
"195 742 LINE SMOOTH",
"195 764 OFFCURVE",
"178 781 OFFCURVE",
"156 781 CURVE SMOOTH",
"135 781 OFFCURVE",
"117 764 OFFCURVE",
"117 742 CURVE SMOOTH",
"117 547 LINE",
"78 547 LINE SMOOTH",
"57 547 OFFCURVE",
"39 529 OFFCURVE",
"39 508 CURVE SMOOTH",
"39 486 OFFCURVE",
"57 469 OFFCURVE",
"78 469 CURVE SMOOTH",
"117 469 LINE",
"117 195 LINE SMOOTH",
"117 65 OFFCURVE",
"182 0 OFFCURVE",
"313 0 CURVE SMOOTH",
"334 0 OFFCURVE",
"352 18 OFFCURVE",
"352 39 CURVE SMOOTH",
"352 61 OFFCURVE",
"334 78 OFFCURVE",
"313 78 CURVE SMOOTH"
);
}
);
width = 391;
}
);
note = "\012    t\012  ";
unicode = 0074;
changeCount = 1;
},
{
color = 4;
glyphname = u;
lastChange = "2016-10-19 22:54:34 +0000";
layers = (
{
layerId = "4B9C72B8-8622-4F9C-A154-BF8DEE7D8E25";
paths = (
{
closed = 1;
nodes = (
"547 529 OFFCURVE",
"529 547 OFFCURVE",
"508 547 CURVE SMOOTH",
"486 547 OFFCURVE",
"469 529 OFFCURVE",
"469 508 CURVE SMOOTH",
"469 254 LINE SMOOTH",
"469 157 OFFCURVE",
"390 78 OFFCURVE",
"293 78 CURVE SMOOTH",
"196 78 OFFCURVE",
"117 157 OFFCURVE",
"117 254 CURVE SMOOTH",
"117 508 LINE SMOOTH",
"117 529 OFFCURVE",
"100 547 OFFCURVE",
"78 547 CURVE SMOOTH",
"57 547 OFFCURVE",
"39 529 OFFCURVE",
"39 508 CURVE SMOOTH",
"39 254 LINE SMOOTH",
"39 114 OFFCURVE",
"153 0 OFFCURVE",
"293 0 CURVE SMOOTH",
"361 0 OFFCURVE",
"420 23 OFFCURVE",
"469 71 CURVE",
"469 39 LINE SMOOTH",
"469 18 OFFCURVE",
"486 0 OFFCURVE",
"508 0 CURVE SMOOTH",
"529 0 OFFCURVE",
"547 18 OFFCURVE",
"547 39 CURVE SMOOTH",
"547 508 LINE SMOOTH"
);
}
);
width = 586;
}
);
note = "\012    u\012  ";
unicode = 0075;
changeCount = 1;
},
{
color = 4;
glyphname = v;
lastChange = "2016-10-19 22:54:34 +0000";
layers = (
{
layerId = "4B9C72B8-8622-4F9C-A154-BF8DEE7D8E25";
paths = (
{
closed = 1;
nodes = (
"323 13 OFFCURVE",
"325 16 OFFCURVE",
"327 21 CURVE SMOOTH",
"544 493 LINE SMOOTH",
"546 497 OFFCURVE",
"547 502 OFFCURVE",
"547 508 CURVE SMOOTH",
"547 529 OFFCURVE",
"529 547 OFFCURVE",
"508 547 CURVE SMOOTH",
"497 547 OFFCURVE",
"488 543 OFFCURVE",
"480 536 CURVE",
"478 533 OFFCURVE",
"475 530 OFFCURVE",
"473 525 CURVE",
"293 133 LINE",
"113 525 LINE",
"111 530 OFFCURVE",
"108 533 OFFCURVE",
"106 536 CURVE SMOOTH",
"98 543 OFFCURVE",
"89 547 OFFCURVE",
"78 547 CURVE SMOOTH",
"57 547 OFFCURVE",
"39 529 OFFCURVE",
"39 508 CURVE SMOOTH",
"39 502 OFFCURVE",
"40 497 OFFCURVE",
"42 493 CURVE SMOOTH",
"259 21 LINE SMOOTH",
"261 16 OFFCURVE",
"263 13 OFFCURVE",
"265 11 CURVE",
"272 4 OFFCURVE",
"282 0 OFFCURVE",
"293 0 CURVE SMOOTH",
"304 0 OFFCURVE",
"313 3 OFFCURVE",
"321 11 CURVE SMOOTH"
);
}
);
width = 586;
}
);
note = "\012    v\012  ";
unicode = 0076;
changeCount = 1;
},
{
color = 4;
glyphname = w;
lastChange = "2016-10-19 22:54:34 +0000";
layers = (
{
layerId = "4B9C72B8-8622-4F9C-A154-BF8DEE7D8E25";
paths = (
{
closed = 1;
nodes = (
"358 530 OFFCURVE",
"355 524 OFFCURVE",
"353 518 CURVE SMOOTH",
"234 163 LINE",
"114 524 LINE",
"112 528 OFFCURVE",
"109 532 OFFCURVE",
"106 536 CURVE SMOOTH",
"98 543 OFFCURVE",
"89 547 OFFCURVE",
"78 547 CURVE SMOOTH",
"57 547 OFFCURVE",
"39 529 OFFCURVE",
"39 508 CURVE SMOOTH",
"39 502 OFFCURVE",
"40 498 OFFCURVE",
"42 493 CURVE",
"198 25 LINE",
"200 20 OFFCURVE",
"203 15 OFFCURVE",
"207 11 CURVE SMOOTH",
"214 3 OFFCURVE",
"224 0 OFFCURVE",
"234 0 CURVE SMOOTH",
"245 0 OFFCURVE",
"254 3 OFFCURVE",
"262 11 CURVE",
"266 15 OFFCURVE",
"269 20 OFFCURVE",
"271 25 CURVE",
"391 384 LINE",
"510 25 LINE",
"512 20 OFFCURVE",
"515 15 OFFCURVE",
"520 11 CURVE SMOOTH",
"527 3 OFFCURVE",
"536 0 OFFCURVE",
"547 0 CURVE SMOOTH",
"558 0 OFFCURVE",
"567 3 OFFCURVE",
"575 11 CURVE",
"579 15 OFFCURVE",
"582 20 OFFCURVE",
"583 25 CURVE",
"739 493 LINE",
"741 498 OFFCURVE",
"742 502 OFFCURVE",
"742 508 CURVE SMOOTH",
"742 529 OFFCURVE",
"725 547 OFFCURVE",
"703 547 CURVE SMOOTH",
"692 547 OFFCURVE",
"683 543 OFFCURVE",
"676 536 CURVE SMOOTH",
"672 532 OFFCURVE",
"669 528 OFFCURVE",
"667 524 CURVE",
"547 163 LINE",
"429 518 LINE",
"425 531 OFFCURVE",
"412 547 OFFCURVE",
"391 547 CURVE SMOOTH",
"380 547 OFFCURVE",
"371 543 OFFCURVE",
"363 536 CURVE"
);
}
);
width = 781;
}
);
note = "\012    w\012  ";
unicode = 0077;
changeCount = 1;
},
{
color = 4;
glyphname = x;
lastChange = "2016-10-19 22:54:34 +0000";
layers = (
{
layerId = "4B9C72B8-8622-4F9C-A154-BF8DEE7D8E25";
paths = (
{
closed = 1;
nodes = (
"42 56 OFFCURVE",
"39 48 OFFCURVE",
"39 39 CURVE SMOOTH",
"39 18 OFFCURVE",
"57 0 OFFCURVE",
"78 0 CURVE SMOOTH",
"89 0 OFFCURVE",
"98 4 OFFCURVE",
"105 12 CURVE",
"273 213 LINE",
"441 12 LINE",
"449 4 OFFCURVE",
"458 0 OFFCURVE",
"469 0 CURVE SMOOTH",
"490 0 OFFCURVE",
"508 18 OFFCURVE",
"508 39 CURVE SMOOTH",
"508 48 OFFCURVE",
"505 56 OFFCURVE",
"500 63 CURVE SMOOTH",
"324 274 LINE",
"499 482 LINE SMOOTH",
"505 490 OFFCURVE",
"508 498 OFFCURVE",
"508 508 CURVE SMOOTH",
"508 529 OFFCURVE",
"490 547 OFFCURVE",
"469 547 CURVE SMOOTH",
"458 547 OFFCURVE",
"448 543 OFFCURVE",
"440 535 CURVE",
"273 335 LINE",
"107 535 LINE",
"99 543 OFFCURVE",
"89 547 OFFCURVE",
"78 547 CURVE SMOOTH",
"57 547 OFFCURVE",
"39 529 OFFCURVE",
"39 508 CURVE SMOOTH",
"39 498 OFFCURVE",
"42 490 OFFCURVE",
"48 482 CURVE SMOOTH",
"223 274 LINE",
"47 63 LINE SMOOTH"
);
}
);
width = 547;
}
);
note = "\012    x\012  ";
unicode = 0078;
changeCount = 1;
},
{
color = 4;
glyphname = y;
lastChange = "2016-10-19 22:54:34 +0000";
layers = (
{
layerId = "4B9C72B8-8622-4F9C-A154-BF8DEE7D8E25";
paths = (
{
closed = 1;
nodes = (
"138 -183 OFFCURVE",
"136 -189 OFFCURVE",
"136 -195 CURVE SMOOTH",
"136 -217 OFFCURVE",
"154 -234 OFFCURVE",
"175 -234 CURVE SMOOTH",
"186 -234 OFFCURVE",
"195 -230 OFFCURVE",
"203 -223 CURVE SMOOTH",
"208 -218 OFFCURVE",
"210 -214 OFFCURVE",
"212 -208 CURVE",
"503 490 LINE",
"506 495 OFFCURVE",
"508 501 OFFCURVE",
"508 508 CURVE SMOOTH",
"508 529 OFFCURVE",
"490 547 OFFCURVE",
"469 547 CURVE SMOOTH",
"447 547 OFFCURVE",
"436 531 OFFCURVE",
"432 521 CURVE SMOOTH",
"273 142 LINE",
"115 521 LINE SMOOTH",
"111 531 OFFCURVE",
"100 547 OFFCURVE",
"78 547 CURVE SMOOTH",
"57 547 OFFCURVE",
"39 529 OFFCURVE",
"39 508 CURVE SMOOTH",
"39 501 OFFCURVE",
"41 495 OFFCURVE",
"43 490 CURVE",
"231 40 LINE",
"141 -177 LINE"
);
}
);
width = 547;
}
);
note = "\012    y\012  ";
unicode = 0079;
changeCount = 1;
},
{
color = 4;
glyphname = z;
lastChange = "2016-10-19 22:54:34 +0000";
layers = (
{
layerId = "4B9C72B8-8622-4F9C-A154-BF8DEE7D8E25";
paths = (
{
closed = 1;
nodes = (
"499 482 LINE SMOOTH",
"505 490 OFFCURVE",
"508 498 OFFCURVE",
"508 508 CURVE SMOOTH",
"508 529 OFFCURVE",
"490 547 OFFCURVE",
"469 547 CURVE SMOOTH",
"78 547 LINE SMOOTH",
"57 547 OFFCURVE",
"39 529 OFFCURVE",
"39 508 CURVE SMOOTH",
"39 486 OFFCURVE",
"57 469 OFFCURVE",
"78 469 CURVE SMOOTH",
"385 469 LINE",
"47 63 LINE SMOOTH",
"42 56 OFFCURVE",
"39 48 OFFCURVE",
"39 39 CURVE SMOOTH",
"39 18 OFFCURVE",
"57 0 OFFCURVE",
"78 0 CURVE SMOOTH",
"469 0 LINE SMOOTH",
"490 0 OFFCURVE",
"508 18 OFFCURVE",
"508 39 CURVE SMOOTH",
"508 61 OFFCURVE",
"490 78 OFFCURVE",
"469 78 CURVE SMOOTH",
"161 78 LINE"
);
}
);
width = 547;
}
);
note = "\012    z\012  ";
unicode = 007A;
changeCount = 1;
},
{
color = 4;
glyphname = braceleft;
lastChange = "2016-10-19 22:54:34 +0000";
layers = (
{
layerId = "4B9C72B8-8622-4F9C-A154-BF8DEE7D8E25";
paths = (
{
closed = 1;
nodes = (
"208 781 OFFCURVE",
"156 729 OFFCURVE",
"156 625 CURVE SMOOTH",
"156 391 LINE SMOOTH",
"156 338 OFFCURVE",
"130 313 OFFCURVE",
"78 313 CURVE SMOOTH",
"57 313 OFFCURVE",
"39 295 OFFCURVE",
"39 273 CURVE SMOOTH",
"39 252 OFFCURVE",
"57 234 OFFCURVE",
"78 234 CURVE SMOOTH",
"130 234 OFFCURVE",
"156 208 OFFCURVE",
"156 156 CURVE SMOOTH",
"156 -78 LINE SMOOTH",
"156 -182 OFFCURVE",
"208 -234 OFFCURVE",
"313 -234 CURVE SMOOTH",
"334 -234 OFFCURVE",
"352 -217 OFFCURVE",
"352 -195 CURVE SMOOTH",
"352 -174 OFFCURVE",
"334 -156 OFFCURVE",
"313 -156 CURVE SMOOTH",
"260 -156 OFFCURVE",
"234 -130 OFFCURVE",
"234 -78 CURVE SMOOTH",
"234 156 LINE SMOOTH",
"234 208 OFFCURVE",
"221 248 OFFCURVE",
"195 273 CURVE",
"221 299 OFFCURVE",
"234 338 OFFCURVE",
"234 391 CURVE SMOOTH",
"234 625 LINE SMOOTH",
"234 677 OFFCURVE",
"260 703 OFFCURVE",
"313 703 CURVE SMOOTH",
"334 703 OFFCURVE",
"352 721 OFFCURVE",
"352 742 CURVE SMOOTH",
"352 764 OFFCURVE",
"334 781 OFFCURVE",
"313 781 CURVE SMOOTH"
);
}
);
width = 391;
}
);
note = "\012    braceleft\012  ";
unicode = 007B;
changeCount = 1;
},
{
color = 4;
glyphname = bar;
lastChange = "2016-10-19 22:54:34 +0000";
layers = (
{
layerId = "4B9C72B8-8622-4F9C-A154-BF8DEE7D8E25";
paths = (
{
closed = 1;
nodes = (
"156 -217 OFFCURVE",
"174 -234 OFFCURVE",
"195 -234 CURVE SMOOTH",
"217 -234 OFFCURVE",
"234 -217 OFFCURVE",
"234 -195 CURVE SMOOTH",
"234 742 LINE SMOOTH",
"234 764 OFFCURVE",
"217 781 OFFCURVE",
"195 781 CURVE SMOOTH",
"174 781 OFFCURVE",
"156 764 OFFCURVE",
"156 742 CURVE SMOOTH",
"156 -195 LINE SMOOTH"
);
}
);
width = 391;
}
);
note = "\012    bar\012  ";
unicode = 007C;
changeCount = 1;
},
{
color = 4;
glyphname = braceright;
lastChange = "2016-10-19 22:54:34 +0000";
layers = (
{
layerId = "4B9C72B8-8622-4F9C-A154-BF8DEE7D8E25";
paths = (
{
closed = 1;
nodes = (
"234 729 OFFCURVE",
"182 781 OFFCURVE",
"78 781 CURVE SMOOTH",
"57 781 OFFCURVE",
"39 764 OFFCURVE",
"39 742 CURVE SMOOTH",
"39 721 OFFCURVE",
"57 703 OFFCURVE",
"78 703 CURVE SMOOTH",
"130 703 OFFCURVE",
"156 677 OFFCURVE",
"156 625 CURVE SMOOTH",
"156 391 LINE SMOOTH",
"156 338 OFFCURVE",
"169 299 OFFCURVE",
"195 273 CURVE",
"169 248 OFFCURVE",
"156 208 OFFCURVE",
"156 156 CURVE SMOOTH",
"156 -78 LINE SMOOTH",
"156 -130 OFFCURVE",
"130 -156 OFFCURVE",
"78 -156 CURVE SMOOTH",
"57 -156 OFFCURVE",
"39 -174 OFFCURVE",
"39 -195 CURVE SMOOTH",
"39 -217 OFFCURVE",
"57 -234 OFFCURVE",
"78 -234 CURVE SMOOTH",
"182 -234 OFFCURVE",
"234 -182 OFFCURVE",
"234 -78 CURVE SMOOTH",
"234 156 LINE SMOOTH",
"234 208 OFFCURVE",
"260 234 OFFCURVE",
"313 234 CURVE SMOOTH",
"334 234 OFFCURVE",
"352 252 OFFCURVE",
"352 273 CURVE SMOOTH",
"352 295 OFFCURVE",
"334 313 OFFCURVE",
"313 313 CURVE SMOOTH",
"260 313 OFFCURVE",
"234 338 OFFCURVE",
"234 391 CURVE SMOOTH",
"234 625 LINE SMOOTH"
);
}
);
width = 391;
}
);
note = "\012    braceright\012  ";
unicode = 007D;
changeCount = 1;
},
{
color = 4;
glyphname = asciitilde;
lastChange = "2016-10-19 22:54:34 +0000";
layers = (
{
layerId = "4B9C72B8-8622-4F9C-A154-BF8DEE7D8E25";
paths = (
{
closed = 1;
nodes = (
"274 347 OFFCURVE",
"290 353 OFFCURVE",
"309 353 CURVE SMOOTH",
"330 353 OFFCURVE",
"349 345 OFFCURVE",
"364 329 CURVE",
"372 322 OFFCURVE",
"381 318 OFFCURVE",
"391 318 CURVE SMOOTH",
"413 318 OFFCURVE",
"430 336 OFFCURVE",
"430 357 CURVE SMOOTH",
"430 368 OFFCURVE",
"427 377 OFFCURVE",
"419 385 CURVE SMOOTH",
"389 416 OFFCURVE",
"352 431 OFFCURVE",
"309 431 CURVE SMOOTH",
"269 431 OFFCURVE",
"234 417 OFFCURVE",
"205 392 CURVE",
"191 380 OFFCURVE",
"174 375 OFFCURVE",
"156 375 CURVE SMOOTH",
"135 375 OFFCURVE",
"116 382 OFFCURVE",
"101 398 CURVE",
"93 405 OFFCURVE",
"84 409 OFFCURVE",
"74 409 CURVE SMOOTH",
"52 409 OFFCURVE",
"35 391 OFFCURVE",
"35 370 CURVE SMOOTH",
"35 359 OFFCURVE",
"38 350 OFFCURVE",
"45 342 CURVE SMOOTH",
"76 312 OFFCURVE",
"113 296 OFFCURVE",
"156 296 CURVE SMOOTH",
"196 296 OFFCURVE",
"230 310 OFFCURVE",
"260 335 CURVE"
);
}
);
width = 469;
}
);
note = "\012    asciitilde\012  ";
unicode = 007E;
changeCount = 1;
},
{
color = 4;
glyphname = exclamdown;
lastChange = "2016-10-19 22:54:34 +0000";
layers = (
{
layerId = "4B9C72B8-8622-4F9C-A154-BF8DEE7D8E25";
paths = (
{
closed = 1;
nodes = (
"130 429 OFFCURVE",
"156 455 OFFCURVE",
"156 488 CURVE SMOOTH",
"156 521 OFFCURVE",
"130 546 OFFCURVE",
"98 546 CURVE SMOOTH",
"65 546 OFFCURVE",
"39 521 OFFCURVE",
"39 488 CURVE SMOOTH",
"39 455 OFFCURVE",
"65 429 OFFCURVE",
"98 429 CURVE SMOOTH"
);
},
{
closed = 1;
nodes = (
"59 -217 OFFCURVE",
"76 -234 OFFCURVE",
"98 -234 CURVE SMOOTH",
"119 -234 OFFCURVE",
"137 -217 OFFCURVE",
"137 -195 CURVE SMOOTH",
"137 352 LINE SMOOTH",
"137 373 OFFCURVE",
"119 390 OFFCURVE",
"98 390 CURVE SMOOTH",
"76 390 OFFCURVE",
"59 373 OFFCURVE",
"59 352 CURVE SMOOTH",
"59 -195 LINE SMOOTH"
);
}
);
width = 195;
}
);
note = "\012    exclamdown\012  ";
unicode = 00A1;
changeCount = 1;
},
{
color = 4;
glyphname = cent;
lastChange = "2016-10-19 22:54:34 +0000";
layers = (
{
layerId = "4B9C72B8-8622-4F9C-A154-BF8DEE7D8E25";
paths = (
{
closed = 1;
nodes = (
"408 447 OFFCURVE",
"427 436 OFFCURVE",
"444 420 CURVE",
"451 415 OFFCURVE",
"459 412 OFFCURVE",
"469 412 CURVE SMOOTH",
"490 412 OFFCURVE",
"508 429 OFFCURVE",
"508 451 CURVE SMOOTH",
"508 463 OFFCURVE",
"503 473 OFFCURVE",
"494 481 CURVE SMOOTH",
"470 501 OFFCURVE",
"445 517 OFFCURVE",
"417 528 CURVE",
"466 650 LINE SMOOTH",
"474 670 OFFCURVE",
"464 693 OFFCURVE",
"444 701 CURVE",
"439 702 OFFCURVE",
"435 703 OFFCURVE",
"430 703 CURVE SMOOTH",
"424 703 OFFCURVE",
"419 702 OFFCURVE",
"415 700 CURVE SMOOTH",
"404 696 OFFCURVE",
"397 689 OFFCURVE",
"393 679 CURVE SMOOTH",
"340 546 LINE",
"332 546 OFFCURVE",
"324 547 OFFCURVE",
"316 547 CURVE SMOOTH",
"165 547 OFFCURVE",
"42 424 OFFCURVE",
"42 273 CURVE SMOOTH",
"42 198 OFFCURVE",
"69 133 OFFCURVE",
"123 80 CURVE SMOOTH",
"130 73 OFFCURVE",
"138 65 OFFCURVE",
"146 59 CURVE",
"81 -103 LINE SMOOTH",
"73 -123 OFFCURVE",
"83 -146 OFFCURVE",
"103 -153 CURVE SMOOTH",
"108 -155 OFFCURVE",
"113 -156 OFFCURVE",
"118 -156 CURVE SMOOTH",
"123 -156 OFFCURVE",
"128 -155 OFFCURVE",
"133 -153 CURVE SMOOTH",
"143 -148 OFFCURVE",
"150 -142 OFFCURVE",
"154 -131 CURVE SMOOTH",
"214 19 LINE",
"245 6 OFFCURVE",
"279 0 OFFCURVE",
"316 0 CURVE SMOOTH",
"384 0 OFFCURVE",
"444 22 OFFCURVE",
"494 66 CURVE",
"502 74 OFFCURVE",
"506 84 OFFCURVE",
"506 95 CURVE SMOOTH",
"506 116 OFFCURVE",
"489 134 OFFCURVE",
"467 134 CURVE SMOOTH",
"458 134 OFFCURVE",
"450 131 OFFCURVE",
"443 126 CURVE",
"407 94 OFFCURVE",
"365 78 OFFCURVE",
"316 78 CURVE SMOOTH",
"290 78 OFFCURVE",
"265 83 OFFCURVE",
"243 92 CURVE",
"388 455 LINE"
);
},
{
closed = 1;
nodes = (
"139 174 OFFCURVE",
"121 220 OFFCURVE",
"121 273 CURVE SMOOTH",
"121 381 OFFCURVE",
"207 465 OFFCURVE",
"309 469 CURVE",
"176 137 LINE"
);
}
);
width = 547;
}
);
note = "\012    cent\012  ";
unicode = 00A2;
changeCount = 1;
},
{
color = 4;
glyphname = sterling;
lastChange = "2016-10-19 22:54:34 +0000";
layers = (
{
layerId = "4B9C72B8-8622-4F9C-A154-BF8DEE7D8E25";
paths = (
{
closed = 1;
nodes = (
"401 0 OFFCURVE",
"411 4 OFFCURVE",
"418 12 CURVE SMOOTH",
"422 15 OFFCURVE",
"425 19 OFFCURVE",
"427 23 CURVE",
"464 99 LINE",
"467 104 OFFCURVE",
"469 110 OFFCURVE",
"469 117 CURVE SMOOTH",
"469 139 OFFCURVE",
"451 156 OFFCURVE",
"430 156 CURVE SMOOTH",
"414 156 OFFCURVE",
"402 150 OFFCURVE",
"396 137 CURVE SMOOTH",
"366 78 LINE",
"174 78 LINE",
"202 159 OFFCURVE",
"215 237 OFFCURVE",
"214 313 CURVE",
"352 313 LINE SMOOTH",
"373 313 OFFCURVE",
"391 330 OFFCURVE",
"391 352 CURVE SMOOTH",
"391 373 OFFCURVE",
"373 391 OFFCURVE",
"352 391 CURVE SMOOTH",
"208 391 LINE",
"201 442 OFFCURVE",
"187 493 OFFCURVE",
"166 542 CURVE SMOOTH",
"159 557 OFFCURVE",
"156 571 OFFCURVE",
"156 586 CURVE SMOOTH",
"156 650 OFFCURVE",
"209 703 OFFCURVE",
"273 703 CURVE SMOOTH",
"306 703 OFFCURVE",
"333 692 OFFCURVE",
"356 669 CURVE SMOOTH",
"365 660 OFFCURVE",
"373 651 OFFCURVE",
"378 643 CURVE",
"384 635 OFFCURVE",
"393 631 OFFCURVE",
"405 631 CURVE SMOOTH",
"427 631 OFFCURVE",
"444 648 OFFCURVE",
"444 670 CURVE SMOOTH",
"444 688 OFFCURVE",
"431 705 OFFCURVE",
"412 724 CURVE SMOOTH",
"374 762 OFFCURVE",
"328 781 OFFCURVE",
"273 781 CURVE SMOOTH",
"166 781 OFFCURVE",
"78 694 OFFCURVE",
"78 586 CURVE SMOOTH",
"78 562 OFFCURVE",
"83 537 OFFCURVE",
"93 513 CURVE",
"93 513 LINE",
"110 473 OFFCURVE",
"122 432 OFFCURVE",
"129 391 CURVE",
"78 391 LINE SMOOTH",
"57 391 OFFCURVE",
"39 373 OFFCURVE",
"39 352 CURVE SMOOTH",
"39 330 OFFCURVE",
"57 313 OFFCURVE",
"78 313 CURVE SMOOTH",
"136 313 LINE",
"138 229 OFFCURVE",
"119 144 OFFCURVE",
"81 55 CURVE SMOOTH",
"79 50 OFFCURVE",
"78 44 OFFCURVE",
"78 39 CURVE SMOOTH",
"78 18 OFFCURVE",
"96 0 OFFCURVE",
"117 0 CURVE SMOOTH",
"391 0 LINE SMOOTH"
);
}
);
width = 508;
}
);
note = "\012    sterling\012  ";
unicode = 00A3;
changeCount = 1;
},
{
color = 4;
glyphname = currency;
lastChange = "2016-10-19 22:54:34 +0000";
layers = (
{
layerId = "4B9C72B8-8622-4F9C-A154-BF8DEE7D8E25";
paths = (
{
closed = 1;
nodes = (
"290 516 OFFCURVE",
"263 522 OFFCURVE",
"234 522 CURVE SMOOTH",
"205 522 OFFCURVE",
"177 515 OFFCURVE",
"153 500 CURVE",
"120 537 LINE",
"112 543 OFFCURVE",
"103 547 OFFCURVE",
"93 547 CURVE SMOOTH",
"71 547 OFFCURVE",
"54 529 OFFCURVE",
"54 508 CURVE SMOOTH",
"54 497 OFFCURVE",
"58 488 OFFCURVE",
"65 480 CURVE",
"99 445 LINE",
"85 421 OFFCURVE",
"78 395 OFFCURVE",
"78 366 CURVE SMOOTH",
"78 336 OFFCURVE",
"85 309 OFFCURVE",
"101 285 CURVE",
"65 252 LINE",
"58 245 OFFCURVE",
"54 235 OFFCURVE",
"54 225 CURVE SMOOTH",
"54 203 OFFCURVE",
"71 186 OFFCURVE",
"93 186 CURVE SMOOTH",
"103 186 OFFCURVE",
"111 189 OFFCURVE",
"119 195 CURVE",
"156 230 LINE",
"179 217 OFFCURVE",
"206 210 OFFCURVE",
"234 210 CURVE SMOOTH",
"264 210 OFFCURVE",
"292 217 OFFCURVE",
"315 232 CURVE",
"349 196 LINE",
"350 196 LINE",
"357 189 OFFCURVE",
"366 186 OFFCURVE",
"376 186 CURVE SMOOTH",
"397 186 OFFCURVE",
"415 203 OFFCURVE",
"415 225 CURVE SMOOTH",
"415 235 OFFCURVE",
"411 245 OFFCURVE",
"404 252 CURVE SMOOTH",
"370 288 LINE",
"384 311 OFFCURVE",
"391 337 OFFCURVE",
"391 366 CURVE SMOOTH",
"391 396 OFFCURVE",
"383 423 OFFCURVE",
"369 447 CURVE",
"403 479 LINE",
"411 488 OFFCURVE",
"415 497 OFFCURVE",
"415 508 CURVE SMOOTH",
"415 529 OFFCURVE",
"397 547 OFFCURVE",
"376 547 CURVE SMOOTH",
"365 547 OFFCURVE",
"356 543 OFFCURVE",
"349 536 CURVE SMOOTH",
"313 502 LINE"
);
},
{
closed = 1;
nodes = (
"277 444 OFFCURVE",
"313 409 OFFCURVE",
"313 366 CURVE SMOOTH",
"313 323 OFFCURVE",
"277 288 OFFCURVE",
"234 288 CURVE SMOOTH",
"191 288 OFFCURVE",
"156 323 OFFCURVE",
"156 366 CURVE SMOOTH",
"156 409 OFFCURVE",
"191 444 OFFCURVE",
"234 444 CURVE SMOOTH"
);
}
);
width = 469;
}
);
note = "\012    currency\012  ";
unicode = 00A4;
changeCount = 1;
},
{
color = 4;
glyphname = yen;
lastChange = "2016-10-19 22:54:34 +0000";
layers = (
{
layerId = "4B9C72B8-8622-4F9C-A154-BF8DEE7D8E25";
paths = (
{
closed = 1;
nodes = (
"273 379 LINE",
"273 313 LINE",
"78 313 LINE SMOOTH",
"57 313 OFFCURVE",
"39 295 OFFCURVE",
"39 273 CURVE SMOOTH",
"39 252 OFFCURVE",
"57 234 OFFCURVE",
"78 234 CURVE SMOOTH",
"273 234 LINE",
"273 39 LINE SMOOTH",
"273 18 OFFCURVE",
"291 0 OFFCURVE",
"313 0 CURVE SMOOTH",
"334 0 OFFCURVE",
"352 18 OFFCURVE",
"352 39 CURVE SMOOTH",
"352 234 LINE",
"547 234 LINE SMOOTH",
"568 234 OFFCURVE",
"586 252 OFFCURVE",
"586 273 CURVE SMOOTH",
"586 295 OFFCURVE",
"568 313 OFFCURVE",
"547 313 CURVE SMOOTH",
"352 313 LINE",
"352 379 LINE",
"385 430 LINE",
"547 430 LINE SMOOTH",
"568 430 OFFCURVE",
"586 447 OFFCURVE",
"586 469 CURVE SMOOTH",
"586 490 OFFCURVE",
"568 508 OFFCURVE",
"547 508 CURVE SMOOTH",
"438 508 LINE",
"580 720 LINE SMOOTH",
"584 727 OFFCURVE",
"586 734 OFFCURVE",
"586 742 CURVE SMOOTH",
"586 764 OFFCURVE",
"568 781 OFFCURVE",
"547 781 CURVE SMOOTH",
"534 781 OFFCURVE",
"523 776 OFFCURVE",
"515 765 CURVE",
"313 461 LINE",
"110 765 LINE",
"102 776 OFFCURVE",
"91 781 OFFCURVE",
"78 781 CURVE SMOOTH",
"57 781 OFFCURVE",
"39 764 OFFCURVE",
"39 742 CURVE SMOOTH",
"39 734 OFFCURVE",
"41 727 OFFCURVE",
"45 720 CURVE SMOOTH",
"188 508 LINE",
"78 508 LINE SMOOTH",
"57 508 OFFCURVE",
"39 490 OFFCURVE",
"39 469 CURVE SMOOTH",
"39 447 OFFCURVE",
"57 430 OFFCURVE",
"78 430 CURVE SMOOTH",
"240 430 LINE"
);
}
);
width = 625;
}
);
note = "\012    yen\012  ";
unicode = 00A5;
changeCount = 1;
},
{
color = 4;
glyphname = brokenbar;
lastChange = "2016-10-19 22:54:34 +0000";
layers = (
{
layerId = "4B9C72B8-8622-4F9C-A154-BF8DEE7D8E25";
paths = (
{
closed = 1;
nodes = (
"78 447 OFFCURVE",
"96 430 OFFCURVE",
"117 430 CURVE SMOOTH",
"139 430 OFFCURVE",
"156 447 OFFCURVE",
"156 469 CURVE SMOOTH",
"156 820 LINE SMOOTH",
"156 842 OFFCURVE",
"139 859 OFFCURVE",
"117 859 CURVE SMOOTH",
"96 859 OFFCURVE",
"78 842 OFFCURVE",
"78 820 CURVE SMOOTH",
"78 469 LINE SMOOTH"
);
},
{
closed = 1;
nodes = (
"156 178 OFFCURVE",
"139 195 OFFCURVE",
"117 195 CURVE SMOOTH",
"96 195 OFFCURVE",
"78 178 OFFCURVE",
"78 156 CURVE SMOOTH",
"78 -195 LINE SMOOTH",
"78 -217 OFFCURVE",
"96 -234 OFFCURVE",
"117 -234 CURVE SMOOTH",
"139 -234 OFFCURVE",
"156 -217 OFFCURVE",
"156 -195 CURVE SMOOTH",
"156 156 LINE SMOOTH"
);
}
);
width = 234;
}
);
note = "\012    brokenbar\012  ";
unicode = 00A6;
changeCount = 1;
},
{
color = 4;
glyphname = section;
lastChange = "2016-10-19 22:54:34 +0000";
layers = (
{
layerId = "4B9C72B8-8622-4F9C-A154-BF8DEE7D8E25";
paths = (
{
closed = 1;
nodes = (
"299 78 OFFCURVE",
"352 25 OFFCURVE",
"352 -39 CURVE SMOOTH",
"352 -104 OFFCURVE",
"299 -156 OFFCURVE",
"234 -156 CURVE SMOOTH",
"170 -156 OFFCURVE",
"117 -104 OFFCURVE",
"117 -39 CURVE SMOOTH",
"117 -18 OFFCURVE",
"100 0 OFFCURVE",
"78 0 CURVE SMOOTH",
"57 0 OFFCURVE",
"39 -18 OFFCURVE",
"39 -39 CURVE SMOOTH",
"39 -147 OFFCURVE",
"126 -234 OFFCURVE",
"234 -234 CURVE SMOOTH",
"342 -234 OFFCURVE",
"430 -147 OFFCURVE",
"430 -39 CURVE SMOOTH",
"430 15 OFFCURVE",
"411 61 OFFCURVE",
"373 99 CURVE SMOOTH",
"366 105 OFFCURVE",
"359 112 OFFCURVE",
"352 117 CURVE",
"359 123 OFFCURVE",
"366 129 OFFCURVE",
"373 135 CURVE SMOOTH",
"411 173 OFFCURVE",
"430 219 OFFCURVE",
"430 273 CURVE SMOOTH",
"430 381 OFFCURVE",
"342 469 OFFCURVE",
"234 469 CURVE SMOOTH",
"170 469 OFFCURVE",
"117 521 OFFCURVE",
"117 586 CURVE SMOOTH",
"117 650 OFFCURVE",
"170 703 OFFCURVE",
"234 703 CURVE SMOOTH",
"299 703 OFFCURVE",
"352 650 OFFCURVE",
"352 586 CURVE SMOOTH",
"352 564 OFFCURVE",
"369 547 OFFCURVE",
"391 547 CURVE SMOOTH",
"412 547 OFFCURVE",
"430 564 OFFCURVE",
"430 586 CURVE SMOOTH",
"430 694 OFFCURVE",
"342 781 OFFCURVE",
"234 781 CURVE SMOOTH",
"126 781 OFFCURVE",
"39 694 OFFCURVE",
"39 586 CURVE SMOOTH",
"39 532 OFFCURVE",
"58 486 OFFCURVE",
"96 448 CURVE SMOOTH",
"103 441 OFFCURVE",
"109 435 OFFCURVE",
"117 430 CURVE",
"109 424 OFFCURVE",
"103 418 OFFCURVE",
"96 412 CURVE SMOOTH",
"58 374 OFFCURVE",
"39 328 OFFCURVE",
"39 273 CURVE SMOOTH",
"39 166 OFFCURVE",
"126 78 OFFCURVE",
"234 78 CURVE SMOOTH"
);
},
{
closed = 1;
nodes = (
"299 391 OFFCURVE",
"352 338 OFFCURVE",
"352 273 CURVE SMOOTH",
"352 209 OFFCURVE",
"299 156 OFFCURVE",
"234 156 CURVE SMOOTH",
"170 156 OFFCURVE",
"117 209 OFFCURVE",
"117 273 CURVE SMOOTH",
"117 338 OFFCURVE",
"170 391 OFFCURVE",
"234 391 CURVE SMOOTH"
);
}
);
width = 469;
}
);
note = "\012    section\012  ";
unicode = 00A7;
changeCount = 1;
},
{
color = 4;
glyphname = dieresis;
lastChange = "2016-10-19 22:54:34 +0000";
layers = (
{
layerId = "4B9C72B8-8622-4F9C-A154-BF8DEE7D8E25";
paths = (
{
closed = 1;
nodes = (
"166 691 OFFCURVE",
"144 713 OFFCURVE",
"117 713 CURVE SMOOTH",
"90 713 OFFCURVE",
"68 691 OFFCURVE",
"68 664 CURVE SMOOTH",
"68 637 OFFCURVE",
"90 615 OFFCURVE",
"117 615 CURVE SMOOTH",
"144 615 OFFCURVE",
"166 637 OFFCURVE",
"166 664 CURVE SMOOTH"
);
},
{
closed = 1;
nodes = (
"400 691 OFFCURVE",
"378 713 OFFCURVE",
"351 713 CURVE SMOOTH",
"324 713 OFFCURVE",
"302 691 OFFCURVE",
"302 664 CURVE SMOOTH",
"302 637 OFFCURVE",
"324 615 OFFCURVE",
"351 615 CURVE SMOOTH",
"378 615 OFFCURVE",
"400 637 OFFCURVE",
"400 664 CURVE SMOOTH"
);
}
);
width = 469;
}
);
note = "\012    dieresis\012  ";
unicode = 00A8;
changeCount = 1;
},
{
color = 4;
glyphname = copyright;
lastChange = "2016-10-19 22:54:34 +0000";
layers = (
{
layerId = "4B9C72B8-8622-4F9C-A154-BF8DEE7D8E25";
paths = (
{
closed = 1;
nodes = (
"818 604 OFFCURVE",
"644 779 OFFCURVE",
"429 779 CURVE SMOOTH",
"213 779 OFFCURVE",
"39 604 OFFCURVE",
"39 390 CURVE SMOOTH",
"39 174 OFFCURVE",
"213 0 OFFCURVE",
"429 0 CURVE SMOOTH",
"644 0 OFFCURVE",
"818 174 OFFCURVE",
"818 390 CURVE SMOOTH"
);
},
{
closed = 1;
nodes = (
"610 719 OFFCURVE",
"758 571 OFFCURVE",
"758 390 CURVE SMOOTH",
"758 208 OFFCURVE",
"610 60 OFFCURVE",
"429 60 CURVE SMOOTH",
"247 60 OFFCURVE",
"99 208 OFFCURVE",
"99 390 CURVE SMOOTH",
"99 571 OFFCURVE",
"247 719 OFFCURVE",
"429 719 CURVE SMOOTH"
);
},
{
closed = 1;
nodes = (
"572 251 OFFCURVE",
"564 249 OFFCURVE",
"557 243 CURVE",
"521 211 OFFCURVE",
"479 195 OFFCURVE",
"430 195 CURVE SMOOTH",
"322 195 OFFCURVE",
"234 283 OFFCURVE",
"234 391 CURVE SMOOTH",
"234 499 OFFCURVE",
"322 586 OFFCURVE",
"430 586 CURVE SMOOTH",
"479 586 OFFCURVE",
"521 570 OFFCURVE",
"558 538 CURVE",
"565 532 OFFCURVE",
"573 529 OFFCURVE",
"583 529 CURVE SMOOTH",
"604 529 OFFCURVE",
"622 546 OFFCURVE",
"622 568 CURVE SMOOTH",
"622 580 OFFCURVE",
"617 590 OFFCURVE",
"608 598 CURVE SMOOTH",
"558 642 OFFCURVE",
"498 664 OFFCURVE",
"430 664 CURVE SMOOTH",
"279 664 OFFCURVE",
"156 542 OFFCURVE",
"156 391 CURVE SMOOTH",
"156 240 OFFCURVE",
"279 117 OFFCURVE",
"430 117 CURVE SMOOTH",
"498 117 OFFCURVE",
"558 139 OFFCURVE",
"608 183 CURVE",
"616 191 OFFCURVE",
"620 201 OFFCURVE",
"620 212 CURVE SMOOTH",
"620 233 OFFCURVE",
"603 251 OFFCURVE",
"581 251 CURVE SMOOTH"
);
}
);
width = 859;
}
);
note = "\012    copyright\012  ";
unicode = 00A9;
changeCount = 1;
},
{
color = 4;
glyphname = ordfeminine;
lastChange = "2016-10-19 22:54:34 +0000";
layers = (
{
layerId = "4B9C72B8-8622-4F9C-A154-BF8DEE7D8E25";
paths = (
{
closed = 1;
nodes = (
"352 408 OFFCURVE",
"369 391 OFFCURVE",
"391 391 CURVE SMOOTH",
"412 391 OFFCURVE",
"430 408 OFFCURVE",
"430 430 CURVE SMOOTH",
"430 586 LINE SMOOTH",
"430 694 OFFCURVE",
"342 781 OFFCURVE",
"234 781 CURVE SMOOTH",
"126 781 OFFCURVE",
"39 694 OFFCURVE",
"39 586 CURVE SMOOTH",
"39 478 OFFCURVE",
"126 391 OFFCURVE",
"234 391 CURVE SMOOTH",
"279 391 OFFCURVE",
"318 403 OFFCURVE",
"352 429 CURVE"
);
},
{
closed = 1;
nodes = (
"299 703 OFFCURVE",
"352 650 OFFCURVE",
"352 586 CURVE SMOOTH",
"352 521 OFFCURVE",
"299 469 OFFCURVE",
"234 469 CURVE SMOOTH",
"170 469 OFFCURVE",
"117 521 OFFCURVE",
"117 586 CURVE SMOOTH",
"117 650 OFFCURVE",
"170 703 OFFCURVE",
"234 703 CURVE SMOOTH"
);
}
);
width = 469;
}
);
note = "\012    ordfeminine\012  ";
unicode = 00AA;
changeCount = 1;
},
{
color = 4;
glyphname = logicalnot;
lastChange = "2016-10-19 22:54:34 +0000";
layers = (
{
layerId = "4B9C72B8-8622-4F9C-A154-BF8DEE7D8E25";
paths = (
{
closed = 1;
nodes = (
"430 352 LINE SMOOTH",
"430 330 OFFCURVE",
"447 313 OFFCURVE",
"469 313 CURVE SMOOTH",
"490 313 OFFCURVE",
"508 330 OFFCURVE",
"508 352 CURVE SMOOTH",
"508 508 LINE SMOOTH",
"508 529 OFFCURVE",
"490 547 OFFCURVE",
"469 547 CURVE SMOOTH",
"78 547 LINE SMOOTH",
"57 547 OFFCURVE",
"39 529 OFFCURVE",
"39 508 CURVE SMOOTH",
"39 486 OFFCURVE",
"57 469 OFFCURVE",
"78 469 CURVE SMOOTH",
"430 469 LINE"
);
}
);
width = 547;
}
);
note = "\012    logicalnot\012  ";
unicode = 00AC;
changeCount = 1;
},
{
color = 4;
glyphname = registered;
lastChange = "2016-10-19 22:54:34 +0000";
layers = (
{
layerId = "4B9C72B8-8622-4F9C-A154-BF8DEE7D8E25";
paths = (
{
closed = 1;
nodes = (
"818 604 OFFCURVE",
"644 779 OFFCURVE",
"429 779 CURVE SMOOTH",
"213 779 OFFCURVE",
"39 604 OFFCURVE",
"39 390 CURVE SMOOTH",
"39 174 OFFCURVE",
"213 0 OFFCURVE",
"429 0 CURVE SMOOTH",
"644 0 OFFCURVE",
"818 174 OFFCURVE",
"818 390 CURVE SMOOTH"
);
},
{
closed = 1;
nodes = (
"610 719 OFFCURVE",
"758 571 OFFCURVE",
"758 390 CURVE SMOOTH",
"758 208 OFFCURVE",
"610 60 OFFCURVE",
"429 60 CURVE SMOOTH",
"247 60 OFFCURVE",
"99 208 OFFCURVE",
"99 390 CURVE SMOOTH",
"99 571 OFFCURVE",
"247 719 OFFCURVE",
"429 719 CURVE SMOOTH"
);
},
{
closed = 1;
nodes = (
"285 646 OFFCURVE",
"273 634 OFFCURVE",
"273 620 CURVE SMOOTH",
"273 159 LINE SMOOTH",
"273 145 OFFCURVE",
"285 133 OFFCURVE",
"299 133 CURVE SMOOTH",
"313 133 OFFCURVE",
"325 145 OFFCURVE",
"325 159 CURVE SMOOTH",
"325 338 LINE",
"427 338 LINE SMOOTH",
"431 338 OFFCURVE",
"435 338 OFFCURVE",
"438 339 CURVE",
"559 146 LINE SMOOTH",
"564 138 OFFCURVE",
"572 133 OFFCURVE",
"581 133 CURVE SMOOTH",
"595 133 OFFCURVE",
"606 145 OFFCURVE",
"606 159 CURVE SMOOTH",
"606 165 OFFCURVE",
"605 169 OFFCURVE",
"602 173 CURVE",
"491 352 LINE",
"507 359 OFFCURVE",
"522 370 OFFCURVE",
"536 383 CURVE SMOOTH",
"566 413 OFFCURVE",
"581 450 OFFCURVE",
"581 492 CURVE SMOOTH",
"581 577 OFFCURVE",
"512 646 OFFCURVE",
"427 646 CURVE SMOOTH",
"299 646 LINE SMOOTH"
);
},
{
closed = 1;
nodes = (
"484 594 OFFCURVE",
"530 549 OFFCURVE",
"530 492 CURVE SMOOTH",
"530 435 OFFCURVE",
"484 390 OFFCURVE",
"427 390 CURVE SMOOTH",
"325 390 LINE",
"325 594 LINE",
"427 594 LINE SMOOTH"
);
}
);
width = 859;
}
);
note = "\012    registered\012  ";
unicode = 00AE;
changeCount = 1;
},
{
color = 4;
glyphname = macron;
lastChange = "2016-10-19 22:54:34 +0000";
layers = (
{
layerId = "4B9C72B8-8622-4F9C-A154-BF8DEE7D8E25";
paths = (
{
closed = 1;
nodes = (
"490 859 OFFCURVE",
"508 877 OFFCURVE",
"508 898 CURVE SMOOTH",
"508 920 OFFCURVE",
"490 938 OFFCURVE",
"469 938 CURVE SMOOTH",
"78 938 LINE SMOOTH",
"57 938 OFFCURVE",
"39 920 OFFCURVE",
"39 898 CURVE SMOOTH",
"39 877 OFFCURVE",
"57 859 OFFCURVE",
"78 859 CURVE SMOOTH",
"469 859 LINE SMOOTH"
);
}
);
width = 547;
}
);
note = "\012    macron\012  ";
unicode = 00AF;
changeCount = 1;
},
{
color = 4;
glyphname = degree;
lastChange = "2016-10-19 22:54:34 +0000";
layers = (
{
layerId = "4B9C72B8-8622-4F9C-A154-BF8DEE7D8E25";
paths = (
{
closed = 1;
nodes = (
"430 694 OFFCURVE",
"342 781 OFFCURVE",
"234 781 CURVE SMOOTH",
"126 781 OFFCURVE",
"39 694 OFFCURVE",
"39 586 CURVE SMOOTH",
"39 478 OFFCURVE",
"126 391 OFFCURVE",
"234 391 CURVE SMOOTH",
"342 391 OFFCURVE",
"430 478 OFFCURVE",
"430 586 CURVE SMOOTH"
);
},
{
closed = 1;
nodes = (
"299 703 OFFCURVE",
"352 650 OFFCURVE",
"352 586 CURVE SMOOTH",
"352 521 OFFCURVE",
"299 469 OFFCURVE",
"234 469 CURVE SMOOTH",
"170 469 OFFCURVE",
"117 521 OFFCURVE",
"117 586 CURVE SMOOTH",
"117 650 OFFCURVE",
"170 703 OFFCURVE",
"234 703 CURVE SMOOTH"
);
}
);
width = 469;
}
);
note = "\012    degree\012  ";
unicode = 00B0;
changeCount = 1;
},
{
color = 4;
glyphname = plusminus;
lastChange = "2016-10-19 22:54:34 +0000";
layers = (
{
layerId = "4B9C72B8-8622-4F9C-A154-BF8DEE7D8E25";
paths = (
{
closed = 1;
nodes = (
"78 430 LINE SMOOTH",
"57 430 OFFCURVE",
"39 412 OFFCURVE",
"39 391 CURVE SMOOTH",
"39 369 OFFCURVE",
"57 352 OFFCURVE",
"78 352 CURVE SMOOTH",
"234 352 LINE",
"234 195 LINE SMOOTH",
"234 174 OFFCURVE",
"252 156 OFFCURVE",
"273 156 CURVE SMOOTH",
"295 156 OFFCURVE",
"313 174 OFFCURVE",
"313 195 CURVE SMOOTH",
"313 352 LINE",
"469 352 LINE SMOOTH",
"490 352 OFFCURVE",
"508 369 OFFCURVE",
"508 391 CURVE SMOOTH",
"508 412 OFFCURVE",
"490 430 OFFCURVE",
"469 430 CURVE SMOOTH",
"313 430 LINE",
"313 586 LINE SMOOTH",
"313 607 OFFCURVE",
"295 625 OFFCURVE",
"273 625 CURVE SMOOTH",
"252 625 OFFCURVE",
"234 607 OFFCURVE",
"234 586 CURVE SMOOTH",
"234 430 LINE"
);
},
{
closed = 1;
nodes = (
"490 0 OFFCURVE",
"508 18 OFFCURVE",
"508 39 CURVE SMOOTH",
"508 61 OFFCURVE",
"490 78 OFFCURVE",
"469 78 CURVE SMOOTH",
"78 78 LINE SMOOTH",
"57 78 OFFCURVE",
"39 61 OFFCURVE",
"39 39 CURVE SMOOTH",
"39 18 OFFCURVE",
"57 0 OFFCURVE",
"78 0 CURVE SMOOTH",
"469 0 LINE SMOOTH"
);
}
);
width = 547;
}
);
note = "\012    plusminus\012  ";
unicode = 00B1;
changeCount = 1;
},
{
color = 4;
glyphname = acute;
lastChange = "2016-10-19 22:54:34 +0000";
layers = (
{
layerId = "4B9C72B8-8622-4F9C-A154-BF8DEE7D8E25";
paths = (
{
closed = 1;
nodes = (
"231 723 OFFCURVE",
"234 732 OFFCURVE",
"234 742 CURVE SMOOTH",
"234 764 OFFCURVE",
"217 781 OFFCURVE",
"195 781 CURVE SMOOTH",
"185 781 OFFCURVE",
"175 777 OFFCURVE",
"167 770 CURVE SMOOTH",
"49 651 LINE",
"42 644 OFFCURVE",
"39 635 OFFCURVE",
"39 625 CURVE SMOOTH",
"39 604 OFFCURVE",
"57 586 OFFCURVE",
"78 586 CURVE SMOOTH",
"88 586 OFFCURVE",
"98 589 OFFCURVE",
"105 596 CURVE SMOOTH",
"224 715 LINE SMOOTH"
);
}
);
width = 273;
}
);
note = "\012    acute\012  ";
unicode = 00B4;
changeCount = 1;
},
{
color = 4;
glyphname = paragraph;
lastChange = "2016-10-19 22:54:34 +0000";
layers = (
{
layerId = "4B9C72B8-8622-4F9C-A154-BF8DEE7D8E25";
paths = (
{
closed = 1;
nodes = (
"490 703 OFFCURVE",
"508 721 OFFCURVE",
"508 742 CURVE SMOOTH",
"508 764 OFFCURVE",
"490 781 OFFCURVE",
"469 781 CURVE SMOOTH",
"234 781 LINE SMOOTH",
"126 781 OFFCURVE",
"39 694 OFFCURVE",
"39 586 CURVE SMOOTH",
"39 478 OFFCURVE",
"126 391 OFFCURVE",
"234 391 CURVE",
"234 39 LINE SMOOTH",
"234 18 OFFCURVE",
"252 0 OFFCURVE",
"273 0 CURVE SMOOTH",
"295 0 OFFCURVE",
"313 18 OFFCURVE",
"313 39 CURVE SMOOTH",
"313 703 LINE",
"391 703 LINE",
"391 39 LINE SMOOTH",
"391 18 OFFCURVE",
"408 0 OFFCURVE",
"430 0 CURVE SMOOTH",
"451 0 OFFCURVE",
"469 18 OFFCURVE",
"469 39 CURVE SMOOTH",
"469 703 LINE"
);
}
);
width = 547;
}
);
note = "\012    paragraph\012  ";
unicode = 00B6;
changeCount = 1;
},
{
color = 4;
glyphname = periodcentered;
lastChange = "2016-10-19 22:54:34 +0000";
layers = (
{
layerId = "4B9C72B8-8622-4F9C-A154-BF8DEE7D8E25";
paths = (
{
closed = 1;
nodes = (
"156 404 OFFCURVE",
"130 430 OFFCURVE",
"98 430 CURVE SMOOTH",
"65 430 OFFCURVE",
"39 404 OFFCURVE",
"39 371 CURVE SMOOTH",
"39 338 OFFCURVE",
"65 313 OFFCURVE",
"98 313 CURVE SMOOTH",
"130 313 OFFCURVE",
"156 338 OFFCURVE",
"156 371 CURVE SMOOTH"
);
}
);
width = 195;
}
);
note = "\012    periodcentered\012  ";
unicode = 00B7;
changeCount = 1;
},
{
color = 4;
glyphname = cedilla;
lastChange = "2016-10-19 22:54:34 +0000";
layers = (
{
layerId = "4B9C72B8-8622-4F9C-A154-BF8DEE7D8E25";
paths = (
{
closed = 1;
nodes = (
"144 23 OFFCURVE",
"140 18 OFFCURVE",
"138 11 CURVE SMOOTH",
"119 -56 LINE",
"118 -60 OFFCURVE",
"117 -64 OFFCURVE",
"117 -68 CURVE SMOOTH",
"117 -90 OFFCURVE",
"135 -107 OFFCURVE",
"156 -107 CURVE SMOOTH",
"178 -107 OFFCURVE",
"195 -117 OFFCURVE",
"195 -132 CURVE SMOOTH",
"195 -147 OFFCURVE",
"178 -156 OFFCURVE",
"156 -156 CURVE SMOOTH",
"150 -156 OFFCURVE",
"144 -155 OFFCURVE",
"137 -151 CURVE",
"99 -128 LINE SMOOTH",
"93 -124 OFFCURVE",
"86 -122 OFFCURVE",
"78 -122 CURVE SMOOTH",
"57 -122 OFFCURVE",
"39 -140 OFFCURVE",
"39 -161 CURVE SMOOTH",
"39 -173 OFFCURVE",
"45 -185 OFFCURVE",
"56 -194 CURVE",
"101 -220 LINE",
"119 -229 OFFCURVE",
"137 -234 OFFCURVE",
"156 -234 CURVE SMOOTH",
"221 -234 OFFCURVE",
"273 -190 OFFCURVE",
"273 -132 CURVE SMOOTH",
"273 -103 OFFCURVE",
"262 -79 OFFCURVE",
"239 -59 CURVE",
"229 -50 OFFCURVE",
"218 -43 OFFCURVE",
"206 -39 CURVE",
"214 -9 LINE",
"214 -6 OFFCURVE",
"215 -3 OFFCURVE",
"215 0 CURVE SMOOTH",
"215 21 OFFCURVE",
"197 39 OFFCURVE",
"176 39 CURVE SMOOTH",
"165 39 OFFCURVE",
"156 35 OFFCURVE",
"148 28 CURVE SMOOTH"
);
}
);
width = 313;
}
);
note = "\012    cedilla\012  ";
unicode = 00B8;
changeCount = 1;
},
{
color = 4;
glyphname = ordmasculine;
lastChange = "2016-10-19 22:54:34 +0000";
layers = (
{
layerId = "4B9C72B8-8622-4F9C-A154-BF8DEE7D8E25";
paths = (
{
closed = 1;
nodes = (
"39 510 OFFCURVE",
"55 454 OFFCURVE",
"87 421 CURVE SMOOTH",
"106 402 OFFCURVE",
"129 393 OFFCURVE",
"156 393 CURVE SMOOTH",
"183 393 OFFCURVE",
"205 402 OFFCURVE",
"224 421 CURVE SMOOTH",
"256 454 OFFCURVE",
"272 510 OFFCURVE",
"272 587 CURVE SMOOTH",
"272 665 OFFCURVE",
"256 720 OFFCURVE",
"224 753 CURVE SMOOTH",
"205 772 OFFCURVE",
"183 781 OFFCURVE",
"156 781 CURVE SMOOTH",
"129 781 OFFCURVE",
"106 772 OFFCURVE",
"87 753 CURVE SMOOTH",
"55 720 OFFCURVE",
"39 665 OFFCURVE",
"39 587 CURVE SMOOTH"
);
},
{
closed = 1;
nodes = (
"172 743 OFFCURVE",
"186 737 OFFCURVE",
"197 725 CURVE",
"221 698 OFFCURVE",
"233 652 OFFCURVE",
"233 587 CURVE SMOOTH",
"233 522 OFFCURVE",
"221 477 OFFCURVE",
"197 449 CURVE",
"186 438 OFFCURVE",
"172 432 OFFCURVE",
"156 432 CURVE SMOOTH",
"140 432 OFFCURVE",
"125 438 OFFCURVE",
"114 449 CURVE",
"90 477 OFFCURVE",
"78 522 OFFCURVE",
"78 587 CURVE SMOOTH",
"78 652 OFFCURVE",
"90 698 OFFCURVE",
"114 725 CURVE",
"125 737 OFFCURVE",
"140 743 OFFCURVE",
"156 743 CURVE SMOOTH"
);
}
);
width = 313;
}
);
note = "\012    ordmasculine\012  ";
unicode = 00BA;
changeCount = 1;
},
{
color = 4;
glyphname = onequarter;
lastChange = "2016-10-19 22:54:34 +0000";
layers = (
{
layerId = "4B9C72B8-8622-4F9C-A154-BF8DEE7D8E25";
paths = (
{
closed = 1;
nodes = (
"156 771 OFFCURVE",
"146 782 OFFCURVE",
"133 782 CURVE SMOOTH",
"130 782 OFFCURVE",
"127 781 OFFCURVE",
"125 780 CURVE",
"54 757 LINE",
"51 755 OFFCURVE",
"48 754 OFFCURVE",
"46 751 CURVE SMOOTH",
"42 747 OFFCURVE",
"39 741 OFFCURVE",
"39 735 CURVE SMOOTH",
"39 722 OFFCURVE",
"49 711 OFFCURVE",
"63 711 CURVE SMOOTH",
"66 711 OFFCURVE",
"69 712 OFFCURVE",
"72 713 CURVE SMOOTH",
"109 726 LINE",
"109 336 LINE SMOOTH",
"109 323 OFFCURVE",
"120 313 OFFCURVE",
"133 313 CURVE SMOOTH",
"146 313 OFFCURVE",
"156 323 OFFCURVE",
"156 336 CURVE SMOOTH",
"156 758 LINE SMOOTH"
);
},
{
closed = 1;
nodes = (
"572 781 OFFCURVE",
"562 776 OFFCURVE",
"555 766 CURVE SMOOTH",
"84 60 LINE",
"80 54 OFFCURVE",
"78 47 OFFCURVE",
"78 39 CURVE SMOOTH",
"78 18 OFFCURVE",
"96 0 OFFCURVE",
"117 0 CURVE SMOOTH",
"131 0 OFFCURVE",
"143 7 OFFCURVE",
"151 20 CURVE SMOOTH",
"619 721 LINE",
"623 728 OFFCURVE",
"625 734 OFFCURVE",
"625 742 CURVE SMOOTH",
"625 764 OFFCURVE",
"607 781 OFFCURVE",
"586 781 CURVE SMOOTH"
);
},
{
closed = 1;
nodes = (
"547 23 LINE SMOOTH",
"547 10 OFFCURVE",
"557 0 OFFCURVE",
"570 0 CURVE SMOOTH",
"583 0 OFFCURVE",
"594 10 OFFCURVE",
"594 23 CURVE SMOOTH",
"594 117 LINE",
"641 117 LINE SMOOTH",
"654 117 OFFCURVE",
"664 127 OFFCURVE",
"664 141 CURVE SMOOTH",
"664 154 OFFCURVE",
"654 164 OFFCURVE",
"641 164 CURVE SMOOTH",
"594 164 LINE",
"594 445 LINE SMOOTH",
"594 458 OFFCURVE",
"583 469 OFFCURVE",
"570 469 CURVE SMOOTH",
"564 469 OFFCURVE",
"558 466 OFFCURVE",
"554 462 CURVE SMOOTH",
"553 461 OFFCURVE",
"552 460 OFFCURVE",
"551 459 CURVE",
"340 154 LINE",
"337 150 OFFCURVE",
"336 146 OFFCURVE",
"336 141 CURVE SMOOTH",
"336 127 OFFCURVE",
"346 117 OFFCURVE",
"359 117 CURVE SMOOTH",
"547 117 LINE"
);
},
{
closed = 1;
nodes = (
"547 370 LINE",
"547 164 LINE",
"404 164 LINE"
);
}
);
width = 703;
}
);
note = "\012    onequarter\012  ";
unicode = 00BC;
changeCount = 1;
},
{
color = 4;
glyphname = onehalf;
lastChange = "2016-10-19 22:54:34 +0000";
layers = (
{
layerId = "4B9C72B8-8622-4F9C-A154-BF8DEE7D8E25";
paths = (
{
closed = 1;
nodes = (
"156 771 OFFCURVE",
"146 782 OFFCURVE",
"133 782 CURVE SMOOTH",
"130 782 OFFCURVE",
"127 781 OFFCURVE",
"125 780 CURVE",
"54 757 LINE",
"51 755 OFFCURVE",
"48 754 OFFCURVE",
"46 751 CURVE SMOOTH",
"42 747 OFFCURVE",
"39 741 OFFCURVE",
"39 735 CURVE SMOOTH",
"39 722 OFFCURVE",
"49 711 OFFCURVE",
"63 711 CURVE SMOOTH",
"66 711 OFFCURVE",
"69 712 OFFCURVE",
"72 713 CURVE SMOOTH",
"109 726 LINE",
"109 336 LINE SMOOTH",
"109 323 OFFCURVE",
"120 313 OFFCURVE",
"133 313 CURVE SMOOTH",
"146 313 OFFCURVE",
"156 323 OFFCURVE",
"156 336 CURVE SMOOTH",
"156 758 LINE SMOOTH"
);
},
{
closed = 1;
nodes = (
"572 781 OFFCURVE",
"562 776 OFFCURVE",
"555 766 CURVE SMOOTH",
"84 60 LINE",
"80 54 OFFCURVE",
"78 47 OFFCURVE",
"78 39 CURVE SMOOTH",
"78 18 OFFCURVE",
"96 0 OFFCURVE",
"117 0 CURVE SMOOTH",
"131 0 OFFCURVE",
"143 7 OFFCURVE",
"151 20 CURVE SMOOTH",
"619 721 LINE",
"623 728 OFFCURVE",
"625 734 OFFCURVE",
"625 742 CURVE SMOOTH",
"625 764 OFFCURVE",
"607 781 OFFCURVE",
"586 781 CURVE SMOOTH"
);
},
{
closed = 1;
nodes = (
"701 229 LINE",
"729 256 OFFCURVE",
"742 290 OFFCURVE",
"742 329 CURVE SMOOTH",
"742 406 OFFCURVE",
"679 469 OFFCURVE",
"601 469 CURVE SMOOTH",
"523 469 OFFCURVE",
"460 406 OFFCURVE",
"460 329 CURVE SMOOTH",
"460 315 OFFCURVE",
"471 305 OFFCURVE",
"484 305 CURVE SMOOTH",
"497 305 OFFCURVE",
"507 315 OFFCURVE",
"507 329 CURVE SMOOTH",
"507 381 OFFCURVE",
"549 422 OFFCURVE",
"601 422 CURVE SMOOTH",
"653 422 OFFCURVE",
"695 381 OFFCURVE",
"695 329 CURVE SMOOTH",
"695 303 OFFCURVE",
"686 280 OFFCURVE",
"667 262 CURVE",
"467 40 LINE",
"463 36 OFFCURVE",
"460 30 OFFCURVE",
"460 23 CURVE SMOOTH",
"460 10 OFFCURVE",
"471 0 OFFCURVE",
"484 0 CURVE SMOOTH",
"719 0 LINE SMOOTH",
"731 0 OFFCURVE",
"742 10 OFFCURVE",
"742 23 CURVE SMOOTH",
"742 37 OFFCURVE",
"731 47 OFFCURVE",
"719 47 CURVE SMOOTH",
"537 47 LINE"
);
}
);
width = 781;
}
);
note = "\012    onehalf\012  ";
unicode = 00BD;
changeCount = 1;
},
{
color = 4;
glyphname = threequarters;
lastChange = "2016-10-19 22:54:34 +0000";
layers = (
{
layerId = "4B9C72B8-8622-4F9C-A154-BF8DEE7D8E25";
paths = (
{
closed = 1;
nodes = (
"650 781 OFFCURVE",
"640 776 OFFCURVE",
"633 766 CURVE SMOOTH",
"162 60 LINE",
"158 54 OFFCURVE",
"156 47 OFFCURVE",
"156 39 CURVE SMOOTH",
"156 18 OFFCURVE",
"174 0 OFFCURVE",
"195 0 CURVE SMOOTH",
"209 0 OFFCURVE",
"221 7 OFFCURVE",
"229 20 CURVE SMOOTH",
"697 721 LINE",
"701 728 OFFCURVE",
"703 734 OFFCURVE",
"703 742 CURVE SMOOTH",
"703 764 OFFCURVE",
"686 781 OFFCURVE",
"664 781 CURVE SMOOTH"
);
},
{
closed = 1;
nodes = (
"231 546 OFFCURVE",
"272 505 OFFCURVE",
"272 453 CURVE SMOOTH",
"272 401 OFFCURVE",
"231 359 OFFCURVE",
"179 359 CURVE SMOOTH",
"127 359 OFFCURVE",
"86 401 OFFCURVE",
"86 453 CURVE SMOOTH",
"86 466 OFFCURVE",
"76 476 OFFCURVE",
"63 476 CURVE SMOOTH",
"49 476 OFFCURVE",
"39 466 OFFCURVE",
"39 453 CURVE SMOOTH",
"39 375 OFFCURVE",
"102 313 OFFCURVE",
"179 313 CURVE SMOOTH",
"257 313 OFFCURVE",
"319 375 OFFCURVE",
"319 453 CURVE SMOOTH",
"319 491 OFFCURVE",
"306 524 OFFCURVE",
"278 552 CURVE SMOOTH",
"271 560 OFFCURVE",
"262 567 OFFCURVE",
"253 572 CURVE",
"256 575 OFFCURVE",
"259 578 OFFCURVE",
"262 581 CURVE SMOOTH",
"285 604 OFFCURVE",
"296 631 OFFCURVE",
"296 663 CURVE SMOOTH",
"296 728 OFFCURVE",
"244 780 OFFCURVE",
"179 780 CURVE SMOOTH",
"115 780 OFFCURVE",
"63 728 OFFCURVE",
"63 663 CURVE SMOOTH",
"63 650 OFFCURVE",
"73 640 OFFCURVE",
"86 640 CURVE SMOOTH",
"98 640 OFFCURVE",
"109 650 OFFCURVE",
"109 663 CURVE SMOOTH",
"109 702 OFFCURVE",
"141 733 OFFCURVE",
"179 733 CURVE SMOOTH",
"218 733 OFFCURVE",
"250 702 OFFCURVE",
"250 663 CURVE SMOOTH",
"250 625 OFFCURVE",
"218 593 OFFCURVE",
"179 593 CURVE SMOOTH",
"166 593 OFFCURVE",
"156 582 OFFCURVE",
"156 570 CURVE SMOOTH",
"156 557 OFFCURVE",
"166 546 OFFCURVE",
"179 546 CURVE SMOOTH"
);
},
{
closed = 1;
nodes = (
"625 23 LINE SMOOTH",
"625 10 OFFCURVE",
"635 0 OFFCURVE",
"648 0 CURVE SMOOTH",
"662 0 OFFCURVE",
"672 10 OFFCURVE",
"672 23 CURVE SMOOTH",
"672 117 LINE",
"719 117 LINE SMOOTH",
"732 117 OFFCURVE",
"742 127 OFFCURVE",
"742 141 CURVE SMOOTH",
"742 154 OFFCURVE",
"732 164 OFFCURVE",
"719 164 CURVE SMOOTH",
"672 164 LINE",
"672 445 LINE SMOOTH",
"672 458 OFFCURVE",
"662 469 OFFCURVE",
"648 469 CURVE SMOOTH",
"642 469 OFFCURVE",
"636 466 OFFCURVE",
"632 462 CURVE SMOOTH",
"631 461 OFFCURVE",
"630 460 OFFCURVE",
"629 459 CURVE",
"418 154 LINE",
"416 150 OFFCURVE",
"414 146 OFFCURVE",
"414 141 CURVE SMOOTH",
"414 127 OFFCURVE",
"424 117 OFFCURVE",
"438 117 CURVE SMOOTH",
"625 117 LINE"
);
},
{
closed = 1;
nodes = (
"625 370 LINE",
"625 164 LINE",
"482 164 LINE"
);
}
);
width = 781;
}
);
note = "\012    threequarters\012  ";
unicode = 00BE;
changeCount = 1;
},
{
color = 4;
glyphname = questiondown;
lastChange = "2016-10-19 22:54:34 +0000";
layers = (
{
layerId = "4B9C72B8-8622-4F9C-A154-BF8DEE7D8E25";
paths = (
{
closed = 1;
nodes = (
"306 429 OFFCURVE",
"332 455 OFFCURVE",
"332 488 CURVE SMOOTH",
"332 521 OFFCURVE",
"306 546 OFFCURVE",
"273 546 CURVE SMOOTH",
"241 546 OFFCURVE",
"215 521 OFFCURVE",
"215 488 CURVE SMOOTH",
"215 455 OFFCURVE",
"241 429 OFFCURVE",
"273 429 CURVE SMOOTH"
);
},
{
closed = 1;
nodes = (
"187 -156 OFFCURVE",
"117 -86 OFFCURVE",
"117 0 CURVE SMOOTH",
"117 43 OFFCURVE",
"132 80 OFFCURVE",
"163 111 CURVE",
"244 186 LINE",
"290 231 OFFCURVE",
"313 287 OFFCURVE",
"313 352 CURVE SMOOTH",
"313 373 OFFCURVE",
"295 391 OFFCURVE",
"273 391 CURVE SMOOTH",
"252 391 OFFCURVE",
"234 373 OFFCURVE",
"234 352 CURVE SMOOTH",
"234 308 OFFCURVE",
"219 271 OFFCURVE",
"188 241 CURVE",
"108 166 LINE",
"62 120 OFFCURVE",
"39 65 OFFCURVE",
"39 0 CURVE SMOOTH",
"39 -129 OFFCURVE",
"144 -234 OFFCURVE",
"273 -234 CURVE SMOOTH",
"403 -234 OFFCURVE",
"508 -129 OFFCURVE",
"508 0 CURVE SMOOTH",
"508 21 OFFCURVE",
"490 39 OFFCURVE",
"469 39 CURVE SMOOTH",
"447 39 OFFCURVE",
"430 21 OFFCURVE",
"430 0 CURVE SMOOTH",
"430 -86 OFFCURVE",
"360 -156 OFFCURVE",
"273 -156 CURVE SMOOTH"
);
}
);
width = 547;
}
);
note = "\012    questiondown\012  ";
unicode = 00BF;
changeCount = 1;
},
{
color = 4;
glyphname = AE;
lastChange = "2016-10-19 22:54:34 +0000";
layers = (
{
layerId = "4B9C72B8-8622-4F9C-A154-BF8DEE7D8E25";
paths = (
{
closed = 1;
nodes = (
"454 781 OFFCURVE",
"443 775 OFFCURVE",
"436 763 CURVE SMOOTH",
"44 58 LINE",
"41 53 OFFCURVE",
"39 46 OFFCURVE",
"39 39 CURVE SMOOTH",
"39 18 OFFCURVE",
"57 0 OFFCURVE",
"78 0 CURVE SMOOTH",
"92 0 OFFCURVE",
"103 6 OFFCURVE",
"111 18 CURVE",
"275 313 LINE",
"430 313 LINE",
"430 39 LINE SMOOTH",
"430 18 OFFCURVE",
"447 0 OFFCURVE",
"469 0 CURVE SMOOTH",
"781 0 LINE SMOOTH",
"803 0 OFFCURVE",
"820 18 OFFCURVE",
"820 39 CURVE SMOOTH",
"820 61 OFFCURVE",
"803 78 OFFCURVE",
"781 78 CURVE SMOOTH",
"508 78 LINE",
"508 313 LINE",
"703 313 LINE SMOOTH",
"725 313 OFFCURVE",
"742 330 OFFCURVE",
"742 352 CURVE SMOOTH",
"742 373 OFFCURVE",
"725 391 OFFCURVE",
"703 391 CURVE SMOOTH",
"508 391 LINE",
"508 703 LINE",
"781 703 LINE SMOOTH",
"803 703 OFFCURVE",
"820 721 OFFCURVE",
"820 742 CURVE SMOOTH",
"820 764 OFFCURVE",
"803 781 OFFCURVE",
"781 781 CURVE SMOOTH",
"469 781 LINE SMOOTH"
);
},
{
closed = 1;
nodes = (
"318 391 LINE",
"430 591 LINE",
"430 391 LINE"
);
}
);
width = 859;
}
);
note = "\012    AE\012  ";
unicode = 00C6;
changeCount = 1;
},
{
color = 4;
glyphname = Eth;
lastChange = "2016-10-19 22:54:34 +0000";
layers = (
{
layerId = "4B9C72B8-8622-4F9C-A154-BF8DEE7D8E25";
paths = (
{
closed = 1;
nodes = (
"18 430 OFFCURVE",
"0 412 OFFCURVE",
"0 391 CURVE SMOOTH",
"0 369 OFFCURVE",
"18 352 OFFCURVE",
"39 352 CURVE SMOOTH",
"117 352 LINE",
"117 39 LINE SMOOTH",
"117 18 OFFCURVE",
"134 0 OFFCURVE",
"156 0 CURVE SMOOTH",
"312 0 LINE SMOOTH",
"527 0 OFFCURVE",
"703 175 OFFCURVE",
"703 391 CURVE SMOOTH",
"703 606 OFFCURVE",
"527 781 OFFCURVE",
"312 781 CURVE SMOOTH",
"156 781 LINE SMOOTH",
"134 781 OFFCURVE",
"117 764 OFFCURVE",
"117 742 CURVE SMOOTH",
"117 430 LINE",
"39 430 LINE SMOOTH"
);
},
{
closed = 1;
nodes = (
"312 703 LINE SMOOTH",
"484 703 OFFCURVE",
"625 563 OFFCURVE",
"625 391 CURVE SMOOTH",
"625 218 OFFCURVE",
"484 78 OFFCURVE",
"312 78 CURVE SMOOTH",
"195 78 LINE",
"195 352 LINE",
"351 352 LINE SMOOTH",
"373 352 OFFCURVE",
"390 369 OFFCURVE",
"390 391 CURVE SMOOTH",
"390 412 OFFCURVE",
"373 430 OFFCURVE",
"351 430 CURVE SMOOTH",
"195 430 LINE",
"195 703 LINE"
);
}
);
width = 742;
}
);
note = "\012    Eth\012  ";
unicode = 00D0;
changeCount = 1;
},
{
color = 4;
glyphname = multiply;
lastChange = "2016-10-19 22:54:34 +0000";
layers = (
{
layerId = "4B9C72B8-8622-4F9C-A154-BF8DEE7D8E25";
paths = (
{
closed = 1;
nodes = (
"42 215 OFFCURVE",
"39 206 OFFCURVE",
"39 195 CURVE SMOOTH",
"39 174 OFFCURVE",
"57 156 OFFCURVE",
"78 156 CURVE SMOOTH",
"88 156 OFFCURVE",
"98 160 OFFCURVE",
"105 167 CURVE SMOOTH",
"234 296 LINE",
"364 167 LINE SMOOTH",
"371 160 OFFCURVE",
"380 156 OFFCURVE",
"391 156 CURVE SMOOTH",
"412 156 OFFCURVE",
"430 174 OFFCURVE",
"430 195 CURVE SMOOTH",
"430 206 OFFCURVE",
"426 215 OFFCURVE",
"419 223 CURVE SMOOTH",
"290 352 LINE",
"419 480 LINE SMOOTH",
"426 488 OFFCURVE",
"430 498 OFFCURVE",
"430 508 CURVE SMOOTH",
"430 529 OFFCURVE",
"412 547 OFFCURVE",
"391 547 CURVE SMOOTH",
"380 547 OFFCURVE",
"371 543 OFFCURVE",
"362 535 CURVE SMOOTH",
"234 407 LINE",
"106 535 LINE SMOOTH",
"98 543 OFFCURVE",
"89 547 OFFCURVE",
"78 547 CURVE SMOOTH",
"57 547 OFFCURVE",
"39 529 OFFCURVE",
"39 508 CURVE SMOOTH",
"39 498 OFFCURVE",
"42 488 OFFCURVE",
"50 480 CURVE SMOOTH",
"179 352 LINE",
"50 223 LINE SMOOTH"
);
}
);
width = 469;
}
);
note = "\012    multiply\012  ";
unicode = 00D7;
changeCount = 1;
},
{
color = 4;
glyphname = Oslash;
lastChange = "2016-10-19 22:54:34 +0000";
layers = (
{
layerId = "4B9C72B8-8622-4F9C-A154-BF8DEE7D8E25";
paths = (
{
closed = 1;
nodes = (
"817 725 OFFCURVE",
"820 733 OFFCURVE",
"820 742 CURVE SMOOTH",
"820 764 OFFCURVE",
"803 781 OFFCURVE",
"781 781 CURVE SMOOTH",
"771 781 OFFCURVE",
"761 777 OFFCURVE",
"753 770 CURVE SMOOTH",
"677 693 LINE",
"606 752 OFFCURVE",
"524 781 OFFCURVE",
"430 781 CURVE SMOOTH",
"214 781 OFFCURVE",
"39 606 OFFCURVE",
"39 391 CURVE SMOOTH",
"39 296 OFFCURVE",
"68 214 OFFCURVE",
"127 144 CURVE",
"49 66 LINE SMOOTH",
"42 59 OFFCURVE",
"39 49 OFFCURVE",
"39 39 CURVE SMOOTH",
"39 18 OFFCURVE",
"57 0 OFFCURVE",
"78 0 CURVE SMOOTH",
"89 0 OFFCURVE",
"98 4 OFFCURVE",
"106 11 CURVE SMOOTH",
"183 88 LINE",
"253 29 OFFCURVE",
"335 0 OFFCURVE",
"430 0 CURVE SMOOTH",
"645 0 OFFCURVE",
"820 175 OFFCURVE",
"820 391 CURVE SMOOTH",
"820 485 OFFCURVE",
"791 567 OFFCURVE",
"732 638 CURVE",
"812 717 LINE"
);
},
{
closed = 1;
nodes = (
"139 254 OFFCURVE",
"117 318 OFFCURVE",
"117 391 CURVE SMOOTH",
"117 563 OFFCURVE",
"257 703 OFFCURVE",
"430 703 CURVE SMOOTH",
"502 703 OFFCURVE",
"566 681 OFFCURVE",
"621 638 CURVE",
"183 199 LINE"
);
},
{
closed = 1;
nodes = (
"720 527 OFFCURVE",
"742 463 OFFCURVE",
"742 391 CURVE SMOOTH",
"742 218 OFFCURVE",
"602 78 OFFCURVE",
"430 78 CURVE SMOOTH",
"357 78 OFFCURVE",
"293 100 OFFCURVE",
"238 144 CURVE",
"677 583 LINE"
);
}
);
width = 859;
}
);
note = "\012    Oslash\012  ";
unicode = 00D8;
changeCount = 1;
},
{
color = 4;
glyphname = Thorn;
lastChange = "2016-10-19 22:54:34 +0000";
layers = (
{
layerId = "4B9C72B8-8622-4F9C-A154-BF8DEE7D8E25";
paths = (
{
closed = 1;
nodes = (
"39 18 OFFCURVE",
"57 0 OFFCURVE",
"78 0 CURVE SMOOTH",
"100 0 OFFCURVE",
"117 18 OFFCURVE",
"117 39 CURVE SMOOTH",
"117 156 LINE",
"352 156 LINE SMOOTH",
"481 156 OFFCURVE",
"586 261 OFFCURVE",
"586 391 CURVE SMOOTH",
"586 520 OFFCURVE",
"481 625 OFFCURVE",
"352 625 CURVE SMOOTH",
"117 625 LINE",
"117 742 LINE SMOOTH",
"117 764 OFFCURVE",
"100 781 OFFCURVE",
"78 781 CURVE SMOOTH",
"57 781 OFFCURVE",
"39 764 OFFCURVE",
"39 742 CURVE SMOOTH",
"39 39 LINE SMOOTH"
);
},
{
closed = 1;
nodes = (
"117 547 LINE",
"352 547 LINE SMOOTH",
"438 547 OFFCURVE",
"508 477 OFFCURVE",
"508 391 CURVE SMOOTH",
"508 304 OFFCURVE",
"438 234 OFFCURVE",
"352 234 CURVE SMOOTH",
"117 234 LINE"
);
}
);
width = 625;
}
);
note = "\012    Thorn\012  ";
unicode = 00DE;
changeCount = 1;
},
{
color = 4;
glyphname = germandbls;
lastChange = "2016-10-19 22:54:34 +0000";
layers = (
{
layerId = "4B9C72B8-8622-4F9C-A154-BF8DEE7D8E25";
paths = (
{
closed = 1;
nodes = (
"117 650 OFFCURVE",
"170 703 OFFCURVE",
"234 703 CURVE SMOOTH",
"299 703 OFFCURVE",
"352 650 OFFCURVE",
"352 586 CURVE SMOOTH",
"352 559 OFFCURVE",
"344 536 OFFCURVE",
"328 516 CURVE",
"305 489 OFFCURVE",
"293 458 OFFCURVE",
"293 424 CURVE SMOOTH",
"293 385 OFFCURVE",
"307 353 OFFCURVE",
"334 326 CURVE SMOOTH",
"344 315 OFFCURVE",
"354 308 OFFCURVE",
"365 301 CURVE SMOOTH",
"376 295 OFFCURVE",
"386 288 OFFCURVE",
"396 278 CURVE SMOOTH",
"418 255 OFFCURVE",
"430 228 OFFCURVE",
"430 195 CURVE SMOOTH",
"430 131 OFFCURVE",
"377 78 OFFCURVE",
"313 78 CURVE SMOOTH",
"280 78 OFFCURVE",
"253 90 OFFCURVE",
"230 113 CURVE SMOOTH",
"221 121 OFFCURVE",
"211 125 OFFCURVE",
"201 125 CURVE SMOOTH",
"179 125 OFFCURVE",
"162 107 OFFCURVE",
"162 86 CURVE SMOOTH",
"162 75 OFFCURVE",
"166 65 OFFCURVE",
"174 57 CURVE SMOOTH",
"212 19 OFFCURVE",
"258 0 OFFCURVE",
"313 0 CURVE SMOOTH",
"420 0 OFFCURVE",
"508 87 OFFCURVE",
"508 195 CURVE SMOOTH",
"508 250 OFFCURVE",
"489 295 OFFCURVE",
"451 333 CURVE SMOOTH",
"435 349 OFFCURVE",
"418 361 OFFCURVE",
"400 371 CURVE",
"382 381 OFFCURVE",
"373 398 OFFCURVE",
"373 423 CURVE SMOOTH",
"373 438 OFFCURVE",
"376 450 OFFCURVE",
"385 461 CURVE",
"415 497 OFFCURVE",
"430 538 OFFCURVE",
"430 586 CURVE SMOOTH",
"430 694 OFFCURVE",
"342 781 OFFCURVE",
"234 781 CURVE SMOOTH",
"126 781 OFFCURVE",
"39 694 OFFCURVE",
"39 586 CURVE SMOOTH",
"39 39 LINE SMOOTH",
"39 18 OFFCURVE",
"57 0 OFFCURVE",
"78 0 CURVE SMOOTH",
"100 0 OFFCURVE",
"117 18 OFFCURVE",
"117 39 CURVE SMOOTH",
"117 586 LINE SMOOTH"
);
}
);
width = 547;
}
);
note = "\012    germandbls\012  ";
unicode = 00DF;
changeCount = 1;
},
{
color = 4;
glyphname = ae;
lastChange = "2016-10-19 22:54:34 +0000";
layers = (
{
layerId = "4B9C72B8-8622-4F9C-A154-BF8DEE7D8E25";
paths = (
{
closed = 1;
nodes = (
"641 27 OFFCURVE",
"706 0 OFFCURVE",
"781 0 CURVE SMOOTH",
"850 0 OFFCURVE",
"909 22 OFFCURVE",
"959 66 CURVE",
"967 74 OFFCURVE",
"971 83 OFFCURVE",
"971 94 CURVE SMOOTH",
"971 115 OFFCURVE",
"953 133 OFFCURVE",
"932 133 CURVE SMOOTH",
"922 133 OFFCURVE",
"915 130 OFFCURVE",
"907 125 CURVE",
"872 94 OFFCURVE",
"830 78 OFFCURVE",
"781 78 CURVE SMOOTH",
"673 78 OFFCURVE",
"604 160 OFFCURVE",
"589 234 CURVE",
"1016 234 LINE SMOOTH",
"1037 234 OFFCURVE",
"1055 252 OFFCURVE",
"1055 273 CURVE SMOOTH",
"1055 424 OFFCURVE",
"932 547 OFFCURVE",
"781 547 CURVE SMOOTH",
"706 547 OFFCURVE",
"641 520 OFFCURVE",
"588 467 CURVE SMOOTH",
"572 451 OFFCURVE",
"558 434 OFFCURVE",
"547 416 CURVE",
"536 434 OFFCURVE",
"522 451 OFFCURVE",
"506 467 CURVE SMOOTH",
"453 520 OFFCURVE",
"388 547 OFFCURVE",
"313 547 CURVE SMOOTH",
"162 547 OFFCURVE",
"39 424 OFFCURVE",
"39 273 CURVE SMOOTH",
"39 123 OFFCURVE",
"162 0 OFFCURVE",
"313 0 CURVE SMOOTH",
"388 0 OFFCURVE",
"453 27 OFFCURVE",
"508 82 CURVE",
"508 39 LINE SMOOTH",
"508 18 OFFCURVE",
"525 0 OFFCURVE",
"547 0 CURVE SMOOTH",
"568 0 OFFCURVE",
"586 18 OFFCURVE",
"586 39 CURVE SMOOTH",
"586 82 LINE"
);
},
{
closed = 1;
nodes = (
"420 469 OFFCURVE",
"508 381 OFFCURVE",
"508 273 CURVE SMOOTH",
"508 166 OFFCURVE",
"420 78 OFFCURVE",
"313 78 CURVE SMOOTH",
"205 78 OFFCURVE",
"117 166 OFFCURVE",
"117 273 CURVE SMOOTH",
"117 381 OFFCURVE",
"205 469 OFFCURVE",
"313 469 CURVE SMOOTH"
);
},
{
closed = 1;
nodes = (
"604 387 OFFCURVE",
"673 469 OFFCURVE",
"781 469 CURVE SMOOTH",
"889 469 OFFCURVE",
"959 387 OFFCURVE",
"973 313 CURVE",
"589 313 LINE"
);
}
);
width = 1094;
}
);
note = "\012    ae\012  ";
unicode = 00E6;
changeCount = 1;
},
{
color = 4;
glyphname = eth;
lastChange = "2016-10-19 22:54:34 +0000";
layers = (
{
layerId = "4B9C72B8-8622-4F9C-A154-BF8DEE7D8E25";
paths = (
{
closed = 1;
nodes = (
"209 642 OFFCURVE",
"203 618 OFFCURVE",
"214 599 CURVE SMOOTH",
"224 581 OFFCURVE",
"249 574 OFFCURVE",
"267 585 CURVE SMOOTH",
"335 625 LINE",
"386 538 LINE",
"363 544 OFFCURVE",
"338 547 OFFCURVE",
"313 547 CURVE SMOOTH",
"162 547 OFFCURVE",
"39 424 OFFCURVE",
"39 273 CURVE SMOOTH",
"39 123 OFFCURVE",
"162 0 OFFCURVE",
"313 0 CURVE SMOOTH",
"463 0 OFFCURVE",
"586 123 OFFCURVE",
"586 273 CURVE SMOOTH",
"586 322 OFFCURVE",
"575 365 OFFCURVE",
"553 405 CURVE SMOOTH",
"403 665 LINE",
"470 704 LINE SMOOTH",
"488 715 OFFCURVE",
"495 738 OFFCURVE",
"483 757 CURVE SMOOTH",
"473 775 OFFCURVE",
"448 782 OFFCURVE",
"430 771 CURVE SMOOTH",
"364 732 LINE",
"346 763 LINE SMOOTH",
"338 775 OFFCURVE",
"328 781 OFFCURVE",
"313 781 CURVE SMOOTH",
"291 781 OFFCURVE",
"273 764 OFFCURVE",
"273 742 CURVE SMOOTH",
"273 735 OFFCURVE",
"275 728 OFFCURVE",
"279 721 CURVE",
"296 692 LINE",
"228 653 LINE SMOOTH"
);
},
{
closed = 1;
nodes = (
"420 469 OFFCURVE",
"508 381 OFFCURVE",
"508 273 CURVE SMOOTH",
"508 166 OFFCURVE",
"420 78 OFFCURVE",
"313 78 CURVE SMOOTH",
"205 78 OFFCURVE",
"117 166 OFFCURVE",
"117 273 CURVE SMOOTH",
"117 381 OFFCURVE",
"205 469 OFFCURVE",
"313 469 CURVE SMOOTH"
);
}
);
width = 625;
}
);
note = "\012    eth\012  ";
unicode = 00F0;
changeCount = 1;
},
{
color = 4;
glyphname = divide;
lastChange = "2016-10-19 22:54:34 +0000";
layers = (
{
layerId = "4B9C72B8-8622-4F9C-A154-BF8DEE7D8E25";
paths = (
{
closed = 1;
nodes = (
"283 525 OFFCURVE",
"261 547 OFFCURVE",
"234 547 CURVE SMOOTH",
"208 547 OFFCURVE",
"186 525 OFFCURVE",
"186 498 CURVE SMOOTH",
"186 471 OFFCURVE",
"208 449 OFFCURVE",
"234 449 CURVE SMOOTH",
"261 449 OFFCURVE",
"283 471 OFFCURVE",
"283 498 CURVE SMOOTH"
);
},
{
closed = 1;
nodes = (
"412 313 OFFCURVE",
"430 330 OFFCURVE",
"430 352 CURVE SMOOTH",
"430 373 OFFCURVE",
"412 391 OFFCURVE",
"391 391 CURVE SMOOTH",
"78 391 LINE SMOOTH",
"57 391 OFFCURVE",
"39 373 OFFCURVE",
"39 352 CURVE SMOOTH",
"39 330 OFFCURVE",
"57 313 OFFCURVE",
"78 313 CURVE SMOOTH",
"391 313 LINE SMOOTH"
);
},
{
closed = 1;
nodes = (
"283 232 OFFCURVE",
"261 254 OFFCURVE",
"234 254 CURVE SMOOTH",
"208 254 OFFCURVE",
"186 232 OFFCURVE",
"186 205 CURVE SMOOTH",
"186 178 OFFCURVE",
"208 156 OFFCURVE",
"234 156 CURVE SMOOTH",
"261 156 OFFCURVE",
"283 178 OFFCURVE",
"283 205 CURVE SMOOTH"
);
}
);
width = 469;
}
);
note = "\012    divide\012  ";
unicode = 00F7;
changeCount = 1;
},
{
color = 4;
glyphname = oslash;
lastChange = "2016-10-19 22:54:34 +0000";
layers = (
{
layerId = "4B9C72B8-8622-4F9C-A154-BF8DEE7D8E25";
paths = (
{
closed = 1;
nodes = (
"429 529 OFFCURVE",
"375 547 OFFCURVE",
"313 547 CURVE SMOOTH",
"162 547 OFFCURVE",
"39 424 OFFCURVE",
"39 273 CURVE SMOOTH",
"39 211 OFFCURVE",
"57 157 OFFCURVE",
"93 110 CURVE",
"50 66 LINE SMOOTH",
"42 59 OFFCURVE",
"39 49 OFFCURVE",
"39 39 CURVE SMOOTH",
"39 18 OFFCURVE",
"57 0 OFFCURVE",
"78 0 CURVE SMOOTH",
"89 0 OFFCURVE",
"98 4 OFFCURVE",
"106 11 CURVE SMOOTH",
"149 54 LINE",
"196 18 OFFCURVE",
"250 0 OFFCURVE",
"313 0 CURVE SMOOTH",
"463 0 OFFCURVE",
"586 123 OFFCURVE",
"586 273 CURVE SMOOTH",
"586 335 OFFCURVE",
"568 390 OFFCURVE",
"532 437 CURVE",
"575 480 LINE SMOOTH",
"583 488 OFFCURVE",
"586 498 OFFCURVE",
"586 508 CURVE SMOOTH",
"586 529 OFFCURVE",
"568 547 OFFCURVE",
"547 547 CURVE SMOOTH",
"536 547 OFFCURVE",
"526 542 OFFCURVE",
"518 534 CURVE SMOOTH",
"477 493 LINE"
);
},
{
closed = 1;
nodes = (
"128 197 OFFCURVE",
"117 233 OFFCURVE",
"117 273 CURVE SMOOTH",
"117 381 OFFCURVE",
"205 469 OFFCURVE",
"313 469 CURVE SMOOTH",
"353 469 OFFCURVE",
"389 458 OFFCURVE",
"420 437 CURVE",
"149 166 LINE"
);
},
{
closed = 1;
nodes = (
"497 350 OFFCURVE",
"508 314 OFFCURVE",
"508 273 CURVE SMOOTH",
"508 166 OFFCURVE",
"420 78 OFFCURVE",
"313 78 CURVE SMOOTH",
"272 78 OFFCURVE",
"236 89 OFFCURVE",
"205 110 CURVE",
"476 381 LINE"
);
}
);
width = 625;
}
);
note = "\012    oslash\012  ";
unicode = 00F8;
changeCount = 1;
},
{
color = 4;
glyphname = thorn;
lastChange = "2016-10-19 22:54:34 +0000";
layers = (
{
layerId = "4B9C72B8-8622-4F9C-A154-BF8DEE7D8E25";
paths = (
{
closed = 1;
nodes = (
"117 765 OFFCURVE",
"100 782 OFFCURVE",
"78 782 CURVE SMOOTH",
"57 782 OFFCURVE",
"39 765 OFFCURVE",
"39 743 CURVE SMOOTH",
"39 -195 LINE SMOOTH",
"39 -217 OFFCURVE",
"57 -234 OFFCURVE",
"78 -234 CURVE SMOOTH",
"100 -234 OFFCURVE",
"117 -217 OFFCURVE",
"117 -195 CURVE SMOOTH",
"117 83 LINE",
"172 28 OFFCURVE",
"237 1 OFFCURVE",
"313 1 CURVE SMOOTH",
"463 1 OFFCURVE",
"586 124 OFFCURVE",
"586 274 CURVE SMOOTH",
"586 425 OFFCURVE",
"463 548 OFFCURVE",
"313 548 CURVE SMOOTH",
"237 548 OFFCURVE",
"172 521 OFFCURVE",
"117 466 CURVE",
"117 743 LINE SMOOTH"
);
},
{
closed = 1;
nodes = (
"117 382 OFFCURVE",
"205 470 OFFCURVE",
"313 470 CURVE SMOOTH",
"420 470 OFFCURVE",
"508 382 OFFCURVE",
"508 274 CURVE SMOOTH",
"508 167 OFFCURVE",
"420 79 OFFCURVE",
"313 79 CURVE SMOOTH",
"205 79 OFFCURVE",
"117 167 OFFCURVE",
"117 274 CURVE SMOOTH"
);
}
);
width = 625;
}
);
note = "\012    thorn\012  ";
unicode = 00FE;
changeCount = 1;
},
{
color = 4;
glyphname = circumflex;
lastChange = "2016-10-19 22:54:34 +0000";
layers = (
{
layerId = "4B9C72B8-8622-4F9C-A154-BF8DEE7D8E25";
paths = (
{
closed = 1;
nodes = (
"209 760 OFFCURVE",
"203 762 OFFCURVE",
"195 762 CURVE SMOOTH",
"188 762 OFFCURVE",
"181 760 OFFCURVE",
"175 756 CURVE",
"59 679 LINE",
"45 669 OFFCURVE",
"39 658 OFFCURVE",
"39 645 CURVE SMOOTH",
"39 623 OFFCURVE",
"57 605 OFFCURVE",
"78 605 CURVE SMOOTH",
"87 605 OFFCURVE",
"96 608 OFFCURVE",
"103 614 CURVE",
"195 675 LINE",
"288 614 LINE",
"295 608 OFFCURVE",
"303 605 OFFCURVE",
"313 605 CURVE SMOOTH",
"334 605 OFFCURVE",
"352 623 OFFCURVE",
"352 645 CURVE SMOOTH",
"352 658 OFFCURVE",
"345 669 OFFCURVE",
"332 679 CURVE",
"215 756 LINE"
);
}
);
width = 391;
}
);
note = "\012    circumflex\012  ";
unicode = 02C6;
changeCount = 1;
},
{
color = 4;
glyphname = caron;
lastChange = "2016-10-19 22:54:34 +0000";
layers = (
{
layerId = "4B9C72B8-8622-4F9C-A154-BF8DEE7D8E25";
paths = (
{
closed = 1;
nodes = (
"203 605 OFFCURVE",
"209 607 OFFCURVE",
"215 611 CURVE",
"332 688 LINE",
"345 698 OFFCURVE",
"352 709 OFFCURVE",
"352 723 CURVE SMOOTH",
"352 744 OFFCURVE",
"334 762 OFFCURVE",
"313 762 CURVE SMOOTH",
"303 762 OFFCURVE",
"295 759 OFFCURVE",
"288 753 CURVE",
"195 692 LINE",
"103 753 LINE",
"96 759 OFFCURVE",
"87 762 OFFCURVE",
"78 762 CURVE SMOOTH",
"57 762 OFFCURVE",
"39 744 OFFCURVE",
"39 723 CURVE SMOOTH",
"39 709 OFFCURVE",
"45 698 OFFCURVE",
"59 688 CURVE",
"175 611 LINE",
"181 607 OFFCURVE",
"188 605 OFFCURVE",
"195 605 CURVE SMOOTH"
);
}
);
width = 391;
}
);
note = "\012    caron\012  ";
unicode = 02C7;
changeCount = 1;
},
{
color = 4;
glyphname = breve;
lastChange = "2016-10-19 22:54:34 +0000";
layers = (
{
layerId = "4B9C72B8-8622-4F9C-A154-BF8DEE7D8E25";
paths = (
{
closed = 1;
nodes = (
"39 658 OFFCURVE",
"109 605 OFFCURVE",
"195 605 CURVE SMOOTH",
"239 605 OFFCURVE",
"275 617 OFFCURVE",
"306 640 CURVE SMOOTH",
"335 661 OFFCURVE",
"351 688 OFFCURVE",
"352 723 CURVE",
"352 744 OFFCURVE",
"334 762 OFFCURVE",
"313 762 CURVE SMOOTH",
"292 762 OFFCURVE",
"274 744 OFFCURVE",
"274 723 CURVE SMOOTH",
"274 701 OFFCURVE",
"238 684 OFFCURVE",
"195 684 CURVE SMOOTH",
"152 684 OFFCURVE",
"117 701 OFFCURVE",
"117 723 CURVE SMOOTH",
"117 744 OFFCURVE",
"100 762 OFFCURVE",
"78 762 CURVE SMOOTH",
"57 762 OFFCURVE",
"39 744 OFFCURVE",
"39 723 CURVE SMOOTH"
);
}
);
width = 391;
}
);
note = "\012    breve\012  ";
unicode = 02D8;
changeCount = 1;
},
{
color = 4;
glyphname = dotaccent;
lastChange = "2016-10-19 22:54:34 +0000";
layers = (
{
layerId = "4B9C72B8-8622-4F9C-A154-BF8DEE7D8E25";
paths = (
{
closed = 1;
nodes = (
"156 697 OFFCURVE",
"130 723 OFFCURVE",
"98 723 CURVE SMOOTH",
"65 723 OFFCURVE",
"39 697 OFFCURVE",
"39 665 CURVE SMOOTH",
"39 632 OFFCURVE",
"65 606 OFFCURVE",
"98 606 CURVE SMOOTH",
"130 606 OFFCURVE",
"156 632 OFFCURVE",
"156 665 CURVE SMOOTH"
);
}
);
width = 195;
}
);
note = "\012    dotaccent\012  ";
unicode = 02D9;
changeCount = 1;
},
{
color = 4;
glyphname = ring;
lastChange = "2016-10-19 22:54:34 +0000";
layers = (
{
layerId = "4B9C72B8-8622-4F9C-A154-BF8DEE7D8E25";
paths = (
{
closed = 1;
nodes = (
"236 737 OFFCURVE",
"192 781 OFFCURVE",
"138 781 CURVE SMOOTH",
"83 781 OFFCURVE",
"39 737 OFFCURVE",
"39 683 CURVE SMOOTH",
"39 628 OFFCURVE",
"83 584 OFFCURVE",
"138 584 CURVE SMOOTH",
"192 584 OFFCURVE",
"236 628 OFFCURVE",
"236 683 CURVE SMOOTH"
);
},
{
closed = 1;
nodes = (
"165 732 OFFCURVE",
"187 710 OFFCURVE",
"187 683 CURVE SMOOTH",
"187 656 OFFCURVE",
"165 634 OFFCURVE",
"138 634 CURVE SMOOTH",
"110 634 OFFCURVE",
"88 656 OFFCURVE",
"88 683 CURVE SMOOTH",
"88 710 OFFCURVE",
"110 732 OFFCURVE",
"138 732 CURVE SMOOTH"
);
}
);
width = 273;
}
);
note = "\012    ring\012  ";
unicode = 02DA;
changeCount = 1;
},
{
color = 4;
glyphname = ogonek;
lastChange = "2016-10-19 22:54:34 +0000";
layers = (
{
layerId = "4B9C72B8-8622-4F9C-A154-BF8DEE7D8E25";
paths = (
{
closed = 1;
nodes = (
"117 6 OFFCURVE",
"106 -7 OFFCURVE",
"89 -21 CURVE SMOOTH",
"56 -47 OFFCURVE",
"39 -80 OFFCURVE",
"39 -117 CURVE SMOOTH",
"39 -182 OFFCURVE",
"92 -234 OFFCURVE",
"156 -234 CURVE SMOOTH",
"179 -234 OFFCURVE",
"201 -228 OFFCURVE",
"221 -214 CURVE SMOOTH",
"260 -187 LINE",
"269 -179 OFFCURVE",
"273 -169 OFFCURVE",
"273 -156 CURVE SMOOTH",
"273 -135 OFFCURVE",
"256 -117 OFFCURVE",
"234 -117 CURVE SMOOTH",
"226 -117 OFFCURVE",
"218 -120 OFFCURVE",
"211 -125 CURVE SMOOTH",
"177 -150 LINE SMOOTH",
"171 -154 OFFCURVE",
"164 -156 OFFCURVE",
"156 -156 CURVE SMOOTH",
"135 -156 OFFCURVE",
"117 -139 OFFCURVE",
"117 -117 CURVE SMOOTH",
"117 -105 OFFCURVE",
"123 -94 OFFCURVE",
"134 -85 CURVE",
"169 -60 OFFCURVE",
"189 -35 OFFCURVE",
"194 -11 CURVE",
"195 -8 OFFCURVE",
"195 -4 OFFCURVE",
"195 0 CURVE",
"195 10 OFFCURVE",
"191 19 OFFCURVE",
"184 26 CURVE SMOOTH",
"168 42 OFFCURVE",
"135 43 OFFCURVE",
"122 18 CURVE"
);
}
);
width = 313;
}
);
note = "\012    ogonek\012  ";
unicode = 02DB;
changeCount = 1;
},
{
color = 4;
glyphname = tilde;
lastChange = "2016-10-19 22:54:34 +0000";
layers = (
{
layerId = "4B9C72B8-8622-4F9C-A154-BF8DEE7D8E25";
paths = (
{
closed = 1;
nodes = (
"274 656 OFFCURVE",
"290 662 OFFCURVE",
"309 662 CURVE SMOOTH",
"330 662 OFFCURVE",
"349 654 OFFCURVE",
"364 639 CURVE",
"372 631 OFFCURVE",
"381 628 OFFCURVE",
"391 628 CURVE SMOOTH",
"413 628 OFFCURVE",
"430 646 OFFCURVE",
"430 667 CURVE SMOOTH",
"430 677 OFFCURVE",
"427 687 OFFCURVE",
"419 694 CURVE SMOOTH",
"389 725 OFFCURVE",
"352 740 OFFCURVE",
"309 740 CURVE SMOOTH",
"269 740 OFFCURVE",
"234 727 OFFCURVE",
"205 701 CURVE",
"191 690 OFFCURVE",
"174 684 OFFCURVE",
"156 684 CURVE SMOOTH",
"135 684 OFFCURVE",
"116 692 OFFCURVE",
"101 708 CURVE",
"93 715 OFFCURVE",
"84 718 OFFCURVE",
"74 718 CURVE SMOOTH",
"52 718 OFFCURVE",
"35 701 OFFCURVE",
"35 679 CURVE SMOOTH",
"35 669 OFFCURVE",
"38 660 OFFCURVE",
"45 652 CURVE SMOOTH",
"76 621 OFFCURVE",
"113 606 OFFCURVE",
"156 606 CURVE SMOOTH",
"196 606 OFFCURVE",
"230 619 OFFCURVE",
"260 645 CURVE"
);
}
);
width = 469;
}
);
note = "\012    tilde\012  ";
unicode = 02DC;
changeCount = 1;
},
{
color = 4;
glyphname = hungarumlaut;
lastChange = "2016-10-19 22:54:34 +0000";
layers = (
{
layerId = "4B9C72B8-8622-4F9C-A154-BF8DEE7D8E25";
paths = (
{
closed = 1;
nodes = (
"166 748 OFFCURVE",
"156 771 OFFCURVE",
"136 779 CURVE",
"131 780 OFFCURVE",
"126 781 OFFCURVE",
"122 781 CURVE SMOOTH",
"117 781 OFFCURVE",
"112 780 OFFCURVE",
"106 778 CURVE",
"96 774 OFFCURVE",
"89 767 OFFCURVE",
"85 757 CURVE",
"41 617 LINE",
"40 613 OFFCURVE",
"39 609 OFFCURVE",
"39 606 CURVE SMOOTH",
"39 602 OFFCURVE",
"40 598 OFFCURVE",
"42 594 CURVE",
"53 571 OFFCURVE",
"84 572 OFFCURVE",
"96 595 CURVE SMOOTH",
"158 728 LINE"
);
},
{
closed = 1;
nodes = (
"317 748 OFFCURVE",
"308 771 OFFCURVE",
"288 779 CURVE",
"283 780 OFFCURVE",
"278 781 OFFCURVE",
"273 781 CURVE SMOOTH",
"268 781 OFFCURVE",
"263 780 OFFCURVE",
"258 778 CURVE",
"248 774 OFFCURVE",
"241 767 OFFCURVE",
"237 757 CURVE",
"192 617 LINE",
"191 613 OFFCURVE",
"190 609 OFFCURVE",
"190 606 CURVE SMOOTH",
"190 602 OFFCURVE",
"191 598 OFFCURVE",
"193 594 CURVE",
"205 571 OFFCURVE",
"236 572 OFFCURVE",
"247 595 CURVE SMOOTH",
"310 728 LINE"
);
}
);
width = 352;
}
);
note = "\012    hungarumlaut\012  ";
unicode = 02DD;
changeCount = 1;
},
{
color = 4;
glyphname = endash;
lastChange = "2016-10-19 22:54:34 +0000";
layers = (
{
layerId = "4B9C72B8-8622-4F9C-A154-BF8DEE7D8E25";
paths = (
{
closed = 1;
nodes = (
"412 234 OFFCURVE",
"430 252 OFFCURVE",
"430 273 CURVE SMOOTH",
"430 295 OFFCURVE",
"412 313 OFFCURVE",
"391 313 CURVE SMOOTH",
"0 313 LINE SMOOTH",
"-21 313 OFFCURVE",
"-39 295 OFFCURVE",
"-39 273 CURVE SMOOTH",
"-39 252 OFFCURVE",
"-21 234 OFFCURVE",
"0 234 CURVE SMOOTH",
"391 234 LINE SMOOTH"
);
}
);
width = 391;
}
);
note = "\012    endash\012  ";
unicode = 2013;
changeCount = 1;
},
{
color = 4;
glyphname = emdash;
lastChange = "2016-10-19 22:54:34 +0000";
layers = (
{
layerId = "4B9C72B8-8622-4F9C-A154-BF8DEE7D8E25";
paths = (
{
closed = 1;
nodes = (
"959 234 OFFCURVE",
"977 252 OFFCURVE",
"977 273 CURVE SMOOTH",
"977 295 OFFCURVE",
"959 313 OFFCURVE",
"938 313 CURVE SMOOTH",
"0 313 LINE SMOOTH",
"-21 313 OFFCURVE",
"-39 295 OFFCURVE",
"-39 273 CURVE SMOOTH",
"-39 252 OFFCURVE",
"-21 234 OFFCURVE",
"0 234 CURVE SMOOTH",
"938 234 LINE SMOOTH"
);
}
);
width = 938;
}
);
note = "\012    emdash\012  ";
unicode = 2014;
changeCount = 1;
},
{
color = 4;
glyphname = quoteleft;
lastChange = "2016-10-19 22:54:34 +0000";
layers = (
{
layerId = "4B9C72B8-8622-4F9C-A154-BF8DEE7D8E25";
paths = (
{
closed = 1;
nodes = (
"182 515 OFFCURVE",
"181 521 OFFCURVE",
"178 527 CURVE",
"147 592 OFFCURVE",
"148 663 OFFCURVE",
"180 740 CURVE SMOOTH",
"181 744 OFFCURVE",
"182 748 OFFCURVE",
"182 752 CURVE SMOOTH",
"182 768 OFFCURVE",
"169 781 OFFCURVE",
"153 781 CURVE SMOOTH",
"145 781 OFFCURVE",
"138 778 OFFCURVE",
"133 773 CURVE",
"83 713 OFFCURVE",
"59 655 OFFCURVE",
"59 598 CURVE SMOOTH",
"59 561 OFFCURVE",
"69 524 OFFCURVE",
"89 487 CURVE",
"99 468 OFFCURVE",
"113 459 OFFCURVE",
"133 459 CURVE SMOOTH",
"160 459 OFFCURVE",
"182 481 OFFCURVE",
"182 508 CURVE SMOOTH"
);
}
);
width = 234;
}
);
note = "\012    quoteleft\012  ";
unicode = 2018;
changeCount = 1;
},
{
color = 4;
glyphname = quoteright;
lastChange = "2016-10-19 22:54:34 +0000";
layers = (
{
layerId = "4B9C72B8-8622-4F9C-A154-BF8DEE7D8E25";
paths = (
{
closed = 1;
nodes = (
"59 725 OFFCURVE",
"60 719 OFFCURVE",
"63 713 CURVE",
"93 648 OFFCURVE",
"93 578 OFFCURVE",
"61 500 CURVE SMOOTH",
"60 497 OFFCURVE",
"59 492 OFFCURVE",
"59 488 CURVE SMOOTH",
"59 472 OFFCURVE",
"72 459 OFFCURVE",
"87 459 CURVE SMOOTH",
"96 459 OFFCURVE",
"103 462 OFFCURVE",
"108 467 CURVE",
"157 527 OFFCURVE",
"182 585 OFFCURVE",
"182 642 CURVE SMOOTH",
"182 680 OFFCURVE",
"172 716 OFFCURVE",
"151 753 CURVE",
"142 772 OFFCURVE",
"127 781 OFFCURVE",
"107 781 CURVE SMOOTH",
"81 781 OFFCURVE",
"59 759 OFFCURVE",
"59 732 CURVE SMOOTH"
);
}
);
width = 234;
}
);
note = "\012    quoteright\012  ";
unicode = 2019;
changeCount = 1;
},
{
color = 4;
glyphname = quotesinglbase;
lastChange = "2016-10-19 22:54:34 +0000";
layers = (
{
layerId = "4B9C72B8-8622-4F9C-A154-BF8DEE7D8E25";
paths = (
{
closed = 1;
nodes = (
"59 100 OFFCURVE",
"60 93 OFFCURVE",
"63 87 CURVE",
"93 23 OFFCURVE",
"93 -48 OFFCURVE",
"61 -125 CURVE SMOOTH",
"60 -129 OFFCURVE",
"59 -133 OFFCURVE",
"59 -138 CURVE SMOOTH",
"59 -153 OFFCURVE",
"72 -167 OFFCURVE",
"87 -167 CURVE SMOOTH",
"96 -167 OFFCURVE",
"103 -164 OFFCURVE",
"108 -158 CURVE",
"157 -99 OFFCURVE",
"182 -41 OFFCURVE",
"182 17 CURVE SMOOTH",
"182 54 OFFCURVE",
"172 91 OFFCURVE",
"151 127 CURVE",
"142 146 OFFCURVE",
"127 156 OFFCURVE",
"107 156 CURVE SMOOTH",
"81 156 OFFCURVE",
"59 134 OFFCURVE",
"59 107 CURVE SMOOTH"
);
}
);
width = 234;
}
);
note = "\012    quotesinglbase\012  ";
unicode = 201A;
changeCount = 1;
},
{
color = 4;
glyphname = quotedblleft;
lastChange = "2016-10-19 22:54:34 +0000";
layers = (
{
layerId = "4B9C72B8-8622-4F9C-A154-BF8DEE7D8E25";
paths = (
{
closed = 1;
nodes = (
"163 516 OFFCURVE",
"161 522 OFFCURVE",
"159 528 CURVE",
"128 593 OFFCURVE",
"128 664 OFFCURVE",
"160 741 CURVE SMOOTH",
"162 745 OFFCURVE",
"163 749 OFFCURVE",
"163 753 CURVE SMOOTH",
"163 769 OFFCURVE",
"149 782 OFFCURVE",
"134 782 CURVE SMOOTH",
"125 782 OFFCURVE",
"119 779 OFFCURVE",
"113 774 CURVE",
"64 714 OFFCURVE",
"39 656 OFFCURVE",
"39 599 CURVE SMOOTH",
"39 562 OFFCURVE",
"49 525 OFFCURVE",
"70 488 CURVE",
"79 469 OFFCURVE",
"94 460 OFFCURVE",
"114 460 CURVE SMOOTH",
"141 460 OFFCURVE",
"163 482 OFFCURVE",
"163 509 CURVE SMOOTH"
);
},
{
closed = 1;
nodes = (
"332 516 OFFCURVE",
"331 522 OFFCURVE",
"328 528 CURVE",
"297 593 OFFCURVE",
"298 664 OFFCURVE",
"330 741 CURVE SMOOTH",
"331 745 OFFCURVE",
"332 749 OFFCURVE",
"332 753 CURVE SMOOTH",
"332 769 OFFCURVE",
"319 782 OFFCURVE",
"303 782 CURVE SMOOTH",
"295 782 OFFCURVE",
"288 779 OFFCURVE",
"283 774 CURVE",
"233 714 OFFCURVE",
"208 656 OFFCURVE",
"208 599 CURVE SMOOTH",
"208 562 OFFCURVE",
"219 525 OFFCURVE",
"239 488 CURVE",
"249 469 OFFCURVE",
"263 460 OFFCURVE",
"283 460 CURVE SMOOTH",
"310 460 OFFCURVE",
"332 482 OFFCURVE",
"332 509 CURVE SMOOTH"
);
}
);
width = 371;
}
);
note = "\012    quotedblleft\012  ";
unicode = 201C;
changeCount = 1;
},
{
color = 4;
glyphname = quotedblright;
lastChange = "2016-10-19 22:54:34 +0000";
layers = (
{
layerId = "4B9C72B8-8622-4F9C-A154-BF8DEE7D8E25";
paths = (
{
closed = 1;
nodes = (
"39 726 OFFCURVE",
"41 720 OFFCURVE",
"43 714 CURVE",
"74 649 OFFCURVE",
"73 579 OFFCURVE",
"42 501 CURVE SMOOTH",
"40 498 OFFCURVE",
"39 493 OFFCURVE",
"39 489 CURVE SMOOTH",
"39 473 OFFCURVE",
"52 460 OFFCURVE",
"68 460 CURVE SMOOTH",
"76 460 OFFCURVE",
"83 463 OFFCURVE",
"88 468 CURVE",
"138 528 OFFCURVE",
"163 586 OFFCURVE",
"163 643 CURVE SMOOTH",
"163 681 OFFCURVE",
"152 717 OFFCURVE",
"132 754 CURVE",
"123 773 OFFCURVE",
"108 782 OFFCURVE",
"88 782 CURVE SMOOTH",
"61 782 OFFCURVE",
"39 760 OFFCURVE",
"39 733 CURVE SMOOTH"
);
},
{
closed = 1;
nodes = (
"208 726 OFFCURVE",
"210 720 OFFCURVE",
"212 714 CURVE",
"243 649 OFFCURVE",
"243 579 OFFCURVE",
"211 501 CURVE SMOOTH",
"209 498 OFFCURVE",
"208 493 OFFCURVE",
"208 489 CURVE SMOOTH",
"208 473 OFFCURVE",
"222 460 OFFCURVE",
"237 460 CURVE SMOOTH",
"246 460 OFFCURVE",
"252 463 OFFCURVE",
"258 468 CURVE",
"307 528 OFFCURVE",
"332 586 OFFCURVE",
"332 643 CURVE SMOOTH",
"332 681 OFFCURVE",
"322 717 OFFCURVE",
"301 754 CURVE",
"292 773 OFFCURVE",
"277 782 OFFCURVE",
"257 782 CURVE SMOOTH",
"230 782 OFFCURVE",
"208 760 OFFCURVE",
"208 733 CURVE SMOOTH"
);
}
);
width = 371;
}
);
note = "\012    quotedblright\012  ";
unicode = 201D;
changeCount = 1;
},
{
color = 4;
glyphname = quotedblbase;
lastChange = "2016-10-19 22:54:34 +0000";
layers = (
{
layerId = "4B9C72B8-8622-4F9C-A154-BF8DEE7D8E25";
paths = (
{
closed = 1;
nodes = (
"39 100 OFFCURVE",
"41 94 OFFCURVE",
"43 88 CURVE",
"74 23 OFFCURVE",
"73 -47 OFFCURVE",
"42 -125 CURVE SMOOTH",
"40 -128 OFFCURVE",
"39 -133 OFFCURVE",
"39 -137 CURVE SMOOTH",
"39 -153 OFFCURVE",
"52 -166 OFFCURVE",
"68 -166 CURVE SMOOTH",
"76 -166 OFFCURVE",
"83 -163 OFFCURVE",
"88 -158 CURVE",
"138 -98 OFFCURVE",
"163 -40 OFFCURVE",
"163 17 CURVE SMOOTH",
"163 55 OFFCURVE",
"152 91 OFFCURVE",
"132 128 CURVE",
"123 147 OFFCURVE",
"108 156 OFFCURVE",
"88 156 CURVE SMOOTH",
"61 156 OFFCURVE",
"39 134 OFFCURVE",
"39 107 CURVE SMOOTH"
);
},
{
closed = 1;
nodes = (
"208 100 OFFCURVE",
"210 94 OFFCURVE",
"212 88 CURVE",
"243 23 OFFCURVE",
"243 -47 OFFCURVE",
"211 -125 CURVE SMOOTH",
"209 -128 OFFCURVE",
"208 -133 OFFCURVE",
"208 -137 CURVE SMOOTH",
"208 -153 OFFCURVE",
"222 -166 OFFCURVE",
"237 -166 CURVE SMOOTH",
"246 -166 OFFCURVE",
"252 -163 OFFCURVE",
"258 -158 CURVE",
"307 -98 OFFCURVE",
"332 -40 OFFCURVE",
"332 17 CURVE SMOOTH",
"332 55 OFFCURVE",
"322 91 OFFCURVE",
"301 128 CURVE",
"292 147 OFFCURVE",
"277 156 OFFCURVE",
"257 156 CURVE SMOOTH",
"230 156 OFFCURVE",
"208 134 OFFCURVE",
"208 107 CURVE SMOOTH"
);
}
);
width = 371;
}
);
note = "\012    quotedblbase\012  ";
unicode = 201E;
changeCount = 1;
},
{
color = 4;
glyphname = dagger;
lastChange = "2016-10-19 22:54:34 +0000";
layers = (
{
layerId = "4B9C72B8-8622-4F9C-A154-BF8DEE7D8E25";
paths = (
{
closed = 1;
nodes = (
"234 -195 LINE SMOOTH",
"234 -216 OFFCURVE",
"252 -234 OFFCURVE",
"273 -234 CURVE SMOOTH",
"295 -234 OFFCURVE",
"313 -216 OFFCURVE",
"313 -195 CURVE SMOOTH",
"313 469 LINE",
"469 469 LINE SMOOTH",
"490 469 OFFCURVE",
"508 486 OFFCURVE",
"508 508 CURVE SMOOTH",
"508 529 OFFCURVE",
"490 547 OFFCURVE",
"469 547 CURVE SMOOTH",
"313 547 LINE",
"313 742 LINE SMOOTH",
"313 764 OFFCURVE",
"295 781 OFFCURVE",
"273 781 CURVE SMOOTH",
"252 781 OFFCURVE",
"234 764 OFFCURVE",
"234 742 CURVE SMOOTH",
"234 547 LINE",
"78 547 LINE SMOOTH",
"57 547 OFFCURVE",
"39 529 OFFCURVE",
"39 508 CURVE SMOOTH",
"39 486 OFFCURVE",
"57 469 OFFCURVE",
"78 469 CURVE SMOOTH",
"234 469 LINE"
);
}
);
width = 547;
}
);
note = "\012    dagger\012  ";
unicode = 2020;
changeCount = 1;
},
{
color = 4;
glyphname = daggerdbl;
lastChange = "2016-10-19 22:54:34 +0000";
layers = (
{
layerId = "4B9C72B8-8622-4F9C-A154-BF8DEE7D8E25";
paths = (
{
closed = 1;
nodes = (
"57 78 OFFCURVE",
"39 61 OFFCURVE",
"39 39 CURVE SMOOTH",
"39 18 OFFCURVE",
"57 0 OFFCURVE",
"78 0 CURVE SMOOTH",
"234 0 LINE",
"234 -195 LINE SMOOTH",
"234 -216 OFFCURVE",
"252 -234 OFFCURVE",
"273 -234 CURVE SMOOTH",
"295 -234 OFFCURVE",
"313 -216 OFFCURVE",
"313 -195 CURVE SMOOTH",
"313 0 LINE",
"469 0 LINE SMOOTH",
"490 0 OFFCURVE",
"508 18 OFFCURVE",
"508 39 CURVE SMOOTH",
"508 61 OFFCURVE",
"490 78 OFFCURVE",
"469 78 CURVE SMOOTH",
"313 78 LINE",
"313 469 LINE",
"469 469 LINE SMOOTH",
"490 469 OFFCURVE",
"508 486 OFFCURVE",
"508 508 CURVE SMOOTH",
"508 529 OFFCURVE",
"490 547 OFFCURVE",
"469 547 CURVE SMOOTH",
"313 547 LINE",
"313 742 LINE SMOOTH",
"313 764 OFFCURVE",
"295 781 OFFCURVE",
"273 781 CURVE SMOOTH",
"252 781 OFFCURVE",
"234 764 OFFCURVE",
"234 742 CURVE SMOOTH",
"234 547 LINE",
"78 547 LINE SMOOTH",
"57 547 OFFCURVE",
"39 529 OFFCURVE",
"39 508 CURVE SMOOTH",
"39 486 OFFCURVE",
"57 469 OFFCURVE",
"78 469 CURVE SMOOTH",
"234 469 LINE",
"234 78 LINE",
"78 78 LINE SMOOTH"
);
}
);
width = 547;
}
);
note = "\012    daggerdbl\012  ";
unicode = 2021;
changeCount = 1;
},
{
color = 4;
glyphname = bullet;
lastChange = "2016-10-19 22:54:34 +0000";
layers = (
{
layerId = "4B9C72B8-8622-4F9C-A154-BF8DEE7D8E25";
paths = (
{
closed = 1;
nodes = (
"313 455 OFFCURVE",
"260 508 OFFCURVE",
"195 508 CURVE SMOOTH",
"131 508 OFFCURVE",
"78 455 OFFCURVE",
"78 391 CURVE SMOOTH",
"78 326 OFFCURVE",
"131 273 OFFCURVE",
"195 273 CURVE SMOOTH",
"260 273 OFFCURVE",
"313 326 OFFCURVE",
"313 391 CURVE SMOOTH"
);
}
);
width = 391;
}
);
note = "\012    bullet\012  ";
unicode = 2022;
changeCount = 1;
},
{
color = 4;
glyphname = ellipsis;
lastChange = "2016-10-19 22:54:34 +0000";
layers = (
{
layerId = "4B9C72B8-8622-4F9C-A154-BF8DEE7D8E25";
paths = (
{
closed = 1;
nodes = (
"156 91 OFFCURVE",
"130 117 OFFCURVE",
"98 117 CURVE SMOOTH",
"65 117 OFFCURVE",
"39 91 OFFCURVE",
"39 59 CURVE SMOOTH",
"39 26 OFFCURVE",
"65 0 OFFCURVE",
"98 0 CURVE SMOOTH",
"130 0 OFFCURVE",
"156 26 OFFCURVE",
"156 59 CURVE SMOOTH"
);
},
{
closed = 1;
nodes = (
"391 91 OFFCURVE",
"365 117 OFFCURVE",
"332 117 CURVE SMOOTH",
"299 117 OFFCURVE",
"273 91 OFFCURVE",
"273 59 CURVE SMOOTH",
"273 26 OFFCURVE",
"299 0 OFFCURVE",
"332 0 CURVE SMOOTH",
"365 0 OFFCURVE",
"391 26 OFFCURVE",
"391 59 CURVE SMOOTH"
);
},
{
closed = 1;
nodes = (
"625 91 OFFCURVE",
"599 117 OFFCURVE",
"566 117 CURVE SMOOTH",
"534 117 OFFCURVE",
"508 91 OFFCURVE",
"508 59 CURVE SMOOTH",
"508 26 OFFCURVE",
"534 0 OFFCURVE",
"566 0 CURVE SMOOTH",
"599 0 OFFCURVE",
"625 26 OFFCURVE",
"625 59 CURVE SMOOTH"
);
}
);
width = 703;
}
);
note = "\012    ellipsis\012  ";
unicode = 2026;
changeCount = 1;
},
{
color = 4;
glyphname = guilsinglleft;
lastChange = "2016-10-19 22:54:34 +0000";
layers = (
{
layerId = "4B9C72B8-8622-4F9C-A154-BF8DEE7D8E25";
paths = (
{
closed = 1;
nodes = (
"41 286 OFFCURVE",
"39 279 OFFCURVE",
"39 273 CURVE SMOOTH",
"39 266 OFFCURVE",
"41 259 OFFCURVE",
"45 252 CURVE SMOOTH",
"159 24 LINE",
"161 20 OFFCURVE",
"164 15 OFFCURVE",
"168 12 CURVE",
"175 4 OFFCURVE",
"185 0 OFFCURVE",
"195 0 CURVE SMOOTH",
"217 0 OFFCURVE",
"234 18 OFFCURVE",
"234 39 CURVE SMOOTH",
"234 45 OFFCURVE",
"233 50 OFFCURVE",
"231 56 CURVE",
"122 273 LINE",
"231 491 LINE",
"233 496 OFFCURVE",
"234 501 OFFCURVE",
"234 507 CURVE SMOOTH",
"234 529 OFFCURVE",
"217 546 OFFCURVE",
"195 546 CURVE SMOOTH",
"185 546 OFFCURVE",
"175 542 OFFCURVE",
"168 535 CURVE SMOOTH",
"164 531 OFFCURVE",
"161 527 OFFCURVE",
"159 522 CURVE",
"44 292 LINE SMOOTH"
);
}
);
width = 273;
}
);
note = "\012    guilsinglleft\012  ";
unicode = 2039;
changeCount = 1;
},
{
color = 4;
glyphname = guilsinglright;
lastChange = "2016-10-19 22:54:34 +0000";
layers = (
{
layerId = "4B9C72B8-8622-4F9C-A154-BF8DEE7D8E25";
paths = (
{
closed = 1;
nodes = (
"234 279 OFFCURVE",
"233 286 OFFCURVE",
"229 292 CURVE SMOOTH",
"114 522 LINE",
"112 527 OFFCURVE",
"109 531 OFFCURVE",
"105 535 CURVE SMOOTH",
"98 542 OFFCURVE",
"89 546 OFFCURVE",
"78 546 CURVE SMOOTH",
"57 546 OFFCURVE",
"39 529 OFFCURVE",
"39 507 CURVE SMOOTH",
"39 501 OFFCURVE",
"40 496 OFFCURVE",
"42 491 CURVE",
"151 273 LINE",
"42 56 LINE",
"40 50 OFFCURVE",
"39 45 OFFCURVE",
"39 39 CURVE SMOOTH",
"39 18 OFFCURVE",
"57 0 OFFCURVE",
"78 0 CURVE SMOOTH",
"89 0 OFFCURVE",
"98 4 OFFCURVE",
"105 12 CURVE",
"109 15 OFFCURVE",
"112 20 OFFCURVE",
"114 24 CURVE",
"229 252 LINE SMOOTH",
"232 259 OFFCURVE",
"234 266 OFFCURVE",
"234 273 CURVE SMOOTH"
);
}
);
width = 273;
}
);
note = "\012    guilsinglright\012  ";
unicode = 203A;
changeCount = 1;
},
{
color = 4;
glyphname = fraction;
lastChange = "2016-10-19 22:54:34 +0000";
layers = (
{
layerId = "4B9C72B8-8622-4F9C-A154-BF8DEE7D8E25";
paths = (
{
closed = 1;
nodes = (
"458 781 OFFCURVE",
"447 776 OFFCURVE",
"438 767 CURVE SMOOTH",
"-187 64 LINE",
"-192 57 OFFCURVE",
"-195 48 OFFCURVE",
"-195 39 CURVE SMOOTH",
"-195 18 OFFCURVE",
"-178 0 OFFCURVE",
"-156 0 CURVE SMOOTH",
"-145 0 OFFCURVE",
"-134 5 OFFCURVE",
"-126 14 CURVE SMOOTH",
"500 718 LINE",
"505 725 OFFCURVE",
"508 733 OFFCURVE",
"508 742 CURVE SMOOTH",
"508 764 OFFCURVE",
"490 781 OFFCURVE",
"469 781 CURVE SMOOTH"
);
}
);
width = 313;
}
);
note = "\012    fraction\012  ";
unicode = 2044;
changeCount = 1;
},
{
color = 4;
glyphname = franc;
lastChange = "2016-10-19 22:54:34 +0000";
layers = (
{
layerId = "4B9C72B8-8622-4F9C-A154-BF8DEE7D8E25";
paths = (
{
closed = 1;
nodes = (
"57 234 OFFCURVE",
"39 217 OFFCURVE",
"39 195 CURVE SMOOTH",
"39 174 OFFCURVE",
"57 156 OFFCURVE",
"78 156 CURVE SMOOTH",
"156 156 LINE",
"156 39 LINE SMOOTH",
"156 18 OFFCURVE",
"174 0 OFFCURVE",
"195 0 CURVE SMOOTH",
"217 0 OFFCURVE",
"234 18 OFFCURVE",
"234 39 CURVE SMOOTH",
"234 156 LINE",
"313 156 LINE SMOOTH",
"334 156 OFFCURVE",
"352 174 OFFCURVE",
"352 195 CURVE SMOOTH",
"352 217 OFFCURVE",
"334 234 OFFCURVE",
"313 234 CURVE SMOOTH",
"234 234 LINE",
"234 352 LINE",
"547 352 LINE SMOOTH",
"568 352 OFFCURVE",
"586 369 OFFCURVE",
"586 391 CURVE SMOOTH",
"586 412 OFFCURVE",
"568 430 OFFCURVE",
"547 430 CURVE SMOOTH",
"234 430 LINE",
"234 703 LINE",
"664 703 LINE SMOOTH",
"686 703 OFFCURVE",
"703 721 OFFCURVE",
"703 742 CURVE SMOOTH",
"703 764 OFFCURVE",
"686 781 OFFCURVE",
"664 781 CURVE SMOOTH",
"195 781 LINE SMOOTH",
"174 781 OFFCURVE",
"156 764 OFFCURVE",
"156 742 CURVE SMOOTH",
"156 234 LINE",
"78 234 LINE SMOOTH"
);
}
);
width = 742;
}
);
note = "\012    franc\012  ";
unicode = 20A3;
changeCount = 1;
},
{
color = 4;
glyphname = lira;
lastChange = "2016-10-19 22:54:34 +0000";
layers = (
{
layerId = "4B9C72B8-8622-4F9C-A154-BF8DEE7D8E25";
paths = (
{
closed = 1;
nodes = (
"57 454 OFFCURVE",
"39 437 OFFCURVE",
"39 415 CURVE SMOOTH",
"39 394 OFFCURVE",
"57 376 OFFCURVE",
"78 376 CURVE SMOOTH",
"126 376 LINE",
"128 360 OFFCURVE",
"130 343 OFFCURVE",
"131 327 CURVE",
"78 327 LINE SMOOTH",
"57 327 OFFCURVE",
"39 310 OFFCURVE",
"39 288 CURVE SMOOTH",
"39 267 OFFCURVE",
"57 249 OFFCURVE",
"78 249 CURVE SMOOTH",
"130 249 LINE",
"125 180 OFFCURVE",
"109 115 OFFCURVE",
"81 55 CURVE",
"79 50 OFFCURVE",
"78 44 OFFCURVE",
"78 39 CURVE SMOOTH",
"78 18 OFFCURVE",
"96 0 OFFCURVE",
"117 0 CURVE SMOOTH",
"391 0 LINE SMOOTH",
"401 0 OFFCURVE",
"411 4 OFFCURVE",
"418 12 CURVE SMOOTH",
"422 15 OFFCURVE",
"425 19 OFFCURVE",
"427 23 CURVE",
"464 99 LINE",
"467 104 OFFCURVE",
"469 110 OFFCURVE",
"469 117 CURVE SMOOTH",
"469 139 OFFCURVE",
"451 156 OFFCURVE",
"430 156 CURVE SMOOTH",
"415 156 OFFCURVE",
"403 150 OFFCURVE",
"396 137 CURVE",
"366 78 LINE",
"174 78 LINE",
"194 130 OFFCURVE",
"206 188 OFFCURVE",
"209 249 CURVE",
"352 249 LINE SMOOTH",
"373 249 OFFCURVE",
"391 267 OFFCURVE",
"391 288 CURVE SMOOTH",
"391 310 OFFCURVE",
"373 327 OFFCURVE",
"352 327 CURVE SMOOTH",
"210 327 LINE",
"209 343 OFFCURVE",
"208 360 OFFCURVE",
"206 376 CURVE",
"352 376 LINE SMOOTH",
"373 376 OFFCURVE",
"391 394 OFFCURVE",
"391 415 CURVE SMOOTH",
"391 437 OFFCURVE",
"373 454 OFFCURVE",
"352 454 CURVE SMOOTH",
"193 454 LINE",
"186 487 OFFCURVE",
"177 517 OFFCURVE",
"166 542 CURVE SMOOTH",
"159 557 OFFCURVE",
"156 571 OFFCURVE",
"156 586 CURVE SMOOTH",
"156 650 OFFCURVE",
"209 703 OFFCURVE",
"273 703 CURVE SMOOTH",
"306 703 OFFCURVE",
"333 692 OFFCURVE",
"356 669 CURVE",
"362 663 OFFCURVE",
"369 654 OFFCURVE",
"378 643 CURVE",
"385 635 OFFCURVE",
"395 631 OFFCURVE",
"405 631 CURVE SMOOTH",
"427 631 OFFCURVE",
"444 648 OFFCURVE",
"444 670 CURVE SMOOTH",
"444 688 OFFCURVE",
"431 705 OFFCURVE",
"412 724 CURVE SMOOTH",
"374 762 OFFCURVE",
"328 781 OFFCURVE",
"273 781 CURVE SMOOTH",
"166 781 OFFCURVE",
"78 694 OFFCURVE",
"78 586 CURVE SMOOTH",
"78 562 OFFCURVE",
"83 537 OFFCURVE",
"93 513 CURVE",
"93 513 LINE",
"100 496 OFFCURVE",
"107 476 OFFCURVE",
"112 454 CURVE",
"78 454 LINE SMOOTH"
);
}
);
width = 508;
}
);
note = "\012    lira\012  ";
unicode = 20A4;
changeCount = 1;
},
{
color = 4;
glyphname = peseta;
lastChange = "2016-10-19 22:54:34 +0000";
layers = (
{
layerId = "4B9C72B8-8622-4F9C-A154-BF8DEE7D8E25";
paths = (
{
closed = 1;
nodes = (
"621 452 OFFCURVE",
"664 469 OFFCURVE",
"718 469 CURVE SMOOTH",
"772 469 OFFCURVE",
"818 450 OFFCURVE",
"856 412 CURVE SMOOTH",
"859 409 OFFCURVE",
"864 404 OFFCURVE",
"870 397 CURVE SMOOTH",
"876 390 OFFCURVE",
"885 387 OFFCURVE",
"896 387 CURVE SMOOTH",
"917 387 OFFCURVE",
"935 404 OFFCURVE",
"935 426 CURVE SMOOTH",
"935 434 OFFCURVE",
"933 442 OFFCURVE",
"928 449 CURVE",
"922 455 OFFCURVE",
"917 461 OFFCURVE",
"911 467 CURVE SMOOTH",
"859 519 OFFCURVE",
"796 545 OFFCURVE",
"723 547 CURVE SMOOTH",
"469 547 LINE",
"469 742 LINE SMOOTH",
"469 764 OFFCURVE",
"451 781 OFFCURVE",
"430 781 CURVE SMOOTH",
"408 781 OFFCURVE",
"391 764 OFFCURVE",
"391 742 CURVE SMOOTH",
"391 690 LINE",
"340 751 OFFCURVE",
"281 781 OFFCURVE",
"215 781 CURVE SMOOTH",
"74 781 LINE SMOOTH",
"55 781 OFFCURVE",
"39 764 OFFCURVE",
"39 742 CURVE SMOOTH",
"39 39 LINE SMOOTH",
"39 18 OFFCURVE",
"55 0 OFFCURVE",
"74 0 CURVE SMOOTH",
"94 0 OFFCURVE",
"109 18 OFFCURVE",
"109 39 CURVE SMOOTH",
"109 273 LINE",
"215 273 LINE SMOOTH",
"281 273 OFFCURVE",
"340 304 OFFCURVE",
"391 365 CURVE",
"391 195 LINE SMOOTH",
"391 65 OFFCURVE",
"456 0 OFFCURVE",
"586 0 CURVE SMOOTH",
"718 0 LINE SMOOTH",
"793 0 OFFCURVE",
"854 24 OFFCURVE",
"901 72 CURVE SMOOTH",
"925 96 OFFCURVE",
"938 124 OFFCURVE",
"938 156 CURVE SMOOTH",
"938 221 OFFCURVE",
"900 251 OFFCURVE",
"841 273 CURVE",
"601 353 LINE SMOOTH",
"585 358 OFFCURVE",
"578 369 OFFCURVE",
"577 384 CURVE",
"577 397 OFFCURVE",
"581 409 OFFCURVE",
"588 418 CURVE"
);
},
{
closed = 1;
nodes = (
"302 703 OFFCURVE",
"373 625 OFFCURVE",
"373 527 CURVE SMOOTH",
"373 430 OFFCURVE",
"302 352 OFFCURVE",
"215 352 CURVE SMOOTH",
"109 352 LINE",
"109 703 LINE",
"215 703 LINE SMOOTH"
);
},
{
closed = 1;
nodes = (
"508 78 OFFCURVE",
"469 117 OFFCURVE",
"469 195 CURVE SMOOTH",
"469 469 LINE",
"528 469 LINE",
"508 446 OFFCURVE",
"498 420 OFFCURVE",
"498 391 CURVE SMOOTH",
"498 326 OFFCURVE",
"536 295 OFFCURVE",
"595 273 CURVE",
"835 194 LINE SMOOTH",
"850 188 OFFCURVE",
"858 178 OFFCURVE",
"859 163 CURVE",
"859 149 OFFCURVE",
"855 138 OFFCURVE",
"847 129 CURVE",
"815 95 OFFCURVE",
"772 78 OFFCURVE",
"718 78 CURVE SMOOTH",
"586 78 LINE SMOOTH"
);
}
);
width = 977;
}
);
note = "\012    peseta\012  ";
unicode = 20A7;
changeCount = 1;
},
{
color = 4;
glyphname = trademark;
lastChange = "2016-10-19 22:54:34 +0000";
layers = (
{
layerId = "4B9C72B8-8622-4F9C-A154-BF8DEE7D8E25";
paths = (
{
closed = 1;
nodes = (
"153 484 LINE SMOOTH",
"153 476 OFFCURVE",
"161 469 OFFCURVE",
"171 469 CURVE SMOOTH",
"181 469 OFFCURVE",
"188 476 OFFCURVE",
"188 484 CURVE SMOOTH",
"188 750 LINE",
"285 750 LINE SMOOTH",
"295 750 OFFCURVE",
"303 757 OFFCURVE",
"303 766 CURVE SMOOTH",
"303 774 OFFCURVE",
"295 781 OFFCURVE",
"285 781 CURVE SMOOTH",
"57 781 LINE SMOOTH",
"47 781 OFFCURVE",
"39 774 OFFCURVE",
"39 766 CURVE SMOOTH",
"39 757 OFFCURVE",
"47 750 OFFCURVE",
"57 750 CURVE SMOOTH",
"153 750 LINE"
);
},
{
closed = 1;
nodes = (
"495 472 OFFCURVE",
"500 469 OFFCURVE",
"508 469 CURVE SMOOTH",
"515 469 OFFCURVE",
"520 471 OFFCURVE",
"523 477 CURVE SMOOTH",
"648 699 LINE",
"648 484 LINE SMOOTH",
"648 476 OFFCURVE",
"656 469 OFFCURVE",
"666 469 CURVE SMOOTH",
"676 469 OFFCURVE",
"684 476 OFFCURVE",
"684 484 CURVE SMOOTH",
"684 766 LINE SMOOTH",
"684 774 OFFCURVE",
"676 781 OFFCURVE",
"666 781 CURVE SMOOTH",
"659 781 OFFCURVE",
"654 778 OFFCURVE",
"650 773 CURVE",
"508 520 LINE",
"365 773 LINE",
"362 778 OFFCURVE",
"356 781 OFFCURVE",
"350 781 CURVE SMOOTH",
"340 781 OFFCURVE",
"332 774 OFFCURVE",
"332 766 CURVE SMOOTH",
"332 484 LINE SMOOTH",
"332 476 OFFCURVE",
"340 469 OFFCURVE",
"350 469 CURVE SMOOTH",
"359 469 OFFCURVE",
"367 476 OFFCURVE",
"367 484 CURVE SMOOTH",
"367 699 LINE",
"492 479 LINE"
);
}
);
width = 732;
}
);
note = "\012    trademark\012  ";
unicode = 2122;
changeCount = 1;
},
{
glyphname = partialdiff;
lastChange = "2016-10-19 22:54:34 +0000";
layers = (
{
layerId = "4B9C72B8-8622-4F9C-A154-BF8DEE7D8E25";
paths = (
{
closed = 1;
nodes = (
"586 624 OFFCURVE",
"428 781 OFFCURVE",
"234 781 CURVE SMOOTH",
"195 781 OFFCURVE",
"159 776 OFFCURVE",
"125 765 CURVE",
"109 761 OFFCURVE",
"93 748 OFFCURVE",
"93 726 CURVE SMOOTH",
"93 705 OFFCURVE",
"110 687 OFFCURVE",
"132 687 CURVE SMOOTH",
"137 687 OFFCURVE",
"142 688 OFFCURVE",
"146 690 CURVE",
"174 699 OFFCURVE",
"204 703 OFFCURVE",
"234 703 CURVE SMOOTH",
"385 703 OFFCURVE",
"490 586 OFFCURVE",
"505 467 CURVE",
"452 521 OFFCURVE",
"388 547 OFFCURVE",
"313 547 CURVE SMOOTH",
"162 547 OFFCURVE",
"39 424 OFFCURVE",
"39 273 CURVE SMOOTH",
"39 123 OFFCURVE",
"162 0 OFFCURVE",
"313 0 CURVE SMOOTH",
"463 0 OFFCURVE",
"586 123 OFFCURVE",
"586 273 CURVE SMOOTH",
"586 430 LINE SMOOTH"
);
},
{
closed = 1;
nodes = (
"420 469 OFFCURVE",
"508 381 OFFCURVE",
"508 273 CURVE SMOOTH",
"508 166 OFFCURVE",
"420 78 OFFCURVE",
"313 78 CURVE SMOOTH",
"205 78 OFFCURVE",
"117 166 OFFCURVE",
"117 273 CURVE SMOOTH",
"117 381 OFFCURVE",
"205 469 OFFCURVE",
"313 469 CURVE SMOOTH"
);
}
);
width = 625;
}
);
note = "\012    partialdiff\012  ";
unicode = 2202;
changeCount = 1;
},
{
glyphname = product;
lastChange = "2016-10-19 22:54:34 +0000";
layers = (
{
layerId = "4B9C72B8-8622-4F9C-A154-BF8DEE7D8E25";
paths = (
{
closed = 1;
nodes = (
"57 781 OFFCURVE",
"39 764 OFFCURVE",
"39 742 CURVE SMOOTH",
"39 -195 LINE SMOOTH",
"39 -217 OFFCURVE",
"57 -234 OFFCURVE",
"78 -234 CURVE SMOOTH",
"100 -234 OFFCURVE",
"117 -217 OFFCURVE",
"117 -195 CURVE SMOOTH",
"117 703 LINE",
"586 703 LINE",
"586 -195 LINE SMOOTH",
"586 -217 OFFCURVE",
"604 -234 OFFCURVE",
"625 -234 CURVE SMOOTH",
"646 -234 OFFCURVE",
"664 -217 OFFCURVE",
"664 -195 CURVE SMOOTH",
"664 742 LINE SMOOTH",
"664 764 OFFCURVE",
"646 781 OFFCURVE",
"625 781 CURVE SMOOTH",
"78 781 LINE SMOOTH"
);
}
);
width = 703;
}
);
note = "\012    product\012  ";
unicode = 220F;
changeCount = 1;
},
{
glyphname = summation;
lastChange = "2016-10-19 22:54:34 +0000";
layers = (
{
layerId = "4B9C72B8-8622-4F9C-A154-BF8DEE7D8E25";
paths = (
{
closed = 1;
nodes = (
"499 249 LINE SMOOTH",
"505 256 OFFCURVE",
"508 264 OFFCURVE",
"508 273 CURVE SMOOTH",
"508 283 OFFCURVE",
"505 291 OFFCURVE",
"499 298 CURVE SMOOTH",
"161 703 LINE",
"625 703 LINE SMOOTH",
"646 703 OFFCURVE",
"664 721 OFFCURVE",
"664 742 CURVE SMOOTH",
"664 764 OFFCURVE",
"646 781 OFFCURVE",
"625 781 CURVE SMOOTH",
"78 781 LINE SMOOTH",
"57 781 OFFCURVE",
"39 764 OFFCURVE",
"39 742 CURVE SMOOTH",
"39 733 OFFCURVE",
"42 725 OFFCURVE",
"47 718 CURVE",
"418 273 LINE",
"47 -171 LINE",
"42 -178 OFFCURVE",
"39 -186 OFFCURVE",
"39 -195 CURVE SMOOTH",
"39 -217 OFFCURVE",
"55 -234 OFFCURVE",
"84 -234 CURVE SMOOTH",
"625 -234 LINE SMOOTH",
"646 -234 OFFCURVE",
"664 -217 OFFCURVE",
"664 -195 CURVE SMOOTH",
"664 -174 OFFCURVE",
"646 -156 OFFCURVE",
"625 -156 CURVE SMOOTH",
"162 -156 LINE"
);
}
);
width = 703;
}
);
note = "\012    summation\012  ";
unicode = 2211;
changeCount = 1;
},
{
color = 4;
glyphname = minus;
lastChange = "2016-10-19 22:54:34 +0000";
layers = (
{
layerId = "4B9C72B8-8622-4F9C-A154-BF8DEE7D8E25";
paths = (
{
closed = 1;
nodes = (
"490 313 OFFCURVE",
"508 330 OFFCURVE",
"508 352 CURVE SMOOTH",
"508 373 OFFCURVE",
"490 391 OFFCURVE",
"469 391 CURVE SMOOTH",
"78 391 LINE SMOOTH",
"57 391 OFFCURVE",
"39 373 OFFCURVE",
"39 352 CURVE SMOOTH",
"39 330 OFFCURVE",
"57 313 OFFCURVE",
"78 313 CURVE SMOOTH",
"469 313 LINE SMOOTH"
);
}
);
width = 547;
}
);
note = "\012    minus\012  ";
unicode = 2212;
changeCount = 1;
},
{
glyphname = radical;
lastChange = "2016-10-19 22:54:34 +0000";
layers = (
{
layerId = "4B9C72B8-8622-4F9C-A154-BF8DEE7D8E25";
paths = (
{
closed = 1;
nodes = (
"614 859 OFFCURVE",
"605 855 OFFCURVE",
"598 848 CURVE",
"594 844 OFFCURVE",
"591 840 OFFCURVE",
"589 835 CURVE",
"234 127 LINE",
"114 367 LINE",
"112 372 OFFCURVE",
"109 375 OFFCURVE",
"106 379 CURVE",
"98 387 OFFCURVE",
"89 391 OFFCURVE",
"78 391 CURVE SMOOTH",
"57 391 OFFCURVE",
"39 373 OFFCURVE",
"39 352 CURVE SMOOTH",
"39 344 OFFCURVE",
"41 338 OFFCURVE",
"44 333 CURVE",
"200 20 LINE SMOOTH",
"202 17 OFFCURVE",
"204 14 OFFCURVE",
"207 12 CURVE",
"214 4 OFFCURVE",
"224 0 OFFCURVE",
"234 0 CURVE SMOOTH",
"245 0 OFFCURVE",
"254 4 OFFCURVE",
"262 12 CURVE SMOOTH",
"265 15 OFFCURVE",
"268 18 OFFCURVE",
"270 22 CURVE SMOOTH",
"649 781 LINE",
"703 781 LINE SMOOTH",
"725 781 OFFCURVE",
"742 799 OFFCURVE",
"742 820 CURVE SMOOTH",
"742 842 OFFCURVE",
"725 859 OFFCURVE",
"703 859 CURVE SMOOTH",
"625 859 LINE SMOOTH"
);
}
);
width = 781;
}
);
note = "\012    radical\012  ";
unicode = 221A;
changeCount = 1;
},
{
glyphname = infinity;
lastChange = "2016-10-19 22:54:34 +0000";
layers = (
{
layerId = "4B9C72B8-8622-4F9C-A154-BF8DEE7D8E25";
paths = (
{
closed = 1;
nodes = (
"396 227 OFFCURVE",
"402 220 OFFCURVE",
"409 213 CURVE SMOOTH",
"447 175 OFFCURVE",
"493 156 OFFCURVE",
"547 156 CURVE SMOOTH",
"655 156 OFFCURVE",
"742 244 OFFCURVE",
"742 352 CURVE SMOOTH",
"742 459 OFFCURVE",
"655 547 OFFCURVE",
"547 547 CURVE SMOOTH",
"493 547 OFFCURVE",
"447 528 OFFCURVE",
"409 490 CURVE SMOOTH",
"402 483 OFFCURVE",
"396 477 OFFCURVE",
"391 469 CURVE",
"385 477 OFFCURVE",
"379 483 OFFCURVE",
"373 490 CURVE SMOOTH",
"334 528 OFFCURVE",
"289 547 OFFCURVE",
"234 547 CURVE SMOOTH",
"126 547 OFFCURVE",
"39 459 OFFCURVE",
"39 352 CURVE SMOOTH",
"39 244 OFFCURVE",
"126 156 OFFCURVE",
"234 156 CURVE SMOOTH",
"289 156 OFFCURVE",
"334 175 OFFCURVE",
"373 213 CURVE SMOOTH",
"379 220 OFFCURVE",
"385 227 OFFCURVE",
"391 234 CURVE"
);
},
{
closed = 1;
nodes = (
"299 469 OFFCURVE",
"352 416 OFFCURVE",
"352 352 CURVE SMOOTH",
"352 287 OFFCURVE",
"299 234 OFFCURVE",
"234 234 CURVE SMOOTH",
"170 234 OFFCURVE",
"117 287 OFFCURVE",
"117 352 CURVE SMOOTH",
"117 416 OFFCURVE",
"170 469 OFFCURVE",
"234 469 CURVE SMOOTH"
);
},
{
closed = 1;
nodes = (
"611 469 OFFCURVE",
"664 416 OFFCURVE",
"664 352 CURVE SMOOTH",
"664 287 OFFCURVE",
"611 234 OFFCURVE",
"547 234 CURVE SMOOTH",
"482 234 OFFCURVE",
"430 287 OFFCURVE",
"430 352 CURVE SMOOTH",
"430 416 OFFCURVE",
"482 469 OFFCURVE",
"547 469 CURVE SMOOTH"
);
}
);
width = 781;
}
);
note = "\012    infinity\012  ";
unicode = 221E;
changeCount = 1;
},
{
glyphname = integral;
lastChange = "2016-10-19 22:54:34 +0000";
layers = (
{
layerId = "4B9C72B8-8622-4F9C-A154-BF8DEE7D8E25";
paths = (
{
closed = 1;
nodes = (
"488 748 OFFCURVE",
"506 764 OFFCURVE",
"506 791 CURVE",
"501 833 OFFCURVE",
"469 890 OFFCURVE",
"389 894 CURVE",
"336 894 OFFCURVE",
"281 854 OFFCURVE",
"273 790 CURVE SMOOTH",
"195 6 LINE SMOOTH",
"193 -15 OFFCURVE",
"173 -31 OFFCURVE",
"152 -28 CURVE SMOOTH",
"131 -26 OFFCURVE",
"120 -8 OFFCURVE",
"118 6 CURVE SMOOTH",
"116 22 OFFCURVE",
"101 39 OFFCURVE",
"79 39 CURVE SMOOTH",
"58 39 OFFCURVE",
"40 23 OFFCURVE",
"40 -4 CURVE",
"45 -46 OFFCURVE",
"83 -107 OFFCURVE",
"157 -107 CURVE SMOOTH",
"210 -107 OFFCURVE",
"266 -67 OFFCURVE",
"273 -3 CURVE SMOOTH",
"351 781 LINE SMOOTH",
"353 802 OFFCURVE",
"373 817 OFFCURVE",
"394 815 CURVE SMOOTH",
"416 813 OFFCURVE",
"426 796 OFFCURVE",
"428 784 CURVE",
"432 762 OFFCURVE",
"445 748 OFFCURVE",
"467 748 CURVE SMOOTH"
);
}
);
width = 547;
}
);
note = "\012    integral\012  ";
unicode = 222B;
changeCount = 1;
},
{
glyphname = uniF001;
lastChange = "2016-10-19 22:54:34 +0000";
layers = (
{
layerId = "4B9C72B8-8622-4F9C-A154-BF8DEE7D8E25";
paths = (
{
closed = 1;
nodes = (
"391 703 OFFCURVE",
"420 690 OFFCURVE",
"420 664 CURVE SMOOTH",
"420 637 OFFCURVE",
"442 615 OFFCURVE",
"469 615 CURVE SMOOTH",
"496 615 OFFCURVE",
"518 637 OFFCURVE",
"518 664 CURVE SMOOTH",
"518 742 OFFCURVE",
"456 781 OFFCURVE",
"332 781 CURVE SMOOTH",
"189 781 OFFCURVE",
"117 703 OFFCURVE",
"117 547 CURVE SMOOTH",
"117 518 LINE",
"78 518 LINE SMOOTH",
"57 518 OFFCURVE",
"39 500 OFFCURVE",
"39 479 CURVE SMOOTH",
"39 457 OFFCURVE",
"57 439 OFFCURVE",
"78 439 CURVE SMOOTH",
"117 439 LINE",
"117 39 LINE SMOOTH",
"117 18 OFFCURVE",
"135 0 OFFCURVE",
"156 0 CURVE SMOOTH",
"178 0 OFFCURVE",
"195 18 OFFCURVE",
"195 39 CURVE SMOOTH",
"195 439 LINE",
"313 439 LINE SMOOTH",
"334 439 OFFCURVE",
"352 457 OFFCURVE",
"352 479 CURVE SMOOTH",
"352 500 OFFCURVE",
"334 518 OFFCURVE",
"313 518 CURVE SMOOTH",
"195 518 LINE",
"195 547 LINE SMOOTH",
"195 651 OFFCURVE",
"241 703 OFFCURVE",
"332 703 CURVE SMOOTH"
);
},
{
closed = 1;
nodes = (
"430 18 OFFCURVE",
"447 0 OFFCURVE",
"469 0 CURVE SMOOTH",
"490 0 OFFCURVE",
"508 18 OFFCURVE",
"508 39 CURVE SMOOTH",
"508 508 LINE SMOOTH",
"508 529 OFFCURVE",
"490 547 OFFCURVE",
"469 547 CURVE SMOOTH",
"447 547 OFFCURVE",
"430 529 OFFCURVE",
"430 508 CURVE SMOOTH",
"430 39 LINE SMOOTH"
);
}
);
width = 547;
}
);
note = "\012    uniF001\012  ";
unicode = F001;
changeCount = 1;
},
{
glyphname = uniF002;
lastChange = "2016-10-19 22:54:34 +0000";
layers = (
{
layerId = "4B9C72B8-8622-4F9C-A154-BF8DEE7D8E25";
paths = (
{
closed = 1;
nodes = (
"391 18 OFFCURVE",
"408 0 OFFCURVE",
"430 0 CURVE SMOOTH",
"508 0 LINE SMOOTH",
"529 0 OFFCURVE",
"547 18 OFFCURVE",
"547 39 CURVE SMOOTH",
"547 61 OFFCURVE",
"529 78 OFFCURVE",
"508 78 CURVE SMOOTH",
"469 78 LINE",
"469 664 LINE SMOOTH",
"469 742 OFFCURVE",
"430 781 OFFCURVE",
"352 781 CURVE SMOOTH",
"195 781 OFFCURVE",
"117 703 OFFCURVE",
"117 547 CURVE SMOOTH",
"117 518 LINE",
"78 518 LINE SMOOTH",
"57 518 OFFCURVE",
"39 500 OFFCURVE",
"39 479 CURVE SMOOTH",
"39 457 OFFCURVE",
"57 439 OFFCURVE",
"78 439 CURVE SMOOTH",
"117 439 LINE",
"117 39 LINE SMOOTH",
"117 18 OFFCURVE",
"135 0 OFFCURVE",
"156 0 CURVE SMOOTH",
"178 0 OFFCURVE",
"195 18 OFFCURVE",
"195 39 CURVE SMOOTH",
"195 439 LINE",
"313 439 LINE SMOOTH",
"334 439 OFFCURVE",
"352 457 OFFCURVE",
"352 479 CURVE SMOOTH",
"352 500 OFFCURVE",
"334 518 OFFCURVE",
"313 518 CURVE SMOOTH",
"195 518 LINE",
"195 547 LINE SMOOTH",
"195 651 OFFCURVE",
"248 703 OFFCURVE",
"352 703 CURVE SMOOTH",
"377 703 OFFCURVE",
"391 690 OFFCURVE",
"391 664 CURVE SMOOTH",
"391 39 LINE SMOOTH"
);
}
);
width = 586;
}
);
note = "\012    uniF002\012  ";
unicode = F002;
changeCount = 1;
},
{
color = 4;
glyphname = dcroat;
lastChange = "2016-10-19 22:54:34 +0000";
layers = (
{
layerId = "4B9C72B8-8622-4F9C-A154-BF8DEE7D8E25";
paths = (
{
closed = 1;
nodes = (
"330 703 OFFCURVE",
"313 686 OFFCURVE",
"313 664 CURVE SMOOTH",
"313 643 OFFCURVE",
"330 625 OFFCURVE",
"352 625 CURVE SMOOTH",
"508 625 LINE",
"508 465 LINE",
"506 467 LINE SMOOTH",
"453 520 OFFCURVE",
"388 547 OFFCURVE",
"313 547 CURVE SMOOTH",
"162 547 OFFCURVE",
"39 424 OFFCURVE",
"39 273 CURVE SMOOTH",
"39 123 OFFCURVE",
"162 0 OFFCURVE",
"313 0 CURVE SMOOTH",
"463 0 OFFCURVE",
"586 123 OFFCURVE",
"586 273 CURVE SMOOTH",
"586 625 LINE",
"625 625 LINE SMOOTH",
"646 625 OFFCURVE",
"664 643 OFFCURVE",
"664 664 CURVE SMOOTH",
"664 686 OFFCURVE",
"646 703 OFFCURVE",
"625 703 CURVE SMOOTH",
"586 703 LINE",
"586 743 LINE SMOOTH",
"586 765 OFFCURVE",
"568 782 OFFCURVE",
"547 782 CURVE SMOOTH",
"525 782 OFFCURVE",
"508 765 OFFCURVE",
"508 743 CURVE SMOOTH",
"508 703 LINE",
"352 703 LINE SMOOTH"
);
},
{
closed = 1;
nodes = (
"508 166 OFFCURVE",
"420 78 OFFCURVE",
"313 78 CURVE SMOOTH",
"205 78 OFFCURVE",
"117 166 OFFCURVE",
"117 273 CURVE SMOOTH",
"117 381 OFFCURVE",
"205 469 OFFCURVE",
"313 469 CURVE SMOOTH",
"420 469 OFFCURVE",
"508 381 OFFCURVE",
"508 273 CURVE SMOOTH"
);
}
);
width = 703;
}
);
note = "\012    dcroat\012  ";
unicode = 0111;
changeCount = 1;
},
{
color = 4;
glyphname = Hbar;
lastChange = "2016-10-19 22:54:34 +0000";
layers = (
{
layerId = "4B9C72B8-8622-4F9C-A154-BF8DEE7D8E25";
paths = (
{
closed = 1;
nodes = (
"57 645 OFFCURVE",
"39 627 OFFCURVE",
"39 605 CURVE SMOOTH",
"39 584 OFFCURVE",
"57 566 OFFCURVE",
"78 566 CURVE SMOOTH",
"117 566 LINE",
"117 39 LINE SMOOTH",
"117 18 OFFCURVE",
"135 0 OFFCURVE",
"156 0 CURVE SMOOTH",
"178 0 OFFCURVE",
"195 18 OFFCURVE",
"195 39 CURVE SMOOTH",
"195 352 LINE",
"586 352 LINE",
"586 39 LINE SMOOTH",
"586 18 OFFCURVE",
"604 0 OFFCURVE",
"625 0 CURVE SMOOTH",
"646 0 OFFCURVE",
"664 18 OFFCURVE",
"664 39 CURVE SMOOTH",
"664 566 LINE",
"703 566 LINE SMOOTH",
"725 566 OFFCURVE",
"742 584 OFFCURVE",
"742 605 CURVE SMOOTH",
"742 627 OFFCURVE",
"725 645 OFFCURVE",
"703 645 CURVE SMOOTH",
"664 645 LINE",
"664 742 LINE SMOOTH",
"664 764 OFFCURVE",
"646 781 OFFCURVE",
"625 781 CURVE SMOOTH",
"604 781 OFFCURVE",
"586 764 OFFCURVE",
"586 742 CURVE SMOOTH",
"586 645 LINE",
"195 645 LINE",
"195 742 LINE SMOOTH",
"195 764 OFFCURVE",
"178 781 OFFCURVE",
"156 781 CURVE SMOOTH",
"135 781 OFFCURVE",
"117 764 OFFCURVE",
"117 742 CURVE SMOOTH",
"117 645 LINE",
"78 645 LINE SMOOTH"
);
},
{
closed = 1;
nodes = (
"586 430 LINE",
"195 430 LINE",
"195 566 LINE",
"586 566 LINE"
);
}
);
width = 781;
}
);
note = "\012    Hbar\012  ";
unicode = 0126;
changeCount = 1;
},
{
color = 4;
glyphname = hbar;
lastChange = "2016-10-19 22:54:34 +0000";
layers = (
{
layerId = "4B9C72B8-8622-4F9C-A154-BF8DEE7D8E25";
paths = (
{
closed = 1;
nodes = (
"37 703 OFFCURVE",
"20 686 OFFCURVE",
"20 664 CURVE SMOOTH",
"20 643 OFFCURVE",
"37 625 OFFCURVE",
"59 625 CURVE SMOOTH",
"98 625 LINE",
"98 39 LINE SMOOTH",
"98 18 OFFCURVE",
"115 0 OFFCURVE",
"137 0 CURVE SMOOTH",
"158 0 OFFCURVE",
"176 18 OFFCURVE",
"176 39 CURVE SMOOTH",
"176 293 LINE SMOOTH",
"176 390 OFFCURVE",
"254 469 OFFCURVE",
"352 469 CURVE SMOOTH",
"449 469 OFFCURVE",
"527 390 OFFCURVE",
"527 293 CURVE SMOOTH",
"527 39 LINE SMOOTH",
"527 18 OFFCURVE",
"545 0 OFFCURVE",
"566 0 CURVE SMOOTH",
"588 0 OFFCURVE",
"605 18 OFFCURVE",
"605 39 CURVE SMOOTH",
"605 293 LINE SMOOTH",
"605 433 OFFCURVE",
"492 547 OFFCURVE",
"352 547 CURVE SMOOTH",
"283 547 OFFCURVE",
"225 523 OFFCURVE",
"176 476 CURVE",
"176 625 LINE",
"332 625 LINE SMOOTH",
"354 625 OFFCURVE",
"371 643 OFFCURVE",
"371 664 CURVE SMOOTH",
"371 686 OFFCURVE",
"354 703 OFFCURVE",
"332 703 CURVE SMOOTH",
"176 703 LINE",
"176 742 LINE SMOOTH",
"176 764 OFFCURVE",
"158 781 OFFCURVE",
"137 781 CURVE SMOOTH",
"115 781 OFFCURVE",
"98 764 OFFCURVE",
"98 742 CURVE SMOOTH",
"98 703 LINE",
"59 703 LINE SMOOTH"
);
}
);
width = 645;
}
);
note = "\012    hbar\012  ";
unicode = 0127;
changeCount = 1;
},
{
color = 4;
glyphname = jcircumflex;
lastChange = "2016-10-19 22:54:34 +0000";
layers = (
{
layerId = "4B9C72B8-8622-4F9C-A154-BF8DEE7D8E25";
paths = (
{
closed = 1;
nodes = (
"249 755 OFFCURVE",
"242 757 OFFCURVE",
"235 757 CURVE SMOOTH",
"228 757 OFFCURVE",
"221 755 OFFCURVE",
"215 751 CURVE",
"98 674 LINE",
"96 672 OFFCURVE",
"93 670 OFFCURVE",
"90 667 CURVE SMOOTH",
"83 660 OFFCURVE",
"79 650 OFFCURVE",
"79 640 CURVE SMOOTH",
"79 618 OFFCURVE",
"96 601 OFFCURVE",
"118 601 CURVE SMOOTH",
"127 601 OFFCURVE",
"135 604 OFFCURVE",
"142 609 CURVE",
"235 670 LINE",
"328 609 LINE",
"334 604 OFFCURVE",
"343 601 OFFCURVE",
"352 601 CURVE SMOOTH",
"374 601 OFFCURVE",
"391 618 OFFCURVE",
"391 640 CURVE SMOOTH",
"391 650 OFFCURVE",
"387 660 OFFCURVE",
"380 667 CURVE",
"377 670 OFFCURVE",
"374 672 OFFCURVE",
"372 674 CURVE",
"255 751 LINE"
);
},
{
closed = 1;
nodes = (
"195 -86 OFFCURVE",
"125 -156 OFFCURVE",
"39 -156 CURVE SMOOTH",
"18 -156 OFFCURVE",
"0 -174 OFFCURVE",
"0 -195 CURVE SMOOTH",
"0 -217 OFFCURVE",
"18 -234 OFFCURVE",
"39 -234 CURVE SMOOTH",
"168 -234 OFFCURVE",
"273 -129 OFFCURVE",
"273 0 CURVE SMOOTH",
"273 508 LINE SMOOTH",
"273 529 OFFCURVE",
"256 547 OFFCURVE",
"234 547 CURVE SMOOTH",
"213 547 OFFCURVE",
"195 529 OFFCURVE",
"195 508 CURVE SMOOTH",
"195 0 LINE SMOOTH"
);
}
);
width = 371;
}
);
note = "\012    jcircumflex\012  ";
unicode = 0135;
changeCount = 1;
},
{
color = 4;
glyphname = kgreenlandic;
lastChange = "2016-10-19 22:54:34 +0000";
layers = (
{
layerId = "4B9C72B8-8622-4F9C-A154-BF8DEE7D8E25";
paths = (
{
closed = 1;
nodes = (
"117 529 OFFCURVE",
"100 546 OFFCURVE",
"78 546 CURVE SMOOTH",
"57 546 OFFCURVE",
"39 529 OFFCURVE",
"39 507 CURVE SMOOTH",
"39 39 LINE SMOOTH",
"39 18 OFFCURVE",
"57 0 OFFCURVE",
"78 0 CURVE SMOOTH",
"100 0 OFFCURVE",
"117 18 OFFCURVE",
"117 39 CURVE SMOOTH",
"117 233 LINE",
"198 285 LINE",
"440 12 LINE",
"449 4 OFFCURVE",
"458 0 OFFCURVE",
"469 0 CURVE SMOOTH",
"490 0 OFFCURVE",
"508 18 OFFCURVE",
"508 39 CURVE SMOOTH",
"508 49 OFFCURVE",
"504 59 OFFCURVE",
"497 66 CURVE SMOOTH",
"265 328 LINE",
"491 476 LINE",
"497 480 LINE",
"504 488 OFFCURVE",
"508 497 OFFCURVE",
"508 508 CURVE SMOOTH",
"508 529 OFFCURVE",
"490 547 OFFCURVE",
"469 547 CURVE SMOOTH",
"461 547 OFFCURVE",
"454 545 OFFCURVE",
"448 541 CURVE SMOOTH",
"117 326 LINE",
"117 507 LINE SMOOTH"
);
}
);
width = 547;
}
);
note = "\012    kgreenlandic\012  ";
unicode = 0138;
changeCount = 1;
},
{
color = 4;
glyphname = Lslash;
lastChange = "2016-10-19 22:54:34 +0000";
layers = (
{
layerId = "4B9C72B8-8622-4F9C-A154-BF8DEE7D8E25";
paths = (
{
closed = 1;
nodes = (
"16 308 OFFCURVE",
"12 299 OFFCURVE",
"12 288 CURVE SMOOTH",
"12 277 OFFCURVE",
"16 268 OFFCURVE",
"23 260 CURVE SMOOTH",
"39 245 OFFCURVE",
"63 245 OFFCURVE",
"79 260 CURVE SMOOTH",
"117 298 LINE",
"117 39 LINE SMOOTH",
"117 18 OFFCURVE",
"135 0 OFFCURVE",
"156 0 CURVE SMOOTH",
"586 0 LINE SMOOTH",
"607 0 OFFCURVE",
"625 18 OFFCURVE",
"625 39 CURVE SMOOTH",
"625 61 OFFCURVE",
"607 78 OFFCURVE",
"586 78 CURVE SMOOTH",
"195 78 LINE",
"195 375 LINE",
"301 480 LINE SMOOTH",
"309 488 OFFCURVE",
"313 497 OFFCURVE",
"313 508 CURVE SMOOTH",
"313 519 OFFCURVE",
"309 528 OFFCURVE",
"301 536 CURVE SMOOTH",
"286 551 OFFCURVE",
"261 551 OFFCURVE",
"246 536 CURVE SMOOTH",
"195 485 LINE",
"195 742 LINE SMOOTH",
"195 764 OFFCURVE",
"178 781 OFFCURVE",
"156 781 CURVE SMOOTH",
"135 781 OFFCURVE",
"117 764 OFFCURVE",
"117 742 CURVE SMOOTH",
"117 408 LINE",
"23 315 LINE SMOOTH"
);
}
);
width = 664;
}
);
note = "\012    Lslash\012  ";
unicode = 0141;
changeCount = 1;
},
